<svg xmlns="http://www.w3.org/2000/svg" viewBox="0 0 495.4189 454.1733">
  <defs>
    <style>
      .cls-1 {
        fill: #bcc9db;
      }

      .cls-2 {
        fill: #e0e0e0;
      }

      .cls-19, .cls-21, .cls-24, .cls-3 {
        fill: #6eabff;
      }

      .cls-13, .cls-4 {
        opacity: 0.3;
      }

      .cls-11, .cls-18, .cls-23, .cls-25, .cls-27, .cls-5 {
        fill: #fff;
      }

      .cls-28, .cls-6 {
        opacity: 0.15;
      }

      .cls-7 {
        fill: #37474f;
      }

      .cls-8 {
        fill: #455a64;
      }

      .cls-9 {
        fill: #263238;
      }

      .cls-10 {
        fill: #fafafa;
      }

      .cls-11, .cls-22 {
        opacity: 0.5;
      }

      .cls-12, .cls-24, .cls-27 {
        opacity: 0.4;
      }

      .cls-14, .cls-21 {
        opacity: 0.2;
      }

      .cls-15, .cls-19 {
        opacity: 0.1;
      }

      .cls-16 {
        fill: #ebebeb;
      }

      .cls-17 {
        opacity: 0.7;
      }

      .cls-18 {
        opacity: 0.8;
      }

      .cls-20 {
        opacity: 0.05;
      }

      .cls-23 {
        opacity: 0.6;
      }

      .cls-25 {
        opacity: 0.35;
      }

      .cls-26 {
        fill: #f0f0f0;
      }

      .cls-29 {
        opacity: 0.25;
      }
    </style>
  </defs>
  <g id="Floor">
    <ellipse id="Floor-2" data-name="Floor" class="cls-1" cx="247.7094" cy="308.6719" rx="247.7094" ry="145.5015"/>
  </g>
  <g id="Shadows">
    <path id="Shadow" class="cls-2" d="M78.508,330.4015c14.3336,8.2755,14.3336,21.6927,0,29.9683s-37.5731,8.2756-51.9067,0-14.3335-21.6927,0-29.9684S64.1744,322.126,78.508,330.4015Z" transform="translate(-3.8105 -21.6058)"/>
    <path id="Shadow-2" data-name="Shadow" class="cls-2" d="M109.9657,349.42l130.0221,75.0682a10.6126,10.6126,0,0,0,9.6025,0L469.6914,297.4132c2.6516-1.531,2.6516-4.0131,0-5.544L339.6693,216.8008a10.612,10.612,0,0,0-9.6025,0L109.9657,343.8762C107.314,345.4072,107.314,347.8892,109.9657,349.42Z" transform="translate(-3.8105 -21.6058)"/>
  </g>
  <g id="Plants">
    <g id="Plants-2" data-name="Plants">
      <g>
        <path class="cls-3" d="M438.1054,270.4921l-9.0584-5.2342s-5.3914-22.4016-3.2429-42.5587c3.0206-28.34,18.2723-40.6873,28.769-36.56,6.9824,2.7456,9.1481,10.6908-2.5892,27.57C445.0587,223.668,436.5517,244.4109,438.1054,270.4921Z" transform="translate(-3.8105 -21.6058)"/>
        <g class="cls-4">
          <path d="M438.1054,270.4921l-9.0584-5.2342s-5.3914-22.4016-3.2429-42.5587c3.0206-28.34,18.2723-40.6873,28.769-36.56,6.9824,2.7456,9.1481,10.6908-2.5892,27.57C445.0587,223.668,436.5517,244.4109,438.1054,270.4921Z" transform="translate(-3.8105 -21.6058)"/>
        </g>
        <path class="cls-5" d="M434.3519,259.4869a.7083.7083,0,0,0,.0866-.0106.6281.6281,0,0,0,.5-.7343c-4.9654-26.1394,4.1659-55.5125,15.4734-67.735a.6283.6283,0,0,0-.9229-.8528c-11.5136,12.4454-20.8235,42.298-15.7847,68.8221A.6284.6284,0,0,0,434.3519,259.4869Z" transform="translate(-3.8105 -21.6058)"/>
      </g>
      <g>
        <path class="cls-3" d="M461.8347,284.1961c1.4307.7283,5.2363-2.5291,6.2973-3.3214a13.2884,13.2884,0,0,0,4.1586-5.2894,12.45,12.45,0,0,0,.7284-7.5258,29.467,29.467,0,0,0-1.1451-3.9242q-.6515-1.9-1.3028-3.8a9.7763,9.7763,0,0,1-.7613-3.86c.2043-2.6538,2.4517-4.6193,4.4993-6.32,2.264-1.8807,4.5973-4.33,4.4236-7.504a11.1871,11.1871,0,0,0-3.1319-6.5057c-1.615-1.8457-3.5019-3.4532-4.9761-5.4133a7.807,7.807,0,0,1-1.8465-4.8523,8.14,8.14,0,0,1,.919-3.136c1.0169-2.1236,2.4-4.0914,3.0613-6.351s.4118-5.0161-1.4017-6.5175c-1.4883-1.2326-3.6114-1.308-5.5309-1.0836a12.5474,12.5474,0,0,0-4.99,2.0446c-4.8985,3.0565-7.474,9.1705-12.7132,11.5967-2.0206.9358-4.2716,1.2319-6.3932,1.9087s-4.2587,1.8855-5.1539,3.9246c-1.7657,4.02,2.1214,8.6688.9512,12.9006-1.0354,3.7449-4.5435,5.3351-6.3861,8.756a7.8843,7.8843,0,0,0-.6969,4.8694,23.1609,23.1609,0,0,0,2.4439,8.0457,72.7366,72.7366,0,0,0,4.8392,7.4391S461.6156,284.0842,461.8347,284.1961Z" transform="translate(-3.8105 -21.6058)"/>
        <g class="cls-6">
          <path d="M461.8347,284.1961c1.4307.7283,5.2363-2.5291,6.2973-3.3214a13.2884,13.2884,0,0,0,4.1586-5.2894,12.45,12.45,0,0,0,.7284-7.5258,29.467,29.467,0,0,0-1.1451-3.9242q-.6515-1.9-1.3028-3.8a9.7763,9.7763,0,0,1-.7613-3.86c.2043-2.6538,2.4517-4.6193,4.4993-6.32,2.264-1.8807,4.5973-4.33,4.4236-7.504a11.1871,11.1871,0,0,0-3.1319-6.5057c-1.615-1.8457-3.5019-3.4532-4.9761-5.4133a7.807,7.807,0,0,1-1.8465-4.8523,8.14,8.14,0,0,1,.919-3.136c1.0169-2.1236,2.4-4.0914,3.0613-6.351s.4118-5.0161-1.4017-6.5175c-1.4883-1.2326-3.6114-1.308-5.5309-1.0836a12.5474,12.5474,0,0,0-4.99,2.0446c-4.8985,3.0565-7.474,9.1705-12.7132,11.5967-2.0206.9358-4.2716,1.2319-6.3932,1.9087s-4.2587,1.8855-5.1539,3.9246c-1.7657,4.02,2.1214,8.6688.9512,12.9006-1.0354,3.7449-4.5435,5.3351-6.3861,8.756a7.8843,7.8843,0,0,0-.6969,4.8694,23.1609,23.1609,0,0,0,2.4439,8.0457,72.7366,72.7366,0,0,0,4.8392,7.4391S461.6156,284.0842,461.8347,284.1961Z" transform="translate(-3.8105 -21.6058)"/>
        </g>
        <path class="cls-5" d="M447.9691,276.9693l.0172-.0008a.6316.6316,0,0,0,.5774-.6841c-2.2935-24.8623,8.0584-52.96,16.1919-61.3817a.6286.6286,0,1,0-.9041-.8737c-8.2971,8.5909-18.8648,37.1579-16.54,62.37A.6292.6292,0,0,0,447.9691,276.9693Z" transform="translate(-3.8105 -21.6058)"/>
        <path class="cls-5" d="M450.4389,246.3139a.6071.6071,0,0,0,.1836-.0377A84.3543,84.3543,0,0,1,468.556,242.45a.63.63,0,0,0,.569-.6837.61.61,0,0,0-.6837-.5687c-.1015.01-10.214.9635-18.2494,3.8988a.6283.6283,0,0,0,.247,1.2176Z" transform="translate(-3.8105 -21.6058)"/>
      </g>
    </g>
  </g>
  <g id="Device">
    <g id="Laptop">
      <path class="cls-7" d="M114.4106,335.6235c0,3.281,2.4561,7.3584,5.4849,9.1071l119.4066,68.9532a12.1222,12.1222,0,0,0,10.9688,0L460.5323,292.2892a10.3039,10.3039,0,0,0,.0007-18.2147L341.1259,205.1217a12.1222,12.1222,0,0,0-10.9688,0L119.8944,326.5162C116.8655,328.265,114.41,332.3424,114.4106,335.6235Z" transform="translate(-3.8105 -21.6058)"/>
      <path class="cls-8" d="M119.8944,332.8491l119.4077,68.953a12.1222,12.1222,0,0,0,10.9688,0L460.533,280.4073c3.0289-1.7487,3.0289-4.5841,0-6.3328L341.1259,205.1217a12.1222,12.1222,0,0,0-10.9688,0L119.8944,326.5162C116.8655,328.265,116.8655,331.1,119.8944,332.8491Z" transform="translate(-3.8105 -21.6058)"/>
      <path class="cls-9" d="M244.789,403.1239v11.8679a11.1827,11.1827,0,0,1-5.4843-1.3045L119.8928,344.731c-3.0271-1.7479-5.4842-5.8263-5.4842-9.1067,0-3.0778,2.1658-6.8523,4.927-8.7522-2.4573,1.7607-2.2672,4.3444.5572,5.9783l119.4119,68.9565A11.19,11.19,0,0,0,244.789,403.1239Z" transform="translate(-3.8105 -21.6058)"/>
      <path class="cls-7" d="M109.2656,326.7122c-2.8411-1.64-2.6867-4.4107-2.6867-7.9081l-.001-164.9308a12.1222,12.1222,0,0,1,5.4844-9.4992L322.3239,22.98a11.762,11.762,0,0,1,10.63-.1961c2.8418,1.6407,2.6878,4.4107,2.6878,7.9082V195.6224a12.1226,12.1226,0,0,1-5.4844,9.4993L119.8944,326.5162A11.7593,11.7593,0,0,1,109.2656,326.7122Z" transform="translate(-3.8105 -21.6058)"/>
      <path class="cls-8" d="M335.6436,30.687c0-3.49-2.4582-4.9064-5.4865-3.1661L119.8913,148.9215a11.1392,11.1392,0,0,0-3.8739,4.1l-7.8266-4.5523h-.01a11.2442,11.2442,0,0,1,3.8837-4.1L322.3205,22.9784c3.0285-1.75,7.7873-1.8387,10.629-.1966S335.6436,27.1966,335.6436,30.687Z" transform="translate(-3.8105 -21.6058)"/>
      <path class="cls-9" d="M119.2469,326.8468c-3.0272,1.4186-7.3334,1.3932-9.9806-.1394-2.8372-1.6338-2.6847-4.4057-2.6847-7.9014V153.8684a11.0653,11.0653,0,0,1,1.6085-5.3954l7.827,4.5324v.0125a11.2438,11.2438,0,0,0-1.6085,5.3957V323.3511C114.4086,326.5934,116.5237,328.05,119.2469,326.8468Z" transform="translate(-3.8105 -21.6058)"/>
      <path class="cls-10" d="M122.8446,155.246l202.72-117.01c1.8174-1.0491,3.2908-.1984,3.2908,1.9V184.1111a7.2734,7.2734,0,0,1-3.2908,5.7l-202.72,117.0076c-1.8176,1.0492-3.2908.1986-3.2908-1.9V160.9454A7.2728,7.2728,0,0,1,122.8446,155.246Z" transform="translate(-3.8105 -21.6058)"/>
      <path class="cls-9" d="M135.0718,326.84,330.2409,214.1608a6.0618,6.0618,0,0,1,5.4846,0l3.25,1.785c1.5147.8744,1.5146,2.2919,0,3.1662L143.777,331.7737a6.0634,6.0634,0,0,1-5.4849,0l-3.22-1.7674C133.5574,329.1321,133.5573,327.7144,135.0718,326.84Z" transform="translate(-3.8105 -21.6058)"/>
      <g>
        <path class="cls-9" d="M150.38,335.9426,345.5461,223.262a5.5924,5.5924,0,0,1,5.0109-.2733l50.8,29.3305c1.253.7233,1.041,2.0186-.4737,2.8929L205.9436,367.7394a5.6217,5.6217,0,0,1-5.017.2812l-51.0145-29.193C148.6558,338.1087,148.8652,336.817,150.38,335.9426Z" transform="translate(-3.8105 -21.6058)"/>
        <path class="cls-8" d="M319.4944,270.59l6.1105-3.5276c.26-.15.2833-.38.0529-.513l-5.8463-3.3753a.9853.9853,0,0,0-.8878.0306l-6.1107,3.5281c-.26.15-.2829.3789-.0522.5122l5.846,3.3753A.9851.9851,0,0,0,319.4944,270.59Zm-8.9222-12.2071-6.1109,3.5277c-.2592.15-.2827.38-.0522.5128l5.846,3.3753a.9866.9866,0,0,0,.8876-.03l6.1107-3.5284c.26-.15.2837-.38.0529-.5122L311.46,258.352A.9848.9848,0,0,0,310.5722,258.3824ZM290.83,269.7807l-10.3414,5.9706c-.2593.1492-.2828.3793-.0524.5118l5.8462,3.3756a.9851.9851,0,0,0,.8876-.03l10.3412-5.97c.26-.15.2832-.3794.0524-.5125L291.718,269.75A.9856.9856,0,0,0,290.83,269.7807Zm10.811-6.2424-6.1109,3.5285c-.2589.1495-.2831.3793-.052.512l5.8462,3.3754a.9846.9846,0,0,0,.8871-.03l6.1107-3.528c.26-.15.2836-.3794.0529-.5124l-5.8465-3.375A.9826.9826,0,0,0,301.6412,263.5383Zm-23.9725,13.8409-6.1107,3.5279c-.26.15-.2831.38-.0529.5125l5.8466,3.3755a.9855.9855,0,0,0,.8875-.03l6.1109-3.5287c.2591-.1495.2826-.3787.0519-.5119l-5.8457-3.3753A.9841.9841,0,0,0,277.6687,277.3792Zm-8.9312,5.1565-6.1107,3.5278c-.26.15-.2829.3794-.0526.5126l5.8463,3.375a.9832.9832,0,0,0,.8876-.03l6.1108-3.528c.26-.15.283-.3794.0522-.5126l-5.8458-3.3746A.9836.9836,0,0,0,268.7375,282.5357Zm22.9144,13.7725,6.1111-3.5285c.2586-.1494.2828-.3793.052-.512l-5.846-3.3753a.9845.9845,0,0,0-.8875.03l-6.1107,3.5277c-.26.15-.2836.3793-.0529.5128l5.8464,3.3753A.9851.9851,0,0,0,291.6519,296.3082Zm-8.9308,5.1559,6.1106-3.5275c.26-.15.2828-.38.0521-.5129l-5.8456-3.3748a.9854.9854,0,0,0-.8878.03l-6.1108,3.5282c-.26.15-.2829.38-.0528.5123l5.8464,3.3754A.9842.9842,0,0,0,282.7211,301.4641ZM273.79,306.621l6.1107-3.5286c.26-.15.2831-.3788.0523-.512l-5.8457-3.3756a.9852.9852,0,0,0-.8878.0305l-6.1107,3.5279c-.26.15-.2829.3792-.0523.5125l5.8459,3.3754A.9863.9863,0,0,0,273.79,306.621Zm-8.9311,5.1559,6.1108-3.5279c.26-.15.283-.38.0522-.5125l-5.8459-3.375a.9836.9836,0,0,0-.8876.03l-6.1106,3.5279c-.26.15-.2833.3792-.0525.5126l5.8459,3.3747A.9837.9837,0,0,0,264.8587,311.7769Zm45.705-36.031,6.11-3.5282c.2594-.1495.283-.3794.0527-.5122L310.88,268.33a.9845.9845,0,0,0-.887.03l-6.1106,3.5277c-.26.15-.2839.38-.0532.5128l5.846,3.3753A.9858.9858,0,0,0,310.5637,275.7459Zm-9.9805,15.4058,13.6314-7.87c.26-.15.2828-.3794.0521-.5126l-14.1973-8.197a.985.985,0,0,0-.8877.0305l-7.05,4.07c-.26.15-.2832.3794-.0531.5129l7.5169,4.3394c.2306.133.2067.3627-.0529.5124l-5.64,3.2568c-.26.15-.2835.38-.0526.5121l5.8463,3.3753A.9847.9847,0,0,0,300.5832,291.1517Zm-40.7766-3.46-6.111,3.5284c-.26.15-.2829.38-.052.5122l5.8457,3.3755a.9851.9851,0,0,0,.8876-.03l6.1109-3.5277c.26-.15.2829-.3795.0522-.5127l-5.8458-3.3755A.986.986,0,0,0,259.8066,287.6917Zm-8.9311,5.1568-6.1109,3.5276c-.26.15-.283.38-.0522.5127l5.8456,3.3755a.9857.9857,0,0,0,.8879-.03l6.1108-3.5282c.26-.15.2829-.38.0525-.5122l-5.8462-3.3755A.9849.9849,0,0,0,250.8755,292.8485ZM201.4538,347.902a.9855.9855,0,0,0,.8876-.03l6.1109-3.5281c.2592-.15.2829-.38.0523-.5128l-5.846-3.3749a.9853.9853,0,0,0-.8877.03l-6.1106,3.5277c-.26.15-.2828.3794-.0529.5128ZM179.427,334.099l-6.1105,3.528c-.26.15-.2833.38-.0524.5126l5.8458,3.3747a.9825.9825,0,0,0,.8877-.03l6.1108-3.528c.26-.15.283-.3793.0522-.5124l-5.846-3.3749A.9838.9838,0,0,0,179.427,334.099Zm11.3246,10.338a.9851.9851,0,0,0,.8876-.03l6.1112-3.5284c.2594-.15.2828-.38.0519-.512l-5.8456-3.3755a.9845.9845,0,0,0-.8876.03l-6.1106,3.5279c-.26.15-.2833.3794-.0525.5126Zm24.6419,5.5423,6.1105-3.528c.26-.15.2832-.3794.0528-.5125l-5.8462-3.3756a.9858.9858,0,0,0-.888.0309l-6.1106,3.5279c-.2589.1494-.2829.3794-.0521.5126l5.846,3.3748A.9835.9835,0,0,0,215.3935,349.9793Zm-9.8185,5.1865a.9842.9842,0,0,0,.8872-.03l6.1109-3.5284c.26-.15.283-.3789.0527-.5122l-5.8464-3.3752a.9848.9848,0,0,0-.8875.03l-6.1108,3.5285c-.2592.15-.2831.3789-.0523.5119Zm-17.2168-26.2232-6.1108,3.5279c-.26.15-.2828.38-.0522.5126l5.8459,3.3755a.9857.9857,0,0,0,.8876-.03l6.1107-3.5283c.26-.15.2831-.379.0523-.5122l-5.8457-3.3753A.9849.9849,0,0,0,188.3582,328.9426Zm44.655-25.7816-6.1108,3.5279c-.2591.15-.283.3793-.0522.5126l5.8458,3.3752a.9847.9847,0,0,0,.8876-.03l6.111-3.5285c.26-.15.2828-.3789.0525-.512l-5.8463-3.3755A.9848.9848,0,0,0,233.0132,303.161Zm-35.7241,20.6256-6.1107,3.5279c-.26.1495-.2828.3794-.0522.5122l5.8458,3.3754a.9837.9837,0,0,0,.8878-.03l6.1108-3.528c.26-.15.2828-.3793.0521-.5125l-5.8457-3.3755A.9855.9855,0,0,0,197.2891,323.7866Zm44.6551-25.7822-6.1108,3.5284c-.26.15-.2829.3794-.052.5122l5.8458,3.3753a.9829.9829,0,0,0,.8877-.03l6.1105-3.5276c.26-.15.2832-.38.053-.5127l-5.8462-3.3756A.9866.9866,0,0,0,241.9442,298.0044Zm-17.8617,10.313-6.1106,3.528c-.26.15-.2838.3793-.0529.5125l5.8465,3.3748a.9827.9827,0,0,0,.8878-.03l6.11-3.5279c.26-.15.2837-.3794.0527-.5126l-5.8464-3.3749A.9824.9824,0,0,0,224.0825,308.3174Zm-8.9311,5.1561-6.1106,3.5284c-.26.15-.2835.3793-.0527.512l5.8462,3.3755a.9851.9851,0,0,0,.8876-.03l6.111-3.5277c.259-.15.2828-.38.052-.5129l-5.8457-3.3752A.9864.9864,0,0,0,215.1514,313.4735ZM206.22,318.63l-6.1106,3.5278c-.26.15-.2833.38-.0529.5128l5.8462,3.3753a.9851.9851,0,0,0,.8876-.03l6.111-3.5283c.26-.15.2829-.38.0522-.5127L207.108,318.6A.986.986,0,0,0,206.22,318.63Zm40.776,3.46,6.1106-3.5282c.26-.15.2833-.38.053-.5122l-5.8463-3.3756a.9849.9849,0,0,0-.8875.0306l-6.111,3.5275c-.26.15-.2827.3795-.0521.5129l5.8457,3.3752A.9845.9845,0,0,0,246.9964,322.09Zm83.3183-75.1059-6.1106,3.5282c-.26.15-.2828.3792-.0529.5124l5.8464,3.3752a.9858.9858,0,0,0,.8878-.03l6.1106-3.5278c.26-.15.2828-.3793.0525-.5127l-5.8462-3.3754A.9852.9852,0,0,0,330.3147,246.984Zm-10.8113,6.2419-6.1107,3.5282c-.26.15-.2829.3789-.0524.5122l5.8457,3.3755a.986.986,0,0,0,.8876-.03l6.111-3.5278c.2594-.15.2829-.38.0527-.5128l-5.8462-3.3753A.9853.9853,0,0,0,319.5034,253.2259Zm19.742-11.3977-6.11,3.5275c-.26.15-.2831.3794-.0529.5128l5.8465,3.3748a.9826.9826,0,0,0,.887-.03l6.111-3.5278c.26-.15.2835-.38.0528-.5127l-5.846-3.3754A.9863.9863,0,0,0,339.2454,241.8282Zm-49.3643,45.8586,6.1107-3.5278c.26-.15.283-.3793.0523-.5128l-5.8456-3.3753a.9858.9858,0,0,0-.8878.03L283.2,283.8294c-.26.15-.2828.3792-.0528.5123l5.8462,3.3755A.9858.9858,0,0,0,289.8811,287.6868Zm59.1832-51.0457a.986.986,0,0,0-.8879.03l-6.11,3.528c-.26.15-.2835.3794-.0528.5126l5.8463,3.3753a.9826.9826,0,0,0,.887-.03l6.1108-3.5284c.26-.15.2836-.3791.0529-.5122Zm-93.1366,80.2922,6.1106-3.5277c.26-.15.283-.38.0523-.5126l-5.846-3.3756a.9858.9858,0,0,0-.8875.03l-6.1108,3.5288c-.26.1495-.2831.3793-.0522.5118l5.8458,3.3754A.9843.9843,0,0,0,255.9277,316.9333ZM365.45,253.7l6.1106-3.5276c.26-.15.2831-.38.0526-.5129l-5.8465-3.3747a.9841.9841,0,0,0-.8877.03l-6.1105,3.5278c-.2591.15-.2833.38-.0525.5127l5.8461,3.3749A.9836.9836,0,0,0,365.45,253.7Zm-17.2823.3352,6.1106-3.5287c.26-.1494.283-.3786.0521-.5118l-5.8462-3.3755a.9836.9836,0,0,0-.887.03l-6.1108,3.5276c-.26.15-.2837.38-.053.5128l5.8465,3.3752A.9846.9846,0,0,0,348.1681,254.0352Zm9.2477-12.5725a.984.984,0,0,0-.8875.03l-6.1111,3.5283c-.2589.15-.2829.3794-.052.512l5.8463,3.3753a.9847.9847,0,0,0,.887-.03l6.1109-3.5279c.26-.15.2835-.3794.0527-.5126Zm1.88-1.0852,14.1974,8.1971a.9857.9857,0,0,0,.8876-.03l6.1106-3.5278c.26-.15.2832-.38.053-.5128l-14.1979-8.1971a.9858.9858,0,0,0-.8879.03l-6.1105,3.5277C359.0893,240.0144,359.0654,240.2443,359.2962,240.3775Zm-20.63,11.4288-6.11,3.5276c-.26.15-.2834.3793-.0526.5126l5.8463,3.3748a.9823.9823,0,0,0,.8876-.03l6.1107-3.5278c.2593-.15.2831-.3795.0524-.5126l-5.8457-3.3753A.9862.9862,0,0,0,338.6661,251.8063Zm-67.2175,38.8074-6.1109,3.5284c-.26.15-.2831.3795-.0521.5122l5.8457,3.3752a.9845.9845,0,0,0,.8875-.03l6.111-3.528c.26-.15.2828-.3793.052-.5124l-5.8457-3.3755A.9845.9845,0,0,0,271.4486,290.6137Zm84.1833-31.7267a.9863.9863,0,0,0,.8877-.03l6.1109-3.528c.2591-.15.2829-.38.0522-.5126l-5.8464-3.3755a.9843.9843,0,0,0-.8872.03L349.8382,255c-.26.1495-.2834.3794-.0526.5121Zm-75.2525,26.5708-6.1108,3.5278c-.26.15-.2828.38-.0521.5126l5.8459,3.3755a.9853.9853,0,0,0,.8874-.03l6.111-3.5284c.26-.15.2831-.38.0521-.5122l-5.8457-3.3753A.9849.9849,0,0,0,280.3794,285.4578Zm-69.9946,57.2875a.9847.9847,0,0,0,.8877-.03l6.111-3.528c.2588-.15.2828-.3792.052-.5124l-5.8462-3.3754a.9847.9847,0,0,0-.8871.03l-6.1108,3.5283c-.26.15-.283.3794-.0529.5121ZM200,331.8647l-6.1109,3.5284c-.26.1495-.283.3792-.0522.5121l5.8459,3.3752a.9849.9849,0,0,0,.8875-.03l6.1109-3.5277c.26-.15.283-.3793.0522-.5127l-5.8457-3.3755A.985.985,0,0,0,200,331.8647Zm20.203,5.6939,6.1105-3.528c.26-.15.2839-.3794.0531-.5126l-5.8465-3.3748a.9846.9846,0,0,0-.8878.03l-6.1106,3.528c-.259.15-.283.3794-.0521.5125l5.8464,3.3749A.9829.9829,0,0,0,220.2032,337.5586Zm8.9311-5.1559,6.1107-3.5279c.26-.15.2834-.38.0529-.5128l-5.8465-3.3754a.9857.9857,0,0,0-.8877.03l-6.1105,3.5279c-.26.15-.2833.38-.0523.5126l5.8463,3.3754A.9853.9853,0,0,0,229.1343,332.4027Zm8.9312-5.1568,6.1106-3.5276c.26-.15.2831-.3794.0528-.513l-5.8464-3.3752a.9845.9845,0,0,0-.8877.0309l-6.1105,3.5275c-.26.15-.2833.38-.0523.5123l5.8458,3.3754A.9838.9838,0,0,0,238.0655,327.2459Zm-29.1345-.5372-6.1105,3.5276c-.26.15-.2829.3794-.0529.5127l5.8466,3.3749a.9838.9838,0,0,0,.8877-.03l6.1105-3.5276c.26-.15.2831-.38.0526-.5129l-5.8463-3.3748A.9838.9838,0,0,0,208.931,326.7087Zm8.9313-5.1568-6.1106,3.5279c-.26.15-.2836.38-.0529.5126l5.8464,3.3757a.9849.9849,0,0,0,.8875-.0305l6.111-3.5285c.259-.15.2829-.3788.052-.512l-5.8458-3.3753A.9863.9863,0,0,0,217.8623,321.5519Zm35.7241-20.6249-6.111,3.5277c-.26.15-.2828.3794-.0522.5128l5.8458,3.3748a.9832.9832,0,0,0,.8877-.0305l6.1107-3.5275c.26-.15.2831-.38.053-.5129l-5.8464-3.3748A.9829.9829,0,0,0,253.5864,300.927Zm-8.9312,5.1559-6.1108,3.5282c-.2592.15-.2832.38-.0523.5124l5.8458,3.3753a.9856.9856,0,0,0,.8877-.03l6.1108-3.5276c.26-.15.2835-.38.0527-.5129l-5.8462-3.3752A.985.985,0,0,0,244.6552,306.0829Zm17.862-10.3127-6.1106,3.528c-.26.15-.283.3794-.0524.5126l5.8458,3.3755a.9852.9852,0,0,0,.8878-.03l6.1108-3.5284c.26-.15.2828-.3788.0521-.512l-5.8459-3.3754A.9863.9863,0,0,0,262.5172,295.77Zm-35.7236,20.6253-6.1108,3.5284c-.2595.15-.2837.3794-.0528.512l5.8464,3.3753a.9839.9839,0,0,0,.8876-.03l6.1106-3.5279c.2592-.15.2832-.3794.0523-.5126l-5.8463-3.3747A.9834.9834,0,0,0,226.7936,316.3955Zm8.93-5.1561-6.1107,3.528c-.2594.15-.2832.3794-.0521.5126l5.8462,3.3753a.9849.9849,0,0,0,.8872-.03l6.1107-3.5286c.26-.15.2834-.3793.0527-.512l-5.8464-3.3753A.9845.9845,0,0,0,235.724,311.2394ZM224.3245,344.823l6.1106-3.5282c.26-.15.283-.3787.0529-.5123l-5.8465-3.3752a.9841.9841,0,0,0-.8877.03l-6.1105,3.5278c-.26.15-.2833.38-.0525.5128l5.8459,3.3754A.9868.9868,0,0,0,224.3245,344.823ZM177.23,342.6l-5.8465-3.3753a.9856.9856,0,0,0-.8877.03l-6.1107,3.5282c-.26.15-.283.3789-.0523.5123l5.8457,3.3755a.986.986,0,0,0,.888-.0306l6.1106-3.5275C177.437,342.9629,177.46,342.7336,177.23,342.6Zm11.6413,2.9221-5.8461-3.3749a.983.983,0,0,0-.8875.03l-9.401,5.4276c-.26.15-.2829.3793-.0522.5126l5.846,3.3747a.9831.9831,0,0,0,.8874-.03l9.4011-5.4277C189.0789,345.8846,189.1021,345.6554,188.8714,345.5224Zm-20.3677-9.5885-5.8458-3.3749a.9838.9838,0,0,0-.8876.03l-7.521,4.3424c-.2592.15-.2833.38-.0524.5122l5.8458,3.3755a.9856.9856,0,0,0,.8877-.0305l7.5212-4.3423C168.7114,336.2971,168.7346,336.0671,168.5037,335.9339Zm5.7666-3.3287a.9839.9839,0,0,0,.8869-.03l6.1107-3.5286c.26-.15.2838-.3789.0529-.512l-5.8462-3.3754a.9866.9866,0,0,0-.888.03l-6.11,3.5277c-.26.1506-.2834.38-.0529.5126Zm25.3032,16.3818-5.8458-3.3753a.9857.9857,0,0,0-.8877.0309l-11.7517,6.7842c-.26.15-.2831.3794-.0521.5126l5.8457,3.3753a.9854.9854,0,0,0,.8876-.03L199.5209,349.5C199.7808,349.35,199.8042,349.1205,199.5735,348.987Zm4.1213,7.2643-5.8467-3.3748a.982.982,0,0,0-.8869.03l-7.5213,4.3422c-.26.15-.283.38-.0523.5124l5.846,3.3754a.9852.9852,0,0,0,.8878-.03l7.5211-4.3421C203.9017,356.6142,203.9249,356.3844,203.6948,356.2513Zm36.9784-61.9839a.9837.9837,0,0,0,.8871-.03l6.1106-3.5286c.26-.15.2836-.3789.0528-.512l-5.8457-3.3752a.9853.9853,0,0,0-.8883.03l-6.11,3.5279c-.26.15-.2835.3794-.0527.5125ZM222.8108,304.58a.986.986,0,0,0,.8879-.03l6.1107-3.5286c.26-.1493.2829-.3787.052-.5119l-5.8458-3.3754a.9849.9849,0,0,0-.8876.0305l-6.1106,3.5275c-.26.15-.283.38-.053.5129Zm-39.61,22.8686a.9846.9846,0,0,0,.8877-.03l6.1107-3.528c.26-.15.2835-.38.0528-.5126l-5.8462-3.3754a.9857.9857,0,0,0-.8877.0307l-6.1108,3.528c-.2591.15-.283.3793-.0522.5125Zm48.5415-28.0252a.9835.9835,0,0,0,.8876-.03l6.1108-3.528c.26-.15.283-.3794.0522-.5126l-5.8459-3.3753a.986.986,0,0,0-.8877.0306l-6.1105,3.5279c-.26.15-.2833.3795-.0529.5126ZM213.88,309.7368a.9854.9854,0,0,0,.8877-.0311l6.11-3.5276c.26-.15.2833-.38.0526-.5129l-5.8458-3.3749a.9844.9844,0,0,0-.8877.0305l-6.111,3.5277c-.26.15-.2828.38-.052.5127Zm-5.7992,46.8759a.9853.9853,0,0,0-.888.03l-9.4009,5.4277c-.26.15-.2831.3794-.0525.5126l5.8462,3.3748a.9832.9832,0,0,0,.8876-.03l9.4009-5.4275c.26-.15.2829-.3794.0522-.5126Zm-7.0178-39.4766a.9859.9859,0,0,0,.8877-.03l6.1105-3.5278c.26-.15.2831-.3794.0526-.5128l-5.8457-3.3754a.9858.9858,0,0,0-.8879.03l-6.1107,3.5281c-.26.15-.2828.3791-.0523.5123Zm-8.931,5.1565a.9844.9844,0,0,0,.8876-.03l6.1107-3.5284c.26-.15.2832-.3794.0528-.5121l-5.8462-3.3754a.985.985,0,0,0-.8877.03l-6.1109,3.528c-.26.15-.2829.3794-.0522.5125Zm181.4075-61.2081a.9851.9851,0,0,0-.8876.03l-15.0412,8.6843c-.26.15-.2836.38-.053.513l5.8467,3.3748a.9839.9839,0,0,0,.8876-.03l15.0413-8.6844c.2594-.15.2833-.379.0526-.5122Zm-19.7421,11.3984a.983.983,0,0,0-.8876.0305l-6.1106,3.5275c-.26.15-.283.3795-.0525.5128l5.8459,3.3753a.9857.9857,0,0,0,.888-.0308l6.1105-3.528c.26-.1493.283-.3793.0522-.5125ZM233.2557,339.6666l6.1107-3.5278c.26-.15.2829-.38.0521-.5127l-5.8458-3.3753a.9854.9854,0,0,0-.8876.03l-6.1107,3.5283c-.26.15-.2832.3789-.0523.5123l5.8457,3.3755A.9861.9861,0,0,0,233.2557,339.6666Zm102.6794-56.8712a.9856.9856,0,0,0-.8877.03l-6.1107,3.5277c-.26.15-.2831.38-.0523.5129l5.8458,3.3754a.9864.9864,0,0,0,.8875-.03l6.1109-3.5285c.26-.15.2832-.3793.0528-.5121Zm46.5355-26.8673a.9847.9847,0,0,0-.8876.03l-6.1109,3.5285c-.2591.15-.283.3794-.0522.5121l5.8459,3.3754a.9854.9854,0,0,0,.8876-.03l6.1106-3.528c.26-.15.2832-.3792.053-.5126Zm14.7774-1.7806L383.05,245.95a.985.985,0,0,0-.8874.03l-6.1109,3.5284c-.26.15-.2832.3794-.0522.512l14.1976,8.1974a.9855.9855,0,0,0,.8874-.03l6.1109-3.5287C397.4548,254.51,397.4782,254.28,397.248,254.1475Zm-94.6866,47.9164a.9846.9846,0,0,0-.8875.03l-7.521,4.3421c-.26.15-.2832.38-.0524.5128l5.8458,3.3748a.9841.9841,0,0,0,.8877-.03l7.5207-4.342c.26-.15.2834-.38.0525-.5123Zm22.5628-13.0267a.9853.9853,0,0,0-.8877.03l-9.4013,5.428c-.26.1495-.2829.379-.0527.5123l5.8464,3.3752a.9851.9851,0,0,0,.8877-.0305l9.4011-5.4277c.26-.15.283-.379.0522-.5124Zm-43.2451,24.9675a.9855.9855,0,0,0-.8878.03l-50.2956,29.0386c-.26.15-.2836.3794-.0528.512l5.8463,3.3754a.9834.9834,0,0,0,.8877-.03l50.2956-29.038c.26-.15.2833-.38.0526-.5128Zm-53.1163,30.6668a.9843.9843,0,0,0-.8874.03l-7.5214,4.3423c-.26.15-.283.38-.0522.5128l5.8457,3.3753a.9854.9854,0,0,0,.8877-.0308l7.5216-4.3423c.2588-.15.2826-.3789.0519-.512ZM292.22,308.0344a.9842.9842,0,0,0-.8876.03l-7.52,4.3419c-.26.1505-.2837.38-.0529.5129l5.8464,3.3747a.9826.9826,0,0,0,.8878-.03l7.5207-4.3428c.26-.1495.2828-.3787.052-.512Zm-73.7986,42.6072a.9856.9856,0,0,0-.8875.0305l-7.5209,4.3422c-.26.15-.2829.3794-.0521.5126l5.8457,3.3754a.985.985,0,0,0,.8877-.03l7.5207-4.3422c.26-.15.2834-.3793.0529-.5127Zm94.4811-54.5479a.9823.9823,0,0,0-.8876.03l-7.5212,4.3422c-.2589.15-.2828.3793-.052.512l5.8463,3.3753a.9835.9835,0,0,0,.887-.03l7.5214-4.3422c.26-.15.2829-.3793.0522-.5126Zm31.9639-18.4548a.9866.9866,0,0,0-.888.03l-6.1105,3.5282c-.26.15-.2829.379-.0521.5124l5.8458,3.3754a.9855.9855,0,0,0,.8876-.03l6.1106-3.5276c.26-.15.2829-.38.0526-.5129Zm20.0043-13.9606,6.1107-3.5279c.26-.15.2838-.38.0531-.5127l-5.8465-3.3747a.9837.9837,0,0,0-.8877.03l-6.1108,3.5278c-.259.15-.283.38-.0523.5128l5.8465,3.3749A.9832.9832,0,0,0,364.8706,263.6783Zm-36.4452,1.7547,6.1107-3.528c.26-.15.2829-.3794.053-.5126l-5.8466-3.3747a.9829.9829,0,0,0-.8876.03l-6.1107,3.5278c-.26.15-.2829.3793-.0522.5125l5.8456,3.3749A.983.983,0,0,0,328.4254,265.433Zm-23.7216,32.983,17.8624-10.3127c.26-.15.2827-.38.052-.5126l-5.8458-3.3754a.9855.9855,0,0,0-.8876.03l-17.8622,10.3128c-.26.15-.2832.3794-.0524.5126l5.8459,3.3749A.9843.9843,0,0,0,304.7038,298.416Zm50.3485-29.5509a.9849.9849,0,0,0,.8872-.03l6.1108-3.5279c.26-.15.2834-.3793.0526-.5127l-5.8462-3.3754a.9844.9844,0,0,0-.8871.0305l-6.1113,3.5283c-.2592.1495-.2826.38-.0523.5122Zm-7.464-4.8518,6.1111-3.5285c.259-.15.283-.3793.052-.5119l-5.8458-3.3754a.9844.9844,0,0,0-.8876.03l-6.1106,3.5279c-.26.15-.2837.3794-.0528.5125l5.8462,3.3755A.9852.9852,0,0,0,347.5883,264.0133Zm-51.8155,39.5591,6.1108-3.5283c.26-.15.283-.3789.0522-.5121l-5.8459-3.3754a.9844.9844,0,0,0-.8877.03l-6.1109,3.5284c-.26.15-.2828.3789-.0521.512l5.846,3.3753A.9848.9848,0,0,0,295.7728,303.5724ZM335.31,280.2635a.9861.9861,0,0,0,.8878-.03l6.1107-3.5284c.26-.15.283-.3794.0526-.5122l-5.8463-3.3752a.9839.9839,0,0,0-.8875.03l-6.1108,3.528c-.26.15-.2831.3793-.0522.5124Zm-84.1919,49.09,6.1109-3.5284c.2592-.15.2826-.3788.0522-.512l-5.8462-3.3754a.9844.9844,0,0,0-.8874.03l-6.1108,3.5285c-.26.15-.2828.3789-.053.5121l5.8465,3.3754A.9852.9852,0,0,0,251.1178,329.354Zm8.931-5.1565,6.111-3.5279c.2592-.15.2828-.3794.0521-.5125l-5.8464-3.3756a.9842.9842,0,0,0-.8871.0309l-6.1108,3.528c-.26.1494-.2832.3793-.0529.5123l5.8465,3.375A.9832.9832,0,0,0,260.0488,324.1975ZM242.1867,334.51l6.1106-3.528c.26-.15.2833-.3793.0524-.5125l-5.8459-3.3748a.9849.9849,0,0,0-.8878.03l-6.1106,3.528c-.26.15-.2829.3794-.0527.5126l5.8463,3.3756A.9861.9861,0,0,0,242.1867,334.51Zm35.724-20.6252,6.1105-3.5276c.26-.15.2836-.38.0527-.5129l-5.8459-3.3753a.9866.9866,0,0,0-.888.03l-6.1107,3.5283c-.2592.15-.2831.3789-.0523.5119l5.8459,3.3757A.9852.9852,0,0,0,277.9107,313.8849Zm-8.931,5.1559,6.1105-3.5277c.26-.1495.2835-.3788.0527-.5123l-5.8462-3.3752a.9835.9835,0,0,0-.888.03l-6.1105,3.5274c-.2593.15-.283.38-.0522.5129l5.8463,3.3754A.9848.9848,0,0,0,268.98,319.0408Zm17.8619-10.3124,6.1109-3.5279c.26-.15.283-.3794.0527-.5126l-5.8464-3.3748a.9832.9832,0,0,0-.8876.03l-6.1109,3.528c-.2594.15-.2829.3793-.0521.5125l5.8457,3.3757A.9855.9855,0,0,0,286.8416,308.7284Zm48.737-71.7315a.9862.9862,0,0,0,.8877-.03l6.1109-3.5284c.26-.15.2828-.379.0521-.5122l-1.5559-.8989a.9857.9857,0,0,0-.888.0306l-6.1107,3.5283c-.2588.1494-.2828.3789-.0519.5121Zm-44.39,28.1051a.9833.9833,0,0,0,.8875-.03l6.1109-3.528c.2591-.15.283-.3793.0522-.5126l-5.8459-3.3748a.9833.9833,0,0,0-.8877.03l-6.1107,3.5285c-.26.15-.2835.3793-.053.5125ZM309.0506,254.79a.9841.9841,0,0,0,.8871-.03l6.1106-3.5277c.26-.15.2832-.38.0529-.5129l-5.8463-3.3753a.985.985,0,0,0-.8874.03l-6.1111,3.5282c-.2589.15-.283.38-.0521.5124Zm-28.7678,16.609a.985.985,0,0,0,.8877-.03l6.1109-3.5281c.2594-.1494.2829-.3793.0522-.5125l-5.8459-3.3754a.9854.9854,0,0,0-.8877.031l-6.1106,3.5276c-.26.15-.2832.3794-.0524.5128Zm19.8366-11.4526a.9851.9851,0,0,0,.8879-.03l6.1107-3.5284c.2588-.15.2829-.3793.0519-.512L301.3237,252.5a.9831.9831,0,0,0-.8871.03l-6.1107,3.528c-.26.15-.2836.3793-.0529.5126Zm-37.6989,21.7656a.9865.9865,0,0,0,.8879-.0309l6.1106-3.5277c.26-.15.2832-.38.053-.513l-5.8464-3.3747a.984.984,0,0,0-.8878.03l-6.1109,3.5278c-.26.1505-.2827.38-.052.5127Zm8.9311-5.1565a.9862.9862,0,0,0,.8878-.03l6.111-3.5281c.2594-.15.2826-.379.0519-.5123l-5.8458-3.3754a.9852.9852,0,0,0-.8875.03l-6.1107,3.5278c-.26.15-.283.3794-.0525.5128ZM317.7164,247.31a.9852.9852,0,0,0,.8878-.0305l6.111-3.5284c.2592-.1494.2826-.3787.0524-.5119l-1.5566-.8987a.9847.9847,0,0,0-.887.03l-6.1109,3.5286c-.26.15-.2835.379-.0528.512ZM344.51,231.84a.9847.9847,0,0,0,.8877-.03l6.111-3.528c.2594-.15.2828-.3794.0521-.5126l-1.5562-.8989a.9861.9861,0,0,0-.8877.031l-6.1106,3.5276c-.26.15-.2833.38-.0525.5128Zm12.2807,7.09a.9855.9855,0,0,0,.8878-.03l6.1107-3.528c.26-.15.2829-.3793.0529-.5126l-5.8466-3.3752a.9842.9842,0,0,0-.8876.03l-6.1108,3.5285c-.26.15-.2831.3794-.0522.5121Zm17.0114,19.5917,6.1108-3.5284c.26-.15.2836-.379.0528-.5122l-5.8464-3.3752a.9862.9862,0,0,0-.8877.03l-6.1107,3.528c-.2594.15-.283.38-.0522.5124l5.8456,3.3758A.9862.9862,0,0,0,373.8018,258.5223Zm-47.1541-16.37a.9823.9823,0,0,0,.8876-.03l6.1106-3.5277c.26-.15.2832-.3795.0525-.5125l-1.5564-.8983a.984.984,0,0,0-.8877.03l-6.1106,3.528c-.2592.15-.2832.3794-.0524.5126ZM253.49,286.8674a.9844.9844,0,0,0,.8876-.03l6.1107-3.528c.26-.15.2836-.3794.0527-.5124l-5.8463-3.3754a.9846.9846,0,0,0-.8875.03l-6.111,3.5285c-.2591.15-.2828.3789-.0521.5121Z" transform="translate(-3.8105 -21.6058)"/>
      </g>
      <polygon class="cls-7" points="276.109 311.323 277.362 312.045 310.642 331.256 369.825 297.085 371.058 296.383 336.525 276.45 276.109 311.323"/>
      <polygon class="cls-9" points="277.362 312.045 310.642 331.256 369.825 297.085 336.525 277.874 277.362 312.045"/>
    </g>
  </g>
  <g id="Mail_Box" data-name="Mail Box">
    <g id="MailBox">
      <g>
        <g>
          <path class="cls-3" d="M93.0309,183.2606l-13.559-7.8279c-.6031-.3481-1.0426-.4352-1.28-.2967-.2843.1659-1.4136.8189-1.6517.9545-.2878.1638-.2832.6543.0813,1.4088l3.2985,6.829-2.4619,2.2594a1.9155,1.9155,0,0,0,.3585,3.26l13.5589,7.8283,1.6552-.9565Z" transform="translate(-3.8105 -21.6058)"/>
          <path class="cls-11" d="M93.0309,183.2606l-13.559-7.8279c-.6031-.3481-1.0426-.4352-1.28-.2967-.2843.1659-1.4136.8189-1.6517.9545-.2878.1638-.2832.6543.0813,1.4088l3.2985,6.829-2.4619,2.2594a1.9155,1.9155,0,0,0,.3585,3.26l13.5589,7.8283,1.6552-.9565Z" transform="translate(-3.8105 -21.6058)"/>
          <path class="cls-3" d="M77.8168,176.3892c-1.3259-.7654-1.8609-.2685-1.1951,1.11l3.2984,6.8291-2.4618,2.2593a1.9157,1.9157,0,0,0,.3585,3.26l13.5589,7.8282V184.2171Z" transform="translate(-3.8105 -21.6058)"/>
        </g>
        <path class="cls-8" d="M92.969,226.3986a1.5935,1.5935,0,0,1-1.5935-1.5936v-45.04a1.5935,1.5935,0,1,1,3.187,0v45.04A1.5934,1.5934,0,0,1,92.969,226.3986Z" transform="translate(-3.8105 -21.6058)"/>
      </g>
      <g>
        <path class="cls-9" d="M34.6219,346.3308V343.517h.6937a11.0538,11.0538,0,0,1,4.5573-4.4743c7.0061-4.0446,18.3639-4.0446,25.37,0A11.0535,11.0535,0,0,1,69.8,343.517h.6861v2.7243c.0564,2.692-1.6855,5.3942-5.2435,7.4482-7.0057,4.0447-18.3635,4.0447-25.37,0C36.3549,351.6583,34.6061,348.9931,34.6219,346.3308Z" transform="translate(-3.8105 -21.6058)"/>
        <ellipse class="cls-8" cx="48.7473" cy="321.9109" rx="17.9388" ry="10.3569"/>
      </g>
      <g>
        <path class="cls-7" d="M57.1777,245.9855l-.0032,96.3027a2.2945,2.2945,0,0,1-1.3523,1.8849,7.2162,7.2162,0,0,1-6.5295,0,2.294,2.294,0,0,1-1.3518-1.8849l.0032-96.3027Z" transform="translate(-3.8105 -21.6058)"/>
        <polygon class="cls-9" points="44.13 236.027 44.13 245.086 53.366 250.405 53.367 241.37 44.13 236.027"/>
      </g>
      <g>
        <path class="cls-3" d="M81.43,237.37l17.0756,9.8684a1.2321,1.2321,0,0,1-.3327.3437L68.302,264.8243c-.255.1441-.4546.0332-.4546-.2661V243.0363a33.6055,33.6055,0,0,1,2.4948-12.0638Z" transform="translate(-3.8105 -21.6058)"/>
        <path class="cls-12" d="M81.43,237.37l17.0756,9.8684a1.2321,1.2321,0,0,1-.3327.3437L68.302,264.8243c-.255.1441-.4546.0332-.4546-.2661V243.0363a33.6055,33.6055,0,0,1,2.4948-12.0638Z" transform="translate(-3.8105 -21.6058)"/>
        <path class="cls-3" d="M98.6355,223.2305v24.0837L70.3462,230.9769c.0281-.0774.06-.1584.0915-.2358,3.0338-7.5774,8.1476-14.0039,13.6907-17.1925a12.953,12.953,0,0,1,6.3984-1.9814C95.5279,211.5672,98.6355,216.0368,98.6355,223.2305Z" transform="translate(-3.8105 -21.6058)"/>
        <path class="cls-13" d="M98.6355,223.2305v24.0837L70.3462,230.9769c.0281-.0774.06-.1584.0915-.2358,3.0338-7.5774,8.1476-14.0039,13.6907-17.1925a12.953,12.953,0,0,1,6.3984-1.9814C95.5279,211.5672,98.6355,216.0368,98.6355,223.2305Z" transform="translate(-3.8105 -21.6058)"/>
      </g>
      <g>
        <path class="cls-3" d="M129.3615,274.1994l-.0008-2.1508h-.2044v.3068a9.2886,9.2886,0,0,0-.5606-1.7406c-1.13-2.6361-3.5089-5.1631-7.141-7.2606L101.239,251.6836a3.37,3.37,0,0,0-3.0479,0L67.2833,269.5273a4.4041,4.4041,0,0,1-.9827-1.0829l0,2.1668v.0009l0,0a1.071,1.071,0,0,0,.6307.8792l20.2158,11.6705c5.4093,3.1252,12.4835,4.66,19.3359,4.5682,5.93-.0774,11.6951-1.3726,16.0874-3.9136,4.5445-2.6121,6.7845-6.0789,6.7847-9.6169Z" transform="translate(-3.8105 -21.6058)"/>
        <path class="cls-12" d="M129.3615,274.1994l-.0008-2.1508h-.2044v.3068a9.2886,9.2886,0,0,0-.5606-1.7406c-1.13-2.6361-3.5089-5.1631-7.141-7.2606L101.239,251.6836a3.37,3.37,0,0,0-3.0479,0L67.2833,269.5273a4.4041,4.4041,0,0,1-.9827-1.0829l0,2.1668v.0009l0,0a1.071,1.071,0,0,0,.6307.8792l20.2158,11.6705c5.4093,3.1252,12.4835,4.66,19.3359,4.5682,5.93-.0774,11.6951-1.3726,16.0874-3.9136,4.5445-2.6121,6.7845-6.0789,6.7847-9.6169Z" transform="translate(-3.8105 -21.6058)"/>
        <path class="cls-3" d="M128.5957,270.6148c-1.13-2.6361-3.5089-5.1631-7.141-7.2606L101.239,251.6836a3.37,3.37,0,0,0-3.0479,0L67.2833,269.5273l19.8638,11.47c5.4093,3.1252,12.4835,4.66,19.3359,4.5682,5.93-.0809,11.6951-1.3761,16.0874-3.9136,4.079-2.3475,6.3068-5.3777,6.7187-8.5347A9.0276,9.0276,0,0,0,128.5957,270.6148Z" transform="translate(-3.8105 -21.6058)"/>
        <path class="cls-14" d="M128.5957,270.6148c-1.13-2.6361-3.5089-5.1631-7.141-7.2606L101.239,251.6836a3.37,3.37,0,0,0-3.0479,0L67.2833,269.5273l19.8638,11.47c5.4093,3.1252,12.4835,4.66,19.3359,4.5682,5.93-.0809,11.6951-1.3761,16.0874-3.9136,4.079-2.3475,6.3068-5.3777,6.7187-8.5347A9.0276,9.0276,0,0,0,128.5957,270.6148Z" transform="translate(-3.8105 -21.6058)"/>
        <path class="cls-3" d="M129.2891,273.1171a9.0276,9.0276,0,0,0-.6934-2.5023c-1.13-2.6361-3.5089-5.1631-7.141-7.2606L101.239,251.6836a3.37,3.37,0,0,0-3.0479,0L67.2833,269.5273l-.352-.2006a.9291.9291,0,0,1,0-1.76l31.26-18.0477a3.37,3.37,0,0,1,3.0479,0L121.4547,261.19c3.6321,2.0976,6.0113,4.6245,7.141,7.2607a9.0961,9.0961,0,0,1,.7144,2.6571A8.3427,8.3427,0,0,1,129.2891,273.1171Z" transform="translate(-3.8105 -21.6058)"/>
        <path class="cls-13" d="M129.2891,273.1171a9.0276,9.0276,0,0,0-.6934-2.5023c-1.13-2.6361-3.5089-5.1631-7.141-7.2606L101.239,251.6836a3.37,3.37,0,0,0-3.0479,0L67.2833,269.5273l-.352-.2006a.9291.9291,0,0,1,0-1.76l31.26-18.0477a3.37,3.37,0,0,1,3.0479,0L121.4547,261.19c3.6321,2.0976,6.0113,4.6245,7.141,7.2607a9.0961,9.0961,0,0,1,.7144,2.6571A8.3427,8.3427,0,0,1,129.2891,273.1171Z" transform="translate(-3.8105 -21.6058)"/>
      </g>
      <polygon class="cls-3" points="63.801 245.653 95.061 227.605 94.368 225.972 64.494 243.221 63.801 245.653"/>
      <polygon class="cls-15" points="63.801 245.653 95.061 227.605 94.368 225.972 64.494 243.221 63.801 245.653"/>
      <g>
        <g id="Letter">
          <path class="cls-1" d="M95.88,221.7953a1.6439,1.6439,0,0,0-.7439-1.2885L57.0772,198.5333a1.6442,1.6442,0,0,0-1.4879,0l-.8386.4841a1.6445,1.6445,0,0,0-.744,1.2886V229.479a1.65,1.65,0,0,0,.744,1.2885L92.81,252.7411a1.6507,1.6507,0,0,0,1.4879,0l.8385-.4841a1.6506,1.6506,0,0,0,.7439-1.2885Z" transform="translate(-3.8105 -21.6058)"/>
          <path class="cls-2" d="M95.6633,221.0626,93.5516,222.28,54.2252,199.5728a1.5384,1.5384,0,0,1,.5244-.5561l.8411-.4822a1.6262,1.6262,0,0,1,1.4853,0l38.0594,21.9719A1.52,1.52,0,0,1,95.6633,221.0626Z" transform="translate(-3.8105 -21.6058)"/>
          <g>
            <path class="cls-3" d="M93.3788,252.9017a.592.592,0,0,0,.1443.011h-.0444A.2782.2782,0,0,1,93.3788,252.9017Z" transform="translate(-3.8105 -21.6058)"/>
            <path class="cls-16" d="M93.5563,222.2765l-.3882.2329a.64.64,0,0,1,.3882.632V252.314a.5148.5148,0,0,1-.2328.4879.4834.4834,0,0,1-.3548.011c-.0555-.0221-.1109-.0443-.1554-.0665L54.7483,230.77a1.6653,1.6653,0,0,1-.7431-1.2863V200.3111a1.5579,1.5579,0,0,1,.2219-.7429Z" transform="translate(-3.8105 -21.6058)"/>
          </g>
          <path class="cls-14" d="M93.5516,222.28l-17.6254,6.5848a2.8636,2.8636,0,0,1-3.4-1.1191l-2.83-4.3363L54.0844,199.4919l15.0472,24.0807-15.1246,5.919a1.5521,1.5521,0,0,0,.2323.7427L69.174,223.64l3.289,5.2637a2.8642,2.8642,0,0,0,3.5863,1.1015l2.3419-1.0336L93.3228,252.801a.5149.5149,0,0,0,.2288-.4892v-.4857L78.4642,228.94Z" transform="translate(-3.8105 -21.6058)"/>
        </g>
        <g id="Letter-2" data-name="Letter">
          <path class="cls-1" d="M86.8718,226.9583a1.6442,1.6442,0,0,0-.7439-1.2885L48.0687,203.6962a1.6447,1.6447,0,0,0-1.488,0l-.8385.4841a1.6443,1.6443,0,0,0-.744,1.2886V234.642a1.65,1.65,0,0,0,.7439,1.2885l38.0593,21.9736a1.6507,1.6507,0,0,0,1.4879,0l.8385-.4841a1.65,1.65,0,0,0,.7439-1.2886Z" transform="translate(-3.8105 -21.6058)"/>
          <path class="cls-2" d="M86.6548,226.2255l-2.1117,1.2178L45.2168,204.7358a1.5393,1.5393,0,0,1,.5243-.5562l.8412-.4821a1.6266,1.6266,0,0,1,1.4852,0L86.1269,225.67A1.5176,1.5176,0,0,1,86.6548,226.2255Z" transform="translate(-3.8105 -21.6058)"/>
          <g>
            <path class="cls-3" d="M84.37,258.0646a.586.586,0,0,0,.1442.0111H84.47A.2753.2753,0,0,1,84.37,258.0646Z" transform="translate(-3.8105 -21.6058)"/>
            <path class="cls-16" d="M84.5479,227.4394l-.3882.233a.64.64,0,0,1,.3882.632V257.477a.5147.5147,0,0,1-.2329.4879.4838.4838,0,0,1-.3548.0111c-.0554-.0222-.1109-.0445-.1553-.0667L45.74,235.933a1.6653,1.6653,0,0,1-.743-1.2863V205.4741a1.5577,1.5577,0,0,1,.2217-.7428Z" transform="translate(-3.8105 -21.6058)"/>
          </g>
          <path class="cls-14" d="M84.5431,227.4433l-17.6254,6.5849a2.8635,2.8635,0,0,1-3.4-1.1193l-2.83-4.3362L45.0759,204.6549l15.0473,24.0807-15.1247,5.919a1.5514,1.5514,0,0,0,.2323.7426l14.9347-6.5939,3.2891,5.2636a2.8644,2.8644,0,0,0,3.5863,1.1016l2.3419-1.0337L84.3144,257.964a.5148.5148,0,0,0,.2287-.4892v-.4858L69.4557,234.1026Z" transform="translate(-3.8105 -21.6058)"/>
        </g>
        <g id="Letter-3" data-name="Letter">
          <path class="cls-1" d="M77.8633,232.1214a1.6443,1.6443,0,0,0-.7438-1.2887L39.06,208.8592a1.645,1.645,0,0,0-1.488,0l-.8384.4841a1.6441,1.6441,0,0,0-.7441,1.2886V239.805a1.6508,1.6508,0,0,0,.7439,1.2886L74.793,263.067a1.65,1.65,0,0,0,1.4879,0l.8384-.4841a1.65,1.65,0,0,0,.7439-1.2885Z" transform="translate(-3.8105 -21.6058)"/>
          <path class="cls-2" d="M77.6464,231.3886l-2.1118,1.2176L36.2083,209.8987a1.537,1.537,0,0,1,.5243-.556l.8412-.4822a1.626,1.626,0,0,1,1.4852,0l38.06,21.972A1.52,1.52,0,0,1,77.6464,231.3886Z" transform="translate(-3.8105 -21.6058)"/>
          <g>
            <path class="cls-3" d="M75.3619,263.2276a.586.586,0,0,0,.1441.0111h-.0442A.2756.2756,0,0,1,75.3619,263.2276Z" transform="translate(-3.8105 -21.6058)"/>
            <path class="cls-16" d="M75.5394,232.6025l-.3882.2328a.64.64,0,0,1,.3882.632V262.64a.5146.5146,0,0,1-.2328.4879.4838.4838,0,0,1-.355.0111c-.0553-.0222-.1107-.0444-.1552-.0665L36.7313,241.0959a1.6651,1.6651,0,0,1-.743-1.2862V210.6371a1.5574,1.5574,0,0,1,.2218-.7429Z" transform="translate(-3.8105 -21.6058)"/>
          </g>
          <path class="cls-14" d="M75.5346,232.6062l-17.6254,6.585a2.8639,2.8639,0,0,1-3.4-1.1192l-2.83-4.3363L36.0675,209.8178l15.0472,24.0808L35.99,239.8177a1.55,1.55,0,0,0,.2323.7425l14.9347-6.594,3.289,5.2637a2.8645,2.8645,0,0,0,3.5863,1.1016l2.3419-1.0337,14.9316,23.8291a.5146.5146,0,0,0,.2287-.4892v-.4856L60.4473,239.2656Z" transform="translate(-3.8105 -21.6058)"/>
        </g>
      </g>
      <g>
        <path class="cls-3" d="M94.6806,210.7923c-3.0272-1.5856-7.0411-1.3084-11.4318,1.2308-4.9342,2.8385-9.3806,7.9723-12.4963,13.8711a43.4917,43.4917,0,0,0-1.9515,4.1913,35.37,35.37,0,0,0-2.7166,12.9508V267.63a3.2034,3.2034,0,0,1-1.519-.3659L20.7742,241.9693A3.404,3.404,0,0,1,19.255,239.33V215.979c0-11.6646,7.6841-25.5468,17.1532-31.0243,4.4907-2.5946,8.5711-2.8053,11.6314-1.0867l.011-.0221Z" transform="translate(-3.8105 -21.6058)"/>
        <path class="cls-14" d="M94.6806,210.7923c-3.0272-1.5856-7.0411-1.3084-11.4318,1.2308-4.9342,2.8385-9.3806,7.9723-12.4963,13.8711a43.4917,43.4917,0,0,0-1.9515,4.1913,35.37,35.37,0,0,0-2.7166,12.9508V267.63a3.2034,3.2034,0,0,1-1.519-.3659L20.7742,241.9693A3.404,3.404,0,0,1,19.255,239.33V215.979c0-11.6646,7.6841-25.5468,17.1532-31.0243,4.4907-2.5946,8.5711-2.8053,11.6314-1.0867l.011-.0221Z" transform="translate(-3.8105 -21.6058)"/>
        <path class="cls-15" d="M20.7742,241.9693l43.7912,25.2943a3.2034,3.2034,0,0,0,1.519.3659V243.0363a31.37,31.37,0,0,1,.82-6.89l-46.84-27.0429a31.4787,31.4787,0,0,0-.81,6.876V239.33A3.404,3.404,0,0,0,20.7742,241.9693Z" transform="translate(-3.8105 -21.6058)"/>
        <path class="cls-3" d="M68.801,230.0855a35.37,35.37,0,0,0-2.7166,12.9508V267.63a3.0292,3.0292,0,0,1-.5544-.0554c-.011-1.4193-.022-9.3139-.022-24.5378,0-18.0957,13.9154-29.5939,17.7408-31.0132-4.9342,2.8385-9.3806,7.9723-12.4963,13.8711A43.4917,43.4917,0,0,0,68.801,230.0855Z" transform="translate(-3.8105 -21.6058)"/>
        <path class="cls-12" d="M68.801,230.0855a35.37,35.37,0,0,0-2.7166,12.9508V267.63a3.0292,3.0292,0,0,1-.5544-.0554c-.011-1.4193-.022-9.3139-.022-24.5378,0-18.0957,13.9154-29.5939,17.7408-31.0132-4.9342,2.8385-9.3806,7.9723-12.4963,13.8711A43.4917,43.4917,0,0,0,68.801,230.0855Z" transform="translate(-3.8105 -21.6058)"/>
      </g>
      <path class="cls-3" d="M68.3046,264.827c-.2525.1459-.4572.0277-.4572-.264V243.0381a33.5135,33.5135,0,0,1,2.4988-12.0612c.0281-.0774.06-.1584.0915-.2358a41.1492,41.1492,0,0,1,2.0835-4.431c3.0337-5.61,7.1832-10.2169,11.6072-12.7615a12.953,12.953,0,0,1,6.3984-1.9814,7.0874,7.0874,0,0,1,3.3681.8058c2.9915,1.5944,4.7406,5.4588,4.7406,10.8575v23.5558a1.01,1.01,0,0,1-.4571.7919l.693,1.633c.0528-.0317.1055-.0634.1549-.0985a2.9438,2.9438,0,0,0,.63-.6089l.0035-.0071a3.2835,3.2835,0,0,0,.7356-1.9251V223.2305c0-6.247-2.2067-10.5935-5.7121-12.4342-3.0338-1.5908-7.0389-1.3127-11.4347,1.2283-4.9308,2.8367-9.3758,7.9681-12.5011,13.87a43.4074,43.4074,0,0,0-1.9427,4.1917,35.3813,35.3813,0,0,0-2.7171,12.9516V267.625q.1322,0,.264-.0106a2.9537,2.9537,0,0,0,1.26-.3554Z" transform="translate(-3.8105 -21.6058)"/>
      <path class="cls-15" d="M68.3046,264.827c-.2525.1459-.4572.0277-.4572-.264V243.0381a33.5135,33.5135,0,0,1,2.4988-12.0612c.0281-.0774.06-.1584.0915-.2358a41.1492,41.1492,0,0,1,2.0835-4.431c3.0337-5.61,7.1832-10.2169,11.6072-12.7615a12.953,12.953,0,0,1,6.3984-1.9814,7.0874,7.0874,0,0,1,3.3681.8058c2.9915,1.5944,4.7406,5.4588,4.7406,10.8575v23.5558a1.01,1.01,0,0,1-.4571.7919l.693,1.633c.0528-.0317.1055-.0634.1549-.0985a2.9438,2.9438,0,0,0,.63-.6089l.0035-.0071a3.2835,3.2835,0,0,0,.7356-1.9251V223.2305c0-6.247-2.2067-10.5935-5.7121-12.4342-3.0338-1.5908-7.0389-1.3127-11.4347,1.2283-4.9308,2.8367-9.3758,7.9681-12.5011,13.87a43.4074,43.4074,0,0,0-1.9427,4.1917,35.3813,35.3813,0,0,0-2.7171,12.9516V267.625q.1322,0,.264-.0106a2.9537,2.9537,0,0,0,1.26-.3554Z" transform="translate(-3.8105 -21.6058)"/>
    </g>
  </g>
  <g id="Envelopes">
    <g id="Envelope">
      <g id="Letter-4" data-name="Letter">
        <path class="cls-3" d="M172.7279,201.7463a6.3668,6.3668,0,0,1,2.8807-4.9895l142.12-82.0465a6.3673,6.3673,0,0,1,5.7614,0l3.247,1.8746a6.3664,6.3664,0,0,1,2.8807,4.9894V234.5374a6.3911,6.3911,0,0,1-2.88,4.99l-142.12,82.0464a6.3906,6.3906,0,0,1-5.7614,0l-3.2464-1.8743a6.3911,6.3911,0,0,1-2.8808-4.99Z" transform="translate(-3.8105 -21.6058)"/>
        <g class="cls-17">
          <path class="cls-5" d="M172.7279,201.7463a6.3668,6.3668,0,0,1,2.8807-4.9895l142.12-82.0465a6.3673,6.3673,0,0,1,5.7614,0l3.247,1.8746a6.3664,6.3664,0,0,1,2.8807,4.9894V234.5374a6.3911,6.3911,0,0,1-2.88,4.99l-142.12,82.0464a6.3906,6.3906,0,0,1-5.7614,0l-3.2464-1.8743a6.3911,6.3911,0,0,1-2.8808-4.99Z" transform="translate(-3.8105 -21.6058)"/>
        </g>
        <path class="cls-3" d="M173.5684,198.9088l8.1768,4.7153,147.0262-84.8887a5.9586,5.9586,0,0,0-2.0306-2.1533l-3.2571-1.867a6.2967,6.2967,0,0,0-5.7511,0l-142.12,82.04A5.8774,5.8774,0,0,0,173.5684,198.9088Z" transform="translate(-3.8105 -21.6058)"/>
        <path class="cls-18" d="M173.5684,198.9088l8.1768,4.7153,147.0262-84.8887a5.9586,5.9586,0,0,0-2.0306-2.1533l-3.2571-1.867a6.2967,6.2967,0,0,0-5.7511,0l-142.12,82.04A5.8774,5.8774,0,0,0,173.5684,198.9088Z" transform="translate(-3.8105 -21.6058)"/>
        <path class="cls-19" d="M172.7235,201.7434V314.7053a6.3511,6.3511,0,0,0,2.8891,4.9877l3.2435,1.8807a4.645,4.645,0,0,0,.79.3543,6.2921,6.2921,0,0,0,1.1857.2726,7.0844,7.0844,0,0,0,2.2759-.0818c.1906-.0408.387-.0847.5639-.1393.1228-.0408.25-.08.3509-.1225a1.7363,1.7363,0,0,1-1.3919-.0517,1.9937,1.9937,0,0,1-.8857-1.8943V206.9493a2.5246,2.5246,0,0,1,1.4991-2.4531l-1.4991-.8721-8.1768-4.7153A5.9181,5.9181,0,0,0,172.7235,201.7434Z" transform="translate(-3.8105 -21.6058)"/>
        <path class="cls-20" d="M172.7235,201.7434V314.7053a6.3511,6.3511,0,0,0,2.8891,4.9877l3.2435,1.8807a4.645,4.645,0,0,0,.79.3543,6.2921,6.2921,0,0,0,1.1857.2726,7.0844,7.0844,0,0,0,2.2759-.0818c.1906-.0408.387-.0847.5639-.1393.1228-.0408.25-.08.3509-.1225a1.7363,1.7363,0,0,1-1.3919-.0517,1.9937,1.9937,0,0,1-.8857-1.8943V206.9493a2.5246,2.5246,0,0,1,1.4991-2.4531l-1.4991-.8721-8.1768-4.7153A5.9181,5.9181,0,0,0,172.7235,201.7434Z" transform="translate(-3.8105 -21.6058)"/>
        <path class="cls-21" d="M181.7452,203.6241l68.2485,25.4977a11.0881,11.0881,0,0,0,13.1646-4.3336l10.96-16.7907,54.6534-89.2621-52.4682,89.8928,53.3131,25.9581a6.0054,6.0054,0,0,1-.9,2.8755L276.14,208.89l-12.7359,20.3817a11.0911,11.0911,0,0,1-13.8868,4.2655l-9.0681-4.0026-57.8178,92.2706a1.9937,1.9937,0,0,1-.8857-1.8943V318.03l58.4207-88.62Z" transform="translate(-3.8105 -21.6058)"/>
        <path class="cls-20" d="M181.7452,203.6241l68.2485,25.4977a11.0881,11.0881,0,0,0,13.1646-4.3336l10.96-16.7907,54.6534-89.2621-52.4682,89.8928,53.3131,25.9581a6.0054,6.0054,0,0,1-.9,2.8755L276.14,208.89l-12.7359,20.3817a11.0911,11.0911,0,0,1-13.8868,4.2655l-9.0681-4.0026-57.8178,92.2706a1.9937,1.9937,0,0,1-.8857-1.8943V318.03l58.4207-88.62Z" transform="translate(-3.8105 -21.6058)"/>
      </g>
    </g>
    <g id="Envelope-2" data-name="Envelope">
      <g id="Letter-5" data-name="Letter">
        <path class="cls-3" d="M208.76,222.5705a6.3667,6.3667,0,0,1,2.8806-4.99l142.12-82.0465a6.3673,6.3673,0,0,1,5.7614,0l3.2471,1.8746a6.3665,6.3665,0,0,1,2.8806,4.9894V255.3616a6.3911,6.3911,0,0,1-2.88,4.9895l-142.12,82.0464a6.39,6.39,0,0,1-5.7613,0l-3.2465-1.8743a6.3911,6.3911,0,0,1-2.8808-4.99Z" transform="translate(-3.8105 -21.6058)"/>
        <g class="cls-22">
          <path class="cls-5" d="M208.76,222.5705a6.3667,6.3667,0,0,1,2.8806-4.99l142.12-82.0465a6.3673,6.3673,0,0,1,5.7614,0l3.2471,1.8746a6.3665,6.3665,0,0,1,2.8806,4.9894V255.3616a6.3911,6.3911,0,0,1-2.88,4.9895l-142.12,82.0464a6.39,6.39,0,0,1-5.7613,0l-3.2465-1.8743a6.3911,6.3911,0,0,1-2.8808-4.99Z" transform="translate(-3.8105 -21.6058)"/>
        </g>
        <path class="cls-3" d="M209.6007,219.733l8.1768,4.7153L364.8037,139.56a5.9592,5.9592,0,0,0-2.0305-2.1533l-3.2571-1.867a6.2969,6.2969,0,0,0-5.7512,0l-142.12,82.04A5.8782,5.8782,0,0,0,209.6007,219.733Z" transform="translate(-3.8105 -21.6058)"/>
        <path class="cls-23" d="M209.6007,219.733l8.1768,4.7153L364.8037,139.56a5.9592,5.9592,0,0,0-2.0305-2.1533l-3.2571-1.867a6.2969,6.2969,0,0,0-5.7512,0l-142.12,82.04A5.8782,5.8782,0,0,0,209.6007,219.733Z" transform="translate(-3.8105 -21.6058)"/>
        <path class="cls-15" d="M208.7558,222.5676V335.53a6.3511,6.3511,0,0,0,2.8891,4.9877l3.2435,1.8807a4.645,4.645,0,0,0,.79.3543,6.2939,6.2939,0,0,0,1.1857.2726,7.0844,7.0844,0,0,0,2.2759-.0818c.1906-.0408.3817-.0954.5586-.15a2.5454,2.5454,0,0,0,.3408-.1362,1.7067,1.7067,0,0,1-1.3765-.0274,1.9937,1.9937,0,0,1-.8857-1.8943V227.7735a2.5246,2.5246,0,0,1,1.4991-2.4531l-1.4991-.8721-8.1768-4.7153A5.9181,5.9181,0,0,0,208.7558,222.5676Z" transform="translate(-3.8105 -21.6058)"/>
        <path class="cls-24" d="M217.7775,224.4483l68.2486,25.4977a11.0879,11.0879,0,0,0,13.1645-4.3336l10.96-16.7907L364.8037,139.56l-52.4682,89.8928,53.3131,25.9581a6.0063,6.0063,0,0,1-.8994,2.8755l-52.5774-28.5717L299.4359,250.096a11.091,11.091,0,0,1-13.8867,4.2655l-9.0682-4.0026L218.6632,342.63a1.9937,1.9937,0,0,1-.8857-1.8943v-1.8806l58.4207-88.62Z" transform="translate(-3.8105 -21.6058)"/>
        <path class="cls-20" d="M217.7775,224.4483l68.2486,25.4977a11.0879,11.0879,0,0,0,13.1645-4.3336l10.96-16.7907L364.8037,139.56l-52.4682,89.8928,53.3131,25.9581a6.0063,6.0063,0,0,1-.8994,2.8755l-52.5774-28.5717L299.4359,250.096a11.091,11.091,0,0,1-13.8867,4.2655l-9.0682-4.0026L218.6632,342.63a1.9937,1.9937,0,0,1-.8857-1.8943v-1.8806l58.4207-88.62Z" transform="translate(-3.8105 -21.6058)"/>
      </g>
    </g>
  </g>
  <g id="Open_Envelope" data-name="Open Envelope">
    <g id="Open_Envelope-2" data-name="Open Envelope">
      <g>
        <path class="cls-3" d="M245.0906,244.3008l147.8935-85.3865,5.9182,3.4166a6.1723,6.1723,0,0,1,2.7821,4.8187V276.2479a6.1725,6.1725,0,0,1-2.782,4.8187L256.5729,363.24a6.1718,6.1718,0,0,1-5.5642,0l-3.1354-1.81a6.1721,6.1721,0,0,1-2.7821-4.8188Z" transform="translate(-3.8105 -21.6058)"/>
        <path class="cls-14" d="M245.0906,244.3008l147.8935-85.3865,5.9182,3.4166a6.1723,6.1723,0,0,1,2.7821,4.8187V276.2479a6.1725,6.1725,0,0,1-2.782,4.8187L256.5729,363.24a6.1718,6.1718,0,0,1-5.5642,0l-3.1354-1.81a6.1721,6.1721,0,0,1-2.7821-4.8188Z" transform="translate(-3.8105 -21.6058)"/>
        <path class="cls-3" d="M392.1683,149.3233l.6048-.3291-2.2981-1.3352v.0019a3.9254,3.9254,0,0,0-.61-.2916L324.777,123.2509a4.4808,4.4808,0,0,0-4.9985,1.5889L246.97,231.1673a12.59,12.59,0,0,0-1.879,6.07c0,3.0387,0,7.0615,0,7.0615l2.2567,1.3109,145.637-86.6958v-7.0627A4.7674,4.7674,0,0,0,392.1683,149.3233Z" transform="translate(-3.8105 -21.6058)"/>
        <path class="cls-15" d="M322.7931,125.3553a3.685,3.685,0,0,0-.754.7984L249.224,232.4767a11.3143,11.3143,0,0,0-1.3527,3.0382l-2.262-1.3084a14.5177,14.5177,0,0,1,.5877-1.6078c.0111-.0222.0111-.0333.0222-.0444.1-.2217.2-.4324.31-.6431.0222-.0332.0333-.0665.0555-.1a5.7982,5.7982,0,0,1,.388-.6432l72.804-106.323a3.5414,3.5414,0,0,1,.3659-.4436c.122-.1219.2551-.2439.3881-.3548Z" transform="translate(-3.8105 -21.6058)"/>
        <path class="cls-25" d="M392.7474,148.9838a3.5489,3.5489,0,0,0-.6209-.2993L327.0287,124.557a4.4628,4.4628,0,0,0-4.2356.7983l-2.262-1.3084a4.5132,4.5132,0,0,1,4.2467-.7983l65.0867,24.1164a3.4669,3.4669,0,0,1,.61.2993Z" transform="translate(-3.8105 -21.6058)"/>
        <g>
          <path class="cls-3" d="M246.5811,231.8075a7.4215,7.4215,0,0,1,.3884-.64C246.8362,231.3621,246.7066,231.5776,246.5811,231.8075Z" transform="translate(-3.8105 -21.6058)"/>
          <path class="cls-3" d="M320.1445,124.4014a4.69,4.69,0,0,1,.39-.3542A3.9773,3.9773,0,0,0,320.1445,124.4014Z" transform="translate(-3.8105 -21.6058)"/>
          <path class="cls-3" d="M245.6055,234.2092a14,14,0,0,1,.5916-1.6132A13.8325,13.8325,0,0,0,245.6055,234.2092Z" transform="translate(-3.8105 -21.6058)"/>
          <path class="cls-3" d="M246.2161,232.55c.0992-.2228.2048-.433.3122-.6365C246.4206,232.1169,246.3155,232.3275,246.2161,232.55Z" transform="translate(-3.8105 -21.6058)"/>
          <path class="cls-14" d="M246.1971,232.596c.0065-.0149.0123-.031.019-.0459C246.2094,232.5651,246.2036,232.5811,246.1971,232.596Z" transform="translate(-3.8105 -21.6058)"/>
          <polygon class="cls-14" points="241.795 212.604 241.795 212.604 241.795 212.603 241.795 212.604"/>
          <polygon class="cls-14" points="316.724 102.441 316.724 102.441 316.724 102.441 316.724 102.441"/>
          <path class="cls-14" d="M246.5283,231.9136c.0181-.0342.0346-.0727.0528-.1061C246.5628,231.8412,246.5464,231.8794,246.5283,231.9136Z" transform="translate(-3.8105 -21.6058)"/>
          <path class="cls-14" d="M319.7785,124.84a3.6531,3.6531,0,0,1,.366-.4384A3.2411,3.2411,0,0,0,319.7785,124.84Z" transform="translate(-3.8105 -21.6058)"/>
        </g>
        <path class="cls-3" d="M322.0351,126.1507l-72.809,106.3275a12.5912,12.5912,0,0,0-1.879,6.07c0,3.0387,0,7.0615,0,7.0615L395.2424,160.218l-.0015-7.0556a5.1294,5.1294,0,0,0-3.1192-4.4822l-65.088-24.1183A4.48,4.48,0,0,0,322.0351,126.1507Z" transform="translate(-3.8105 -21.6058)"/>
        <path class="cls-20" d="M395.2408,153.1624a4.7491,4.7491,0,0,0-.79-2.4858L247.8713,235.5149l-.0143.0233a11.0951,11.0951,0,0,0-.51,3.01V245.61L395.2424,160.218Z" transform="translate(-3.8105 -21.6058)"/>
      </g>
      <g>
        <path class="cls-26" d="M388.9242,123.1926a1.6934,1.6934,0,0,0-.6938-1.5487c-.4351-.2568-4.0794-2.3553-4.5141-2.606a1.6871,1.6871,0,0,0-1.697.1684L260.7112,189.2406a5.3053,5.3053,0,0,0-2.4005,4.158l.0006,145.2786a1.6875,1.6875,0,0,0,.7022,1.5536c.4346.2514,4.0709,2.35,4.5052,2.6009a1.6869,1.6869,0,0,0,1.6976-.1682l121.3081-70.0344a5.3058,5.3058,0,0,0,2.4-4.1579Z" transform="translate(-3.8105 -21.6058)"/>
        <path class="cls-10" d="M265.2163,342.6635l121.3081-70.0343a5.3059,5.3059,0,0,0,2.4006-4.158l-.0008-145.2785c0-1.531-1.0748-2.1515-2.4006-1.386L265.2155,191.841a5.3065,5.3065,0,0,0-2.4007,4.158l.0008,145.2785C262.8156,342.8085,263.8905,343.4291,265.2163,342.6635Z" transform="translate(-3.8105 -21.6058)"/>
        <path class="cls-3" d="M342.9582,205.17a21.249,21.249,0,0,1-.9072,4.8354,20.76,20.76,0,0,1-1.7478,4.0571,15.4678,15.4678,0,0,1-2.289,3.0955,9.8428,9.8428,0,0,1-2.5342,1.9486,5.35,5.35,0,0,1-3.4934.8416,3.1578,3.1578,0,0,1-1.81-1.13c-.2613.5684-.5368,1.1464-.8284,1.7278a10.7716,10.7716,0,0,1-1.0957,1.7354,10.9881,10.9881,0,0,1-1.629,1.6821,12.433,12.433,0,0,1-2.385,1.5461,4.64,4.64,0,0,1-3.0159.5958,3.5548,3.5548,0,0,1-2.2368-1.5622,9.0776,9.0776,0,0,1-1.3326-3.5258,23.556,23.556,0,0,1-.302-5.2922,33.4255,33.4255,0,0,1,.7231-5.8169,27.0189,27.0189,0,0,1,1.5845-5.0167,16.5884,16.5884,0,0,1,2.3681-3.9513A9.7286,9.7286,0,0,1,325.1,198.389q1.8678-.9555,2.7464-.59a2.9426,2.9426,0,0,1,1.4216,1.3288l.0239-.6a3.3337,3.3337,0,0,1,.414-1.45,2.2247,2.2247,0,0,1,.888-.9771l2.37-1.212a.6611.6611,0,0,1,.8455.09,1.4016,1.4016,0,0,1,.3126,1.078l-.5662,14.1826c-.0427,1.0654.1606,1.7684.6086,2.1038a1.4018,1.4018,0,0,0,1.5835.0386,4.0737,4.0737,0,0,0,1.6093-1.7041,8.4409,8.4409,0,0,0,.8731-3.4151q.1625-1.8447.24-3.81t.0114-3.6259a22.2258,22.2258,0,0,0-.8811-5.8752,6.47,6.47,0,0,0-2.2086-3.4037,5.2014,5.2014,0,0,0-3.7191-.8055,16.2125,16.2125,0,0,0-5.411,1.8541,18.56,18.56,0,0,0-4.7845,3.525,24.29,24.29,0,0,0-3.7241,4.9043,30.0673,30.0673,0,0,0-2.6031,5.93,35.31,35.31,0,0,0-1.4218,6.5341q-.1269.9135-.2056,2.3557-.08,1.4439-.1425,3.0074-.0625,1.5665-.098,3.02t.0184,2.3379a17.7729,17.7729,0,0,0,.95,5.2538,7.7976,7.7976,0,0,0,2.2313,3.392,5.3442,5.3442,0,0,0,3.4791,1.2214,10.2655,10.2655,0,0,0,4.6977-1.3269,27.6538,27.6538,0,0,0,3.2479-1.9212,21.6157,21.6157,0,0,0,2.4226-1.9572,19.68,19.68,0,0,0,1.7957-1.93q.75-.9393,1.3688-1.8417c.3484-.524.6232-.9151.8278-1.1732a2.4115,2.4115,0,0,1,.8075-.6415l3.3731-1.7259a.74.74,0,0,1,.8689.0459,1.3351,1.3351,0,0,1,.2866,1.19,2.7189,2.7189,0,0,1-.358,1.1617q-1.0133,1.8885-2.28,3.9715a30.12,30.12,0,0,1-2.9983,4.0775,33.197,33.197,0,0,1-4.0858,3.917,31.2924,31.2924,0,0,1-5.5455,3.5548,13.9638,13.9638,0,0,1-6.9062,1.8693,7.51,7.51,0,0,1-4.8991-1.9946,11.6086,11.6086,0,0,1-2.991-5.0595,26.0123,26.0123,0,0,1-1.1392-7.2774q-.0079-.9074.0314-2.4623.0384-1.5506.1079-3.2507t.1524-3.2406q.0824-1.5447.1627-2.433a44.9714,44.9714,0,0,1,1.7084-8.6688,42.238,42.238,0,0,1,3.53-8.4265,36.58,36.58,0,0,1,5.3164-7.3183,25.5521,25.5521,0,0,1,7.0674-5.3432,17.914,17.914,0,0,1,7.8191-2.369,7.3147,7.3147,0,0,1,5.13,1.81,10.3545,10.3545,0,0,1,2.8324,5.1407,33.1731,33.1731,0,0,1,.9687,7.5919q.0213,1.6857-.07,3.9825T342.9582,205.17Zm-20.82,8.1068a8.9964,8.9964,0,0,0,.6643,4.6178q.793,1.3558,2.3891.5389a5.7107,5.7107,0,0,0,2.6012-3.0584,16.2108,16.2108,0,0,0,1.0473-5.5267,9.5024,9.5024,0,0,0-.6409-4.6621q-.7707-1.3986-2.4573-.5361a5.7032,5.7032,0,0,0-2.5338,3.0892A16.2313,16.2313,0,0,0,322.1379,213.2764Z" transform="translate(-3.8105 -21.6058)"/>
        <path class="cls-2" d="M262.8111,341.2763a1.8117,1.8117,0,0,0,.5654,1.4636c-.8094-.4546-3.9583-2.2841-4.3574-2.5059a1.6726,1.6726,0,0,1-.71-1.5523V193.3953a4.81,4.81,0,0,1,.71-2.3617l4.5016,2.5946a4.8506,4.8506,0,0,0-.71,2.3728Z" transform="translate(-3.8105 -21.6058)"/>
      </g>
      <g>
        <path class="cls-3" d="M397.932,277.7014a1.3482,1.3482,0,0,1-.1544.2215l-61.63-19.5421a10.6158,10.6158,0,0,0-13.3184,4.1L256.9433,360.406l-2.4365,1.4073-.0222.0111a1.9868,1.9868,0,0,1-1.8852.21l67.76-100.9393a10.6461,10.6461,0,0,1,13.3293-4.1109Z" transform="translate(-3.8105 -21.6058)"/>
        <path class="cls-27" d="M316.7612,272.0927l.1552-.1329L256.9413,360.41l-2.4394,1.4082-.0222.011a2.0149,2.0149,0,0,1-1.8849.2107l61.7935-91.3668Z" transform="translate(-3.8105 -21.6058)"/>
        <path class="cls-27" d="M397.9366,277.7048a1.3441,1.3441,0,0,1-.1552.2217l-61.6384-19.55a10.6133,10.6133,0,0,0-13.3167,4.1026L320.387,261.06a10.6394,10.6394,0,0,1,13.3056-4.08Z" transform="translate(-3.8105 -21.6058)"/>
        <path class="cls-3" d="M401.6328,166.4524h-.0111c-.133-.7983-.5544-1.02-1.0977-.6431a3.2032,3.2032,0,0,0-.71.7319l-.31.4324-60.8178,92.4617-9.0811,12.6513a5.18,5.18,0,0,1-5.0007,1.8739l-7.8392-1.8628-59.8421-22.03a3.0491,3.0491,0,0,0-1.22-.0443,2.1724,2.1724,0,0,0-.4546.1441l2.2556-1.3039,57.373,21.0266,7.5537,2.6959a5.1514,5.1514,0,0,0,5.0007-1.8739l9.0811-12.64,61.1172-92.894a2.4452,2.4452,0,0,1,.6875-.632l-5.289-3.0492,2.2176-1.2752,3.6591,2.1068A6.3443,6.3443,0,0,1,401.6328,166.4524Z" transform="translate(-3.8105 -21.6058)"/>
        <path class="cls-27" d="M338.6822,259.43l-9.0811,12.6514a5.18,5.18,0,0,1-5.0007,1.8739l-7.8392-1.8629.1552-.1329.377-.5988,5.1338,1.22a5.1518,5.1518,0,0,0,5.0007-1.874L336.42,258.2Z" transform="translate(-3.8105 -21.6058)"/>
        <path class="cls-15" d="M398.9013,162.3228l-3.6591-2.1067-2.2176,1.2751,5.289,3.0492.013.01-.0091-.0052a2.4324,2.4324,0,0,0-.6875.632l-61.121,92.8892-.0888.1219V258.2l2.262,1.2308L399.5,166.9687l.31-.4325a3.2045,3.2045,0,0,1,.71-.7318c.5433-.377.9647-.1552,1.0977.643h.0111A6.3446,6.3446,0,0,0,398.9013,162.3228Z" transform="translate(-3.8105 -21.6058)"/>
        <path class="cls-3" d="M258.1385,251.837l-13.0479-7.5362.0006,112.3105a6.1715,6.1715,0,0,0,2.7821,4.8188l3.1352,1.81a6.1719,6.1719,0,0,0,5.5644,0l1.5656-.9038Z" transform="translate(-3.8105 -21.6058)"/>
        <path class="cls-28" d="M258.1385,251.837l-13.0479-7.5362.0006,112.3105a6.1715,6.1715,0,0,0,2.7821,4.8188l3.1352,1.81a6.1719,6.1719,0,0,0,5.5644,0l1.5656-.9038Z" transform="translate(-3.8105 -21.6058)"/>
        <path class="cls-3" d="M401.6882,167.151V276.2462a5.6713,5.6713,0,0,1-.8648,2.8162,6.0767,6.0767,0,0,1-1.63,1.83l-.1108.0554a1.7,1.7,0,0,1-.1774.1219L256.5793,363.2316l-.0222.0111a1.9841,1.9841,0,0,1-1.8961.2218,1.6894,1.6894,0,0,1-.8316-1.3306,3.5448,3.5448,0,0,1-.0332-.499V252.5288a2.4179,2.4179,0,0,1,3.1268-2.4616l59.8421,22.03,7.8392,1.8628a5.18,5.18,0,0,0,5.0007-1.8739l9.0811-12.6513,60.8178-92.4617.31-.4324C400.8456,165.1108,401.6882,165.3769,401.6882,167.151Z" transform="translate(-3.8105 -21.6058)"/>
        <path class="cls-3" d="M398.9036,281.07a1.7658,1.7658,0,0,0,.1825-.1178l.1067-.0642a5.9624,5.9624,0,0,0,1.6276-1.8205,5.6989,5.6989,0,0,0,.8633-2.77L338.69,259.4369l42.1845,32.0419Z" transform="translate(-3.8105 -21.6058)"/>
        <path class="cls-14" d="M398.9036,281.07a1.7658,1.7658,0,0,0,.1825-.1178l.1067-.0642a5.9624,5.9624,0,0,0,1.6276-1.8205,5.6989,5.6989,0,0,0,.8633-2.77L338.69,259.4369l42.1845,32.0419Z" transform="translate(-3.8105 -21.6058)"/>
        <path class="cls-3" d="M253.7935,361.63a1.92,1.92,0,0,0,.8674,1.8311,1.9809,1.9809,0,0,0,1.8955-.2142l.0214-.0106L305.58,334.9471l11.19-62.8529-62.9738,87.723Z" transform="translate(-3.8105 -21.6058)"/>
        <path class="cls-28" d="M322.8042,262.4684,254.6571,363.46a1.9208,1.9208,0,0,1-.8648-1.8295l.0039-1.8129,66.5686-98.7237c0-.0111.0111-.0223.0222-.0333Z" transform="translate(-3.8105 -21.6058)"/>
        <path class="cls-3" d="M400.82,279.0678a5.9624,5.9624,0,0,1-1.6276,1.8205l-.1067.0642L256.5778,363.2364l-.0214.0106a1.9809,1.9809,0,0,1-1.8955.2142l68.154-101.0094a10.7082,10.7082,0,0,1,13.4-4.1118Z" transform="translate(-3.8105 -21.6058)"/>
        <path class="cls-28" d="M245.6093,234.2065l2.262,1.3084a11.0552,11.0552,0,0,0-.5212,3.0381v7.052l-2.2619-1.3084v-7.0631A11.0548,11.0548,0,0,1,245.6093,234.2065Z" transform="translate(-3.8105 -21.6058)"/>
        <polygon class="cls-3" points="253.694 227.257 251.438 228.561 249.154 227.242 243.532 224.004 245.717 222.707 253.694 227.257"/>
        <path class="cls-15" d="M257.6043,248.9055l-8.077-4.593-2.1844,1.2973,5.6217,3.2377,2.2841,1.32.0237-.0137a2.213,2.213,0,0,1,.427-.1353,3.0491,3.0491,0,0,1,1.22.0443l4.5475,1.6777,52.2378,19.2309.8171-1.2116Z" transform="translate(-3.8105 -21.6058)"/>
      </g>
    </g>
  </g>
  <g id="Clouds">
    <g id="Clouds-2" data-name="Clouds">
      <g id="Cloud">
        <path class="cls-26" d="M135.1249,60.0389l-8.4472,4.8769a10.2073,10.2073,0,0,0,.0711-1.1181V61.35c0-4.3551-3.0573-6.12-6.8288-3.9426a13.2114,13.2114,0,0,0-4.07,3.9137c-.6176-5.4759-4.9142-7.5158-10.1323-4.5032-5.6424,3.2577-10.2167,11.18-10.2167,17.6954v3.6612a9.6433,9.6433,0,0,0,.8651,4.2415l-7.0165,4.0508a8.3726,8.3726,0,0,0-3.788,6.5609c0,2.4157,1.6958,3.3949,3.788,2.187l45.7755-26.4283a8.3731,8.3731,0,0,0,3.788-6.5612C138.9129,59.81,137.217,58.8309,135.1249,60.0389Z" transform="translate(-3.8105 -21.6058)"/>
      </g>
      <g id="Cloud-2" data-name="Cloud">
        <path class="cls-26" d="M94.2278,32.19l-10.399,6.0038a12.5541,12.5541,0,0,0,.0875-1.3765V33.8045c0-5.3613-3.7637-7.5343-8.4067-4.8536a16.268,16.268,0,0,0-5.0107,4.8182c-.76-6.7413-6.05-9.2525-12.4735-5.5438-6.9462,4.01-12.5772,13.7636-12.5772,21.7842v4.5071a11.8708,11.8708,0,0,0,1.0649,5.2214l-8.6377,4.9869a10.3075,10.3075,0,0,0-4.6633,8.0768c0,2.974,2.0878,4.1794,4.6633,2.6923L94.2278,42.9592A10.3079,10.3079,0,0,0,98.891,34.882C98.891,31.9085,96.8032,30.7029,94.2278,32.19Z" transform="translate(-3.8105 -21.6058)"/>
      </g>
    </g>
  </g>
  <g id="Paper_Plane" data-name="Paper Plane">
    <g id="Paper_Plane-2" data-name="Paper Plane">
      <polygon class="cls-3" points="419.527 107.898 458.753 82.777 476.032 88.325 419.527 107.898"/>
      <polygon class="cls-3" points="419.527 107.898 453.43 79.625 445.896 70.926 419.527 107.898"/>
      <polygon class="cls-3" points="453.43 79.625 453.43 86.186 419.527 107.898 453.43 79.625"/>
      <polygon class="cls-29" points="453.43 79.625 453.43 86.186 419.527 107.898 453.43 79.625"/>
      <path class="cls-2" d="M462.89,100.6827a.8314.8314,0,0,1-.5642-1.4423,28.5986,28.5986,0,0,0,3.2019-3.4943.8318.8318,0,0,1,1.3167,1.0167,30.3144,30.3144,0,0,1-3.39,3.699A.8262.8262,0,0,1,462.89,100.6827Zm6.24-8.28a.8323.8323,0,0,1-.7428-1.2041,27.8864,27.8864,0,0,0,2.1992-6.0578.8313.8313,0,1,1,1.6178.3833,29.4845,29.4845,0,0,1-2.3292,6.4194A.832.832,0,0,1,469.1306,92.4024ZM472.16,80.68l-.0378-.001a.8314.8314,0,0,1-.7938-.8679c.0195-.4456.03-.8927.03-1.3416a30.7475,30.7475,0,0,0-.4331-5.1087.8314.8314,0,1,1,1.6393-.2783,32.3339,32.3339,0,0,1,.457,5.387q0,.7105-.0325,1.4163A.8307.8307,0,0,1,472.16,80.68Zm-1.79-11.99a.8323.8323,0,0,1-.7862-.5592,35.3494,35.3494,0,0,0-2.6865-5.9073.8322.8322,0,0,1,1.4467-.8229,37.1147,37.1147,0,0,1,2.8121,6.1855.8314.8314,0,0,1-.5144,1.0579A.8211.8211,0,0,1,470.3705,68.6908ZM464.547,58.0366a.83.83,0,0,1-.6594-.3233,42.9481,42.9481,0,0,0-4.3724-4.8353.8318.8318,0,0,1,1.1478-1.2041,44.6827,44.6827,0,0,1,4.5413,5.0227.8319.8319,0,0,1-.6573,1.34Zm-8.6863-8.51a.83.83,0,0,1-.5-.1679,53.5114,53.5114,0,0,0-5.46-3.6085.8315.8315,0,1,1,.8316-1.44,55.2672,55.2672,0,0,1,5.6307,3.7211.8317.8317,0,0,1-.5025,1.4954Zm-87.1438-3.2154A.8316.8316,0,0,1,368.3,44.759c1.9263-1.112,3.9295-2.16,5.9544-3.1152a.8316.8316,0,1,1,.71,1.504c-1.9848.9362-3.9468,1.9626-5.8331,3.0514A.8261.8261,0,0,1,368.7169,46.3108Zm76.7-3.039a.8227.8227,0,0,1-.3606-.0829c-1.97-.9523-4.0021-1.8315-6.04-2.6127a.8316.8316,0,0,1,.5956-1.5528c2.0812.798,4.157,1.6957,6.1677,2.668a.8317.8317,0,0,1-.3627,1.58ZM379.7,41.0352a.8315.8315,0,0,1-.3031-1.6058c2.0746-.8115,4.2111-1.55,6.3506-2.1937a.8316.8316,0,0,1,.4787,1.5928c-2.0953.6308-4.1894,1.354-6.2229,2.1494A.8335.8335,0,0,1,379.7,41.0352ZM434.0734,38.83a.821.821,0,0,1-.2425-.0362c-2.0845-.6368-4.2273-1.1944-6.3692-1.6589a.8316.8316,0,1,1,.353-1.6254c2.1863.4738,4.3735,1.0439,6.5013,1.6936a.8314.8314,0,0,1-.2426,1.6269Zm-42.7312-1.3887a.8317.8317,0,0,1-.185-1.6421c2.1688-.5,4.3886-.9193,6.5986-1.2468a.8315.8315,0,1,1,.2447,1.6448c-2.1667.3215-4.3442.733-6.4709,1.223A.8254.8254,0,0,1,391.3422,37.4414Zm30.843-1.2761a.8358.8358,0,0,1-.1213-.0087c-2.16-.3161-4.3627-.5479-6.5478-.6891a.8318.8318,0,0,1,.1084-1.66c2.2283.1446,4.4763.3811,6.68.7033a.8316.8316,0,0,1-.1191,1.6545Zm-18.8009-.5912a.8317.8317,0,0,1-.0671-1.66c2.2262-.182,4.485-.2761,6.7123-.28h.001a.8316.8316,0,0,1,.0012,1.6632c-2.1829.0043-4.3962.0969-6.5792.275C403.43,35.573,403.407,35.5741,403.3843,35.5741Z" transform="translate(-3.8105 -21.6058)"/>
    </g>
  </g>
</svg>
