<?xml version="1.0" encoding="utf-8"?>
<!-- Generator: Adobe Illustrator 26.3.1, SVG Export Plug-In . SVG Version: 6.00 Build 0)  -->
<svg version="1.1" id="Layer_1" xmlns="http://www.w3.org/2000/svg" xmlns:xlink="http://www.w3.org/1999/xlink" x="0px" y="0px"
	 viewBox="0 0 475.3 445.9" style="enable-background:new 0 0 475.3 445.9;" xml:space="preserve">
<style type="text/css">
	.st0{fill:#3F5573;}
	.st1{fill:#37474F;}
	.st2{fill:#455A64;}
	.st3{fill:#EBEBEB;}
	.st4{fill:#E0E0E0;}
	.st5{opacity:0.15;}
	.st6{fill:#6EABFF;}
	.st7{opacity:0.2;enable-background:new    ;}
	.st8{opacity:0.4;fill:#FFFFFF;enable-background:new    ;}
	.st9{fill:#FFFFFF;}
	.st10{opacity:0.1;enable-background:new    ;}
	.st11{opacity:0.8;fill:#FFFFFF;enable-background:new    ;}
	.st12{opacity:0.65;fill:#FFFFFF;enable-background:new    ;}
	.st13{opacity:0.3;enable-background:new    ;}
	.st14{fill:#FAFAFA;}
	.st15{fill:#E6E6E6;}
	.st16{opacity:0.2;}
	.st17{opacity:0.35;fill:#FFFFFF;enable-background:new    ;}
	.st18{opacity:0.5;}
	.st19{opacity:0.85;fill:#FFFFFF;enable-background:new    ;}
	.st20{opacity:0.7;fill:#FFFFFF;enable-background:new    ;}
	.st21{opacity:0.15;enable-background:new    ;}
	.st22{fill:#263238;}
	.st23{opacity:0.6;}
	.st24{opacity:0.6;fill:#FFFFFF;enable-background:new    ;}
	.st25{fill:#FFA8A7;}
	.st26{fill:#F28F8F;}
	.st27{opacity:0.4;enable-background:new    ;}
	.st28{enable-background:new    ;}
	.st29{fill:#B16668;}
	.st30{fill:#9A4A4D;}
	.st31{fill:#F0F0F0;}
	.st32{opacity:0.2;fill:#FFFFFF;enable-background:new    ;}
	.st33{opacity:0.3;fill:#37474F;enable-background:new    ;}
</style>
<g>
	<g id="Floor">
		<path id="Floor-2" class="st0" d="M69.6,211.6c-92.8,53.6-92.8,140.4,0,194.1s243.3,53.6,336.1,0s92.8-140.4,0-194.1
			S162.4,158,69.6,211.6z"/>
	</g>
	<g id="Table">
		<g id="Desk">
			<polygon class="st1" points="17.8,291.1 17.8,310 154,388.8 154,369.9 			"/>
			<polygon class="st2" points="154,369.9 409.2,222.6 409.2,241.4 154,388.8 			"/>
			<polygon class="st3" points="154,362.8 13,281.2 272.1,131.6 413.2,213.1 			"/>
			<polygon class="st4" points="13,281.2 13,291.2 154,372.8 154,362.8 			"/>
			<g class="st5">
				<polygon points="13,281.2 13,291.2 154,372.8 154,362.8 				"/>
			</g>
			<polygon class="st4" points="154,372.8 413.2,223.1 413.2,213.1 154,362.8 			"/>
		</g>
	</g>
	<g id="Button">
		<g id="Button-2">
			<path id="Shadow" class="st4" d="M109.3,318.3c-1,0-2-0.3-2.9-0.7l-47.6-27.5c-1.7-0.8-2.4-2.8-1.6-4.5c0.3-0.7,0.9-1.2,1.6-1.6
				l45.5-26.3c1.9-1,4.1-1,5.9,0l47.6,27.5c1.7,0.8,2.4,2.8,1.6,4.5c-0.3,0.7-0.9,1.2-1.6,1.6l-45.5,26.3
				C111.3,318.1,110.3,318.3,109.3,318.3z"/>
			<g id="Box">
				<path class="st6" d="M154.5,288.6l-43.6,25.2c-1.1,0.5-2.4,0.5-3.5,0l-45.6-26.3c-1-0.7-1.7-1.8-1.7-3v-3.8
					c0.1-1.2,0.7-2.4,1.8-3l43.6-25.2c1.1-0.5,2.4-0.5,3.5,0l45.6,26.3c1,0.7,1.7,1.8,1.7,3v3.8C156.2,286.8,155.5,288,154.5,288.6z
					"/>
				<path class="st7" d="M61.9,277.7c-1,0.7-1.7,1.8-1.8,3v3.8c0.1,1.2,0.7,2.4,1.7,3l45.6,26.3c0.6,0.3,1.2,0.4,1.8,0.4v-7.8
					c-0.6,0-1.2-0.1-1.7-0.4l-45.6-26.3C61,279.2,60.9,278.3,61.9,277.7z"/>
				<path class="st8" d="M154.8,278.9c0.7,0.6,0.6,1.3-0.3,1.8L110.9,306c-0.5,0.3-1.1,0.4-1.7,0.4v7.9c0.6,0,1.2-0.1,1.7-0.4
					l43.6-25.2c1-0.7,1.7-1.8,1.8-3v-3.8C156.2,280.7,155.7,279.6,154.8,278.9z"/>
				<path class="st6" d="M154.6,280.8L111,306c-1.1,0.5-2.4,0.5-3.5,0l-29-16.7l-16.6-9.6c-0.6-0.2-0.9-0.8-0.7-1.3
					c0.1-0.3,0.4-0.6,0.7-0.7l43.6-25.2c1.1-0.5,2.4-0.5,3.5,0l45.6,26.3c0.5,0.2,0.8,0.8,0.6,1.4
					C155.1,280.4,154.9,280.7,154.6,280.8z"/>
			</g>
			<g id="_">
				<path class="st9" d="M86.5,290.6c-0.4-0.2-0.6-0.4-0.6-0.6c-0.1-0.2-0.1-0.4,0-0.7l1-11.3c0-0.1,0-0.1,0.1-0.1l0.1-0.1
					c0.2-0.1,0.4-0.1,0.6-0.1c0.2,0,0.5,0.1,0.7,0.2l5.6,3.2c0.5,0.3,0.7,0.5,0.7,0.8c0,0.2,0,0.4,0,0.6l-0.7,4.8l8.2-0.4
					c0.3,0,0.6,0,1,0c0.5,0,0.9,0.2,1.3,0.4l5.6,3.2c0.2,0.1,0.3,0.2,0.4,0.4c0,0.1,0,0.3-0.2,0.3l-0.1,0.1l-0.3,0l-19.6,0.6
					c-0.4,0-0.8,0-1.2,0c-0.4-0.1-0.7-0.2-1-0.4L86.5,290.6z"/>
				<path class="st9" d="M87.2,275c-0.1,0-0.2-0.1-0.4-0.1c-0.2-0.1-0.3-0.2-0.3-0.4c0-0.1,0-0.3,0.2-0.4l3.4-2
					c0.3-0.2,0.7-0.3,1.1-0.2c0.4,0,0.7,0.1,1,0.2l36.5,11c0.1,0,0.2,0.1,0.4,0.1c0.2,0.1,0.3,0.2,0.4,0.4c0,0.1,0,0.3-0.2,0.4
					l-3.5,2c-0.3,0.2-0.7,0.3-1.1,0.2c-0.4,0-0.7-0.1-1.1-0.2L87.2,275z"/>
				<path class="st9" d="M129.3,267.5c0.4,0.2,0.6,0.4,0.6,0.6c0.1,0.2,0.1,0.4,0,0.7l-1,11.3c0,0.1,0,0.1-0.1,0.1l-0.1,0.1
					c-0.2,0.1-0.4,0.1-0.6,0.1c-0.2,0-0.5-0.1-0.7-0.2L122,277c-0.5-0.3-0.7-0.5-0.7-0.8c0-0.2,0-0.4,0-0.6l0.8-4.8l-8.3,0.4
					c-0.3,0-0.6,0-1,0c-0.5,0-0.9-0.2-1.3-0.4l-5.6-3.2c-0.2-0.1-0.3-0.2-0.4-0.4c0-0.1,0-0.3,0.2-0.3l0.1-0.1c0.1,0,0.2,0,0.3,0
					l19.6-0.6c0.4,0,0.8,0,1.2,0c0.4,0.1,0.7,0.2,1,0.4L129.3,267.5z"/>
			</g>
		</g>
	</g>
	<g id="Gears">
		<g id="Gears-2">
			<path class="st6" d="M152.3,29.5l-7.8-4.5c-0.1-0.1-0.2-0.1-0.4-0.1c-0.2,0-0.3,0-0.4,0.1l-5.3,2.4c-0.1-0.4,0-0.9,0.2-1.3
				l6.1-12.3c0.3-0.6,0.1-1.4-0.5-1.8l-6.6-3.8l0,0l-7.7-4.4c-0.6-0.4-1.4-0.2-1.8,0.4l-7.6,11.5c-0.3,0.3-0.6,0.6-1,0.8l-0.6-5.9
				c0-0.3-0.2-0.5-0.4-0.7l-7.8-4.5c-0.1-0.1-0.2-0.1-0.3-0.1c-0.2,0-0.4,0.1-0.5,0.2l-10.3,6c-0.7,0.4-1.1,1.2-1.2,2l-1,11.5
				c-0.1,0.8-0.5,1.6-1.1,2.1c-2,1.9-3.9,3.9-5.7,6.1c-0.5,0.6-1.3,0.8-2,0.6l-6.6-2.3c-0.7-0.2-1.5,0.1-1.9,0.7l-7.6,13.1
				c-0.4,0.6-0.2,1.5,0.3,2l5.3,4.6c0.6,0.5,0.8,1.3,0.5,2c-1,2.6-1.8,5.3-2.4,8c-0.2,0.8-0.7,1.5-1.3,2l-9.4,6.6
				c-0.6,0.5-1,1.2-1.1,2v11.9c0,0.3,0.1,0.6,0.4,0.8l0,0l7.8,4.5l0,0c0.3,0.1,0.5,0.1,0.8,0l5.3-2.4c0.1,0.4,0,0.9-0.2,1.3
				l-6.1,12.3c-0.3,0.6-0.1,1.4,0.5,1.8l9.3,5.4l0,0l5.1,2.9c0.6,0.3,1.4,0.2,1.8-0.4L96.6,99c0.2-0.3,0.6-0.6,1-0.8l0.6,5.9
				c0,0.3,0.2,0.5,0.4,0.7l7.8,4.5l0,0c0.3,0.1,0.6,0.1,0.8-0.1l10.3-6c0.7-0.4,1.1-1.2,1.2-2l1-11.5c0.1-0.8,0.5-1.6,1.1-2.1
				c2-1.9,4-3.9,5.7-6.1c0.5-0.6,1.3-0.8,2-0.6l6.6,2.3c0.7,0.2,1.5-0.1,1.9-0.7l7.6-13.1c0.3-0.6,0.2-1.5-0.3-2l-5.3-4.6
				c-0.6-0.5-0.8-1.3-0.5-2c1-2.6,1.8-5.3,2.4-8c0.2-0.8,0.7-1.5,1.3-2l9.4-6.6c0.6-0.5,1-1.2,1.1-2v-12
				C152.7,29.9,152.6,29.7,152.3,29.5z M104.9,75c-2.5,1.5-5.3,2.4-8.2,2.4c-1.2-2.4-1.8-5.1-1.8-7.8c0-11.1,7.8-24.6,17.4-30.2
				c2.5-1.5,5.3-2.4,8.2-2.4c1.2,2.4,1.8,5.1,1.7,7.8C122.3,55.9,114.5,69.4,104.9,75z"/>
			<path class="st8" d="M152.3,29.5l-7.8-4.5c-0.1-0.1-0.2-0.1-0.4-0.1c-0.2,0-0.3,0-0.4,0.1l-5.3,2.4c-0.1-0.4,0-0.9,0.2-1.3
				l6.1-12.3c0.3-0.6,0.1-1.4-0.5-1.8l-6.6-3.8l0,0l-7.7-4.4c-0.6-0.4-1.4-0.2-1.8,0.4l-7.6,11.5c-0.3,0.3-0.6,0.6-1,0.8l-0.6-5.9
				c0-0.3-0.2-0.5-0.4-0.7l-7.8-4.5c-0.1-0.1-0.2-0.1-0.3-0.1c-0.2,0-0.4,0.1-0.5,0.2l-10.3,6c-0.7,0.4-1.1,1.2-1.2,2l-1,11.5
				c-0.1,0.8-0.5,1.6-1.1,2.1c-2,1.9-3.9,3.9-5.7,6.1c-0.5,0.6-1.3,0.8-2,0.6l-6.6-2.3c-0.7-0.2-1.5,0.1-1.9,0.7l-7.6,13.1
				c-0.4,0.6-0.2,1.5,0.3,2l5.3,4.6c0.6,0.5,0.8,1.3,0.5,2c-1,2.6-1.8,5.3-2.4,8c-0.2,0.8-0.7,1.5-1.3,2l-9.4,6.6
				c-0.6,0.5-1,1.2-1.1,2v11.9c0,0.3,0.1,0.6,0.4,0.8l0,0l7.8,4.5l0,0c0.3,0.1,0.5,0.1,0.8,0l5.3-2.4c0.1,0.4,0,0.9-0.2,1.3
				l-6.1,12.3c-0.3,0.6-0.1,1.4,0.5,1.8l9.3,5.4l0,0l5.1,2.9c0.6,0.3,1.4,0.2,1.8-0.4L96.6,99c0.2-0.3,0.6-0.6,1-0.8l0.6,5.9
				c0,0.3,0.2,0.5,0.4,0.7l7.8,4.5l0,0c0.3,0.1,0.6,0.1,0.8-0.1l10.3-6c0.7-0.4,1.1-1.2,1.2-2l1-11.5c0.1-0.8,0.5-1.6,1.1-2.1
				c2-1.9,4-3.9,5.7-6.1c0.5-0.6,1.3-0.8,2-0.6l6.6,2.3c0.7,0.2,1.5-0.1,1.9-0.7l7.6-13.1c0.3-0.6,0.2-1.5-0.3-2l-5.3-4.6
				c-0.6-0.5-0.8-1.3-0.5-2c1-2.6,1.8-5.3,2.4-8c0.2-0.8,0.7-1.5,1.3-2l9.4-6.6c0.6-0.5,1-1.2,1.1-2v-12
				C152.7,29.9,152.6,29.7,152.3,29.5z M104.9,75c-2.5,1.5-5.3,2.4-8.2,2.4c-1.2-2.4-1.8-5.1-1.8-7.8c0-11.1,7.8-24.6,17.4-30.2
				c2.5-1.5,5.3-2.4,8.2-2.4c1.2,2.4,1.8,5.1,1.7,7.8C122.3,55.9,114.5,69.4,104.9,75z"/>
			<path class="st10" d="M83.9,86.1c-0.2-0.6-0.7-0.9-1.3-0.8c-0.1,0-0.1,0-0.2,0.1l-3.9,1.7c0.1,0.4,0,0.9-0.2,1.3l-6.1,12.3
				c-0.3,0.7-0.1,1.4,0.5,1.8l9.3,5.4l-1.6-0.9c-0.6-0.4-0.9-1.1-0.5-1.8l6.1-12.3c0.3-0.7,0.2-1.5-0.1-2.2
				C85.1,89.2,84.4,87.7,83.9,86.1z M106.3,109.1c-0.2-0.2-0.3-0.4-0.3-0.7l-1-10c0-0.6-0.6-1.1-1.2-1c-0.1,0-0.1,0-0.2,0
				c-1.6,0.4-3.3,0.5-5,0.5c-0.3,0-0.7,0.1-1,0.2l0.6,5.9c0,0.3,0.2,0.5,0.4,0.7l0,0L106.3,109.1z"/>
			<path class="st6" d="M129.8,3.7c-0.6-0.4-1.4-0.2-1.8,0.4l-7.6,11.5c-0.1,0.2-0.3,0.4-0.5,0.5l7.8,4.5c0.2-0.1,0.4-0.3,0.5-0.5
				l7.6-11.5c0.4-0.5,1.1-0.7,1.7-0.5L129.8,3.7z M144.6,25L144.6,25c-0.3-0.1-0.5-0.1-0.8,0l-5.3,2.4c0,0.3,0.1,0.7,0.3,1
				c0.8,1.4,1.5,2.8,2,4.3c0,0.1,0.1,0.1,0.1,0.2c0.1,0.2,0.2,0.3,0.3,0.5c0,0,0.1,0.1,0.1,0.1c0.1,0.1,0.2,0.1,0.3,0.2
				c0.2,0,0.4,0,0.6,0c0.1,0,0.2,0,0.3-0.1l9.2-4.1c0.1,0,0.2-0.1,0.2-0.1c0.1,0,0.2,0,0.3,0c0.1,0,0.2,0,0.3,0.1l0,0L144.6,25z
				 M110.6,5.4c-0.3-0.1-0.6-0.1-0.8,0.1l-10.3,6c-0.5,0.3-0.8,0.7-1,1.2l7.7,4.5c0.2-0.5,0.6-0.9,1-1.2l10.3-6
				c0.2-0.2,0.5-0.2,0.8-0.1L110.6,5.4z M75.5,62.9c-0.2,0.3-0.4,0.6-0.7,0.8l-9.4,6.6c-0.3,0.2-0.5,0.4-0.6,0.7l7.7,4.5
				c0.2-0.3,0.4-0.5,0.6-0.7l9.4-6.6c0.3-0.2,0.5-0.5,0.7-0.8L75.5,62.9z M81.2,31.2c-0.5,0-1,0.3-1.3,0.8l-7.6,13.2
				c-0.2,0.3-0.2,0.6-0.2,1l7.8,4.5c-0.1-0.3,0-0.7,0.2-1l7.6-13.1c0.3-0.4,0.7-0.7,1.2-0.8L81.2,31.2z"/>
			<path class="st11" d="M129.8,3.7c-0.6-0.4-1.4-0.2-1.8,0.4l-7.6,11.5c-0.1,0.2-0.3,0.4-0.5,0.5l7.8,4.5c0.2-0.1,0.4-0.3,0.5-0.5
				l7.6-11.5c0.4-0.5,1.1-0.7,1.7-0.5L129.8,3.7z M144.6,25L144.6,25c-0.3-0.1-0.5-0.1-0.8,0l-5.3,2.4c0,0.3,0.1,0.7,0.3,1
				c0.8,1.4,1.5,2.8,2,4.3c0,0.1,0.1,0.1,0.1,0.2c0.1,0.2,0.2,0.3,0.3,0.5c0,0,0.1,0.1,0.1,0.1c0.1,0.1,0.2,0.1,0.3,0.2
				c0.2,0,0.4,0,0.6,0c0.1,0,0.2,0,0.3-0.1l9.2-4.1c0.1,0,0.2-0.1,0.2-0.1c0.1,0,0.2,0,0.3,0c0.1,0,0.2,0,0.3,0.1l0,0L144.6,25z
				 M110.6,5.4c-0.3-0.1-0.6-0.1-0.8,0.1l-10.3,6c-0.5,0.3-0.8,0.7-1,1.2l7.7,4.5c0.2-0.5,0.6-0.9,1-1.2l10.3-6
				c0.2-0.2,0.5-0.2,0.8-0.1L110.6,5.4z M75.5,62.9c-0.2,0.3-0.4,0.6-0.7,0.8l-9.4,6.6c-0.3,0.2-0.5,0.4-0.6,0.7l7.7,4.5
				c0.2-0.3,0.4-0.5,0.6-0.7l9.4-6.6c0.3-0.2,0.5-0.5,0.7-0.8L75.5,62.9z M81.2,31.2c-0.5,0-1,0.3-1.3,0.8l-7.6,13.2
				c-0.2,0.3-0.2,0.6-0.2,1l7.8,4.5c-0.1-0.3,0-0.7,0.2-1l7.6-13.1c0.3-0.4,0.7-0.7,1.2-0.8L81.2,31.2z"/>
			<path class="st6" d="M152.7,42.2V30.3c0.1-0.4-0.2-0.8-0.7-0.9c-0.2,0-0.4,0-0.5,0.1l-9.2,4.1c-0.5,0.3-1.2,0-1.5-0.5
				c0-0.1-0.1-0.1-0.1-0.2c-0.5-1.6-1.2-3.1-2-4.6c-0.4-0.7-0.4-1.5-0.1-2.2l6.1-12.3c0.3-0.6,0.1-1.4-0.5-1.8l-6.6-3.8
				c-0.6-0.4-1.4-0.2-1.8,0.4l-7.6,11.5c-0.5,0.6-1.2,1-2,1c-1.7,0-3.3,0.1-5,0.5c-0.6,0.2-1.2-0.2-1.3-0.7c0-0.1,0-0.2,0-0.2l-1-10
				c0-0.4-0.3-0.8-0.7-0.8c-0.2,0-0.4,0.1-0.5,0.2l-10.3,6c-0.7,0.4-1.1,1.2-1.2,2l-1,11.5c-0.1,0.8-0.5,1.6-1.1,2.1
				c-2.1,1.9-4,3.9-5.8,6.1c-0.5,0.6-1.3,0.8-2,0.6l-6.7-2.3c-0.7-0.2-1.5,0.1-1.9,0.7L80,49.6c-0.3,0.7-0.2,1.4,0.3,2l5.3,4.6
				c0.6,0.5,0.8,1.3,0.5,2c-1,2.6-1.8,5.3-2.4,8c-0.2,0.8-0.7,1.5-1.3,2l-9.4,6.6c-0.6,0.5-1,1.2-1.1,2v11.9
				c-0.1,0.4,0.2,0.8,0.7,0.9c0.2,0,0.4,0,0.5-0.1l9.2-4.1c0.5-0.3,1.2,0,1.5,0.5c0,0.1,0.1,0.1,0.1,0.2c0.5,1.6,1.2,3.1,2,4.6
				c0.4,0.7,0.4,1.5,0.1,2.2L80,105.2c-0.3,0.6-0.1,1.4,0.5,1.8l6.6,3.8c0.6,0.4,1.4,0.2,1.8-0.4L96.6,99c0.5-0.6,1.2-1,2-1
				c1.7,0,3.3-0.1,5-0.5c0.6-0.2,1.2,0.2,1.3,0.7c0,0.1,0,0.2,0,0.2l1,10c0,0.4,0.3,0.8,0.7,0.8c0.2,0,0.4-0.1,0.5-0.2l10.3-6
				c0.7-0.4,1.1-1.2,1.2-2l1-11.5c0.1-0.8,0.5-1.6,1.1-2.1c2-1.9,4-3.9,5.7-6.1c0.5-0.6,1.3-0.8,2-0.6l6.6,2.3
				c0.7,0.2,1.5-0.1,1.9-0.7l7.6-13.1c0.3-0.7,0.2-1.4-0.3-2l-5.3-4.6c-0.6-0.5-0.8-1.3-0.5-2c1-2.6,1.8-5.3,2.4-8
				c0.2-0.8,0.7-1.5,1.3-2l9.4-6.6C152.2,43.7,152.6,43,152.7,42.2z M112.4,79.6c-9.6,5.6-17.4,1.1-17.4-10.1s7.8-24.6,17.4-30.2
				c9.6-5.6,17.4-1.1,17.4,10.1S122,74.1,112.4,79.6z"/>
			<path class="st12" d="M151.5,29.5l-9.2,4.1c-0.5,0.3-1.2,0-1.5-0.5c0-0.1-0.1-0.1-0.1-0.2c-0.5-1.6-1.2-3.1-2-4.6
				c-0.4-0.7-0.4-1.5-0.1-2.2l6.1-12.3c0.3-0.6,0.1-1.4-0.5-1.8l-6.6-3.8c-0.6-0.4-1.4-0.2-1.8,0.4l-7.6,11.5c-0.5,0.6-1.2,1-2,1
				c-1.7,0-3.3,0.1-5,0.5c-0.6,0.2-1.2-0.2-1.3-0.7c0-0.1,0-0.2,0-0.2l-1-10c0-0.4-0.3-0.8-0.7-0.8c-0.2,0-0.4,0.1-0.5,0.2
				l-10.3,5.9c-0.7,0.4-1.1,1.2-1.2,2l-1,11.5c-0.1,0.8-0.5,1.6-1.1,2.1c-2.1,1.9-4,3.9-5.8,6.1c-0.5,0.6-1.3,0.8-2,0.6l-6.7-2.3
				c-0.7-0.2-1.5,0.1-1.9,0.7L80,49.6c-0.3,0.7-0.2,1.4,0.3,2l5.3,4.6c0.6,0.5,0.8,1.3,0.5,2c-1,2.6-1.8,5.3-2.4,8
				c-0.2,0.8-0.7,1.5-1.3,2l-9.4,6.6c-0.6,0.5-1,1.2-1.1,2v11.9c-0.1,0.4,0.2,0.8,0.7,0.9c0.2,0,0.4,0,0.5-0.1l9.2-4.1
				c0.5-0.3,1.2,0,1.5,0.5c0,0.1,0.1,0.1,0.1,0.2c0.5,1.6,1.2,3.1,2,4.6c0.4,0.7,0.4,1.5,0.1,2.2L80,105.2c-0.3,0.6-0.1,1.4,0.5,1.8
				l6.6,3.8c0.6,0.3,1.4,0.2,1.8-0.4L96.6,99c0.5-0.6,1.2-1,2-1c1.7,0,3.3-0.1,5-0.5c0.6-0.2,1.2,0.2,1.3,0.7c0,0.1,0,0.2,0,0.2
				l1,10c0,0.4,0.3,0.8,0.7,0.8c0.2,0,0.4,0,0.5-0.2l10.3-6c0.7-0.4,1.1-1.2,1.2-2l1-11.5c0.1-0.8,0.5-1.6,1.1-2.1
				c2-1.9,4-3.9,5.7-6.1c0.5-0.6,1.3-0.8,2-0.6l6.6,2.3c0.7,0.2,1.5-0.1,1.9-0.7l7.6-13.1c0.3-0.6,0.2-1.5-0.3-2l-5.3-4.6
				c-0.6-0.5-0.8-1.3-0.5-2c1-2.6,1.8-5.3,2.4-8c0.2-0.8,0.7-1.5,1.3-2l9.4-6.6c0.6-0.5,1-1.2,1.1-2v-12c0-0.4-0.3-0.8-0.7-0.8
				C151.8,29.4,151.6,29.4,151.5,29.5z M112.4,79.6c-9.6,5.6-17.4,1.1-17.4-10.1s7.8-24.6,17.4-30.2s17.4-1.1,17.4,10.1
				S122,74.1,112.4,79.6z"/>
			<path class="st6" d="M209.7,30.5c0.1-1,0.6-1.9,1.3-2.6l5.2-4.8c0.7-0.7,1-1.6,0.9-2.6l-1-5.7c0-0.3-0.2-0.6-0.5-0.8l0,0
				l-6.2-3.6l0,0c-0.3-0.2-0.8-0.1-1.1,0.1l-2.2,1.5l2.2-5.9c0.2-0.6,0-1.3-0.6-1.6l0,0l-6.2-3.6l0,0c-0.1-0.1-0.3-0.1-0.4-0.2
				L197.2,0c-0.9-0.2-1.8,0.3-2.2,1l-3.7,7c-0.4,0.6-0.9,1-1.5,1.4l-0.2-0.6c-0.1-0.3-0.2-0.5-0.5-0.7l0,0l-6.2-3.6l0,0
				c-0.4-0.2-0.9-0.1-1.2,0.2l-5.9,4.6c-0.7,0.6-1.1,1.5-1.1,2.5l0.4,5.6c0,1-0.3,1.9-0.9,2.7c-1,1.2-1.9,2.4-2.7,3.6
				c-0.6,0.8-1.4,1.2-2.4,1.2l-3.8-0.2c-0.9,0-1.8,0.5-2.2,1.3l-3.5,8c-0.3,0.7-0.1,1.6,0.6,2l0,0l4.2,2.4c0.1,0.3,0.2,0.7,0.1,1.1
				c-0.3,1.3-0.5,2.5-0.7,3.8c-0.1,1-0.6,1.9-1.2,2.6l-5.2,4.8c-0.7,0.7-1,1.6-0.9,2.6l1,5.7c0,0.3,0.2,0.6,0.5,0.8l0,0l6.2,3.6l0,0
				c0.3,0.2,0.8,0.1,1.1-0.1l2.2-1.5l-2.2,5.9c-0.2,0.6,0,1.3,0.5,1.6l0,0l6.2,3.6l0,0c0.1,0.1,0.3,0.2,0.4,0.2l3.9,0.9
				c0.9,0.2,1.8-0.3,2.2-1l3.7-7c0.4-0.6,0.9-1,1.5-1.4l0.2,0.6c0.1,0.3,0.3,0.5,0.5,0.7l0,0l6.1,3.5l0,0h0.1l0,0
				c0.4,0.2,0.8,0.1,1.1-0.2l5.9-4.6c0.7-0.6,1.1-1.6,1.1-2.5l-0.4-5.6c0-1,0.3-1.9,0.9-2.7c1-1.2,1.9-2.4,2.7-3.6
				c0.6-0.8,1.4-1.2,2.4-1.2l3.8,0.2c0.9,0,1.8-0.5,2.2-1.3l3.5-8c0.3-0.8,0-1.7-0.8-2c0,0,0,0,0,0l-3.1-1.3c-0.8-0.4-1.2-1.2-1-2.1
				C209.3,33,209.5,31.8,209.7,30.5z M178.3,47.8c-1.2-6.7,3.1-16.2,9.4-21.2c1.9-1.6,4.2-2.7,6.7-3c0.3,0.8,0.6,1.6,0.7,2.5
				c1.2,6.7-3.1,16.2-9.4,21.2c-1.9,1.6-4.2,2.6-6.7,2.9C178.7,49.4,178.4,48.6,178.3,47.8z"/>
			<path class="st8" d="M209.7,30.5c0.1-1,0.6-1.9,1.3-2.6l5.2-4.8c0.7-0.7,1-1.6,0.9-2.6l-1-5.7c0-0.3-0.2-0.6-0.5-0.8l0,0
				l-6.2-3.6l0,0c-0.3-0.2-0.8-0.1-1.1,0.1l-2.2,1.5l2.2-5.9c0.2-0.6,0-1.3-0.6-1.6l0,0l-6.2-3.6l0,0c-0.1-0.1-0.3-0.1-0.4-0.2
				L197.2,0c-0.9-0.2-1.8,0.3-2.2,1l-3.7,7c-0.4,0.6-0.9,1-1.5,1.4l-0.2-0.6c-0.1-0.3-0.2-0.5-0.5-0.7l0,0l-6.2-3.6l0,0
				c-0.4-0.2-0.9-0.1-1.2,0.2l-5.9,4.6c-0.7,0.6-1.1,1.5-1.1,2.5l0.4,5.6c0,1-0.3,1.9-0.9,2.7c-1,1.2-1.9,2.4-2.7,3.6
				c-0.6,0.8-1.4,1.2-2.4,1.2l-3.8-0.2c-0.9,0-1.8,0.5-2.2,1.3l-3.5,8c-0.3,0.7-0.1,1.6,0.6,2l0,0l4.2,2.4c0.1,0.3,0.2,0.7,0.1,1.1
				c-0.3,1.3-0.5,2.5-0.7,3.8c-0.1,1-0.6,1.9-1.2,2.6l-5.2,4.8c-0.7,0.7-1,1.6-0.9,2.6l1,5.7c0,0.3,0.2,0.6,0.5,0.8l0,0l6.2,3.6l0,0
				c0.3,0.2,0.8,0.1,1.1-0.1l2.2-1.5l-2.2,5.9c-0.2,0.6,0,1.3,0.5,1.6l0,0l6.2,3.6l0,0c0.1,0.1,0.3,0.2,0.4,0.2l3.9,0.9
				c0.9,0.2,1.8-0.3,2.2-1l3.7-7c0.4-0.6,0.9-1,1.5-1.4l0.2,0.6c0.1,0.3,0.3,0.5,0.5,0.7l0,0l6.1,3.5l0,0h0.1l0,0
				c0.4,0.2,0.8,0.1,1.1-0.2l5.9-4.6c0.7-0.6,1.1-1.6,1.1-2.5l-0.4-5.6c0-1,0.3-1.9,0.9-2.7c1-1.2,1.9-2.4,2.7-3.6
				c0.6-0.8,1.4-1.2,2.4-1.2l3.8,0.2c0.9,0,1.8-0.5,2.2-1.3l3.5-8c0.3-0.8,0-1.7-0.8-2c0,0,0,0,0,0l-3.1-1.3c-0.8-0.4-1.2-1.2-1-2.1
				C209.3,33,209.5,31.8,209.7,30.5z M178.3,47.8c-1.2-6.7,3.1-16.2,9.4-21.2c1.9-1.6,4.2-2.7,6.7-3c0.3,0.8,0.6,1.6,0.7,2.5
				c1.2,6.7-3.1,16.2-9.4,21.2c-1.9,1.6-4.2,2.6-6.7,2.9C178.7,49.4,178.4,48.6,178.3,47.8z"/>
			<path class="st10" d="M172.5,60.3c-0.4-0.7-1.4-0.9-2.1-0.5c0,0,0,0,0,0l-3,2l-2.2,5.9c-0.2,0.6,0,1.3,0.5,1.6l6.1,3.5
				c-0.5-0.3-0.7-1-0.5-1.6l2.7-7.2c0.2-0.9,0-1.8-0.6-2.5C173.1,61.1,172.8,60.7,172.5,60.3z M190.6,69.2c-0.2-0.2-0.4-0.4-0.5-0.7
				l-1.3-4.4c-0.2-0.7-1-1.1-1.7-0.9c-0.1,0-0.1,0-0.2,0.1c-0.8,0.3-1.6,0.6-2.4,0.8c-0.3,0.1-0.5,0.2-0.8,0.3l0.2,0.6
				c0.1,0.3,0.3,0.5,0.5,0.7l0,0L190.6,69.2z"/>
			<path class="st6" d="M170.2,24.9c-0.3,0.2-0.7,0.2-1.1,0.2l-3.8-0.2c-0.6,0-1.1,0.2-1.6,0.6l6.2,3.6c0.4-0.4,1-0.6,1.6-0.6
				l3.8,0.2c0.4,0,0.7-0.1,1.1-0.2L170.2,24.9z M182.9,4.7c-0.4-0.2-0.8-0.1-1.2,0.2l-5.9,4.6c-0.5,0.4-0.8,0.9-1,1.5l6.2,3.5
				c0.2-0.6,0.5-1.1,1-1.5l5.9-4.6c0.3-0.3,0.8-0.4,1.2-0.2l0,0L182.9,4.7z M162.5,46l-5.1,4.7c-0.4,0.4-0.7,0.9-0.8,1.5l6.2,3.5
				c0.1-0.6,0.4-1.1,0.8-1.5l5.1-4.7L162.5,46z M201.5,1.1c-0.1-0.1-0.3-0.1-0.4-0.2l-3.9-0.9c-0.9-0.2-1.8,0.3-2.2,1l-3.7,7
				c-0.2,0.4-0.5,0.7-0.8,1l6.2,3.6c0.3-0.3,0.6-0.6,0.8-1l3.7-7c0.4-0.8,1.3-1.2,2.2-1l3.9,0.9c0.1,0,0.3,0.1,0.4,0.1L201.5,1.1z
				 M209.4,10.6L209.4,10.6c-0.4-0.2-0.8-0.1-1.1,0.1l-2.3,1.5l-0.5,1.3c-0.2,0.9,0,1.8,0.6,2.5c0.4,0.4,0.7,0.8,1,1.2
				c0.1,0.1,0.2,0.2,0.3,0.3c0.1,0.1,0.2,0.1,0.2,0.2c0.2,0.1,0.3,0.2,0.5,0.2c0.2,0.1,0.5,0.1,0.7,0c0.1,0,0.3-0.1,0.4-0.2l5.2-3.4
				c0.1-0.1,0.3-0.1,0.4-0.2c0.1,0,0.3,0,0.4,0c0.1,0,0.2,0,0.2,0.1L209.4,10.6z"/>
			<path class="st11" d="M170.2,24.9c-0.3,0.2-0.7,0.2-1.1,0.2l-3.8-0.2c-0.6,0-1.1,0.2-1.6,0.6l6.2,3.6c0.4-0.4,1-0.6,1.6-0.6
				l3.8,0.2c0.4,0,0.7-0.1,1.1-0.2L170.2,24.9z M182.9,4.7c-0.4-0.2-0.8-0.1-1.2,0.2l-5.9,4.6c-0.5,0.4-0.8,0.9-1,1.5l6.2,3.5
				c0.2-0.6,0.5-1.1,1-1.5l5.9-4.6c0.3-0.3,0.8-0.4,1.2-0.2l0,0L182.9,4.7z M162.5,46l-5.1,4.7c-0.4,0.4-0.7,0.9-0.8,1.5l6.2,3.5
				c0.1-0.6,0.4-1.1,0.8-1.5l5.1-4.7L162.5,46z M201.5,1.1c-0.1-0.1-0.3-0.1-0.4-0.2l-3.9-0.9c-0.9-0.2-1.8,0.3-2.2,1l-3.7,7
				c-0.2,0.4-0.5,0.7-0.8,1l6.2,3.6c0.3-0.3,0.6-0.6,0.8-1l3.7-7c0.4-0.8,1.3-1.2,2.2-1l3.9,0.9c0.1,0,0.3,0.1,0.4,0.1L201.5,1.1z
				 M209.4,10.6L209.4,10.6c-0.4-0.2-0.8-0.1-1.1,0.1l-2.3,1.5l-0.5,1.3c-0.2,0.9,0,1.8,0.6,2.5c0.4,0.4,0.7,0.8,1,1.2
				c0.1,0.1,0.2,0.2,0.3,0.3c0.1,0.1,0.2,0.1,0.2,0.2c0.2,0.1,0.3,0.2,0.5,0.2c0.2,0.1,0.5,0.1,0.7,0c0.1,0,0.3-0.1,0.4-0.2l5.2-3.4
				c0.1-0.1,0.3-0.1,0.4-0.2c0.1,0,0.3,0,0.4,0c0.1,0,0.2,0,0.2,0.1L209.4,10.6z"/>
			<path class="st6" d="M217,20.6l-1-5.7c-0.1-0.5-0.5-0.9-1.1-0.9c-0.2,0-0.3,0.1-0.5,0.2l-5.2,3.4c-0.7,0.4-1.6,0.2-2.1-0.5
				c0,0,0,0,0,0c-0.3-0.4-0.6-0.9-1-1.2c-0.6-0.7-0.9-1.6-0.6-2.5l2.6-7.1c0.3-0.7-0.1-1.4-0.7-1.7c-0.1,0-0.2-0.1-0.2-0.1l-3.9-0.9
				c-0.9-0.2-1.8,0.3-2.2,1l-3.7,7c-0.5,0.8-1.3,1.4-2.2,1.7c-0.8,0.2-1.6,0.4-2.4,0.7c-0.7,0.3-1.5,0-1.8-0.6
				c0-0.1-0.1-0.1-0.1-0.2l-1.3-4.4c-0.1-0.5-0.6-0.9-1.1-0.8c-0.2,0-0.4,0.1-0.5,0.3l-5.9,4.6c-0.7,0.6-1.1,1.5-1.1,2.5l0.4,5.6
				c0,1-0.3,1.9-0.9,2.7c-1,1.2-1.9,2.4-2.7,3.6c-0.6,0.8-1.5,1.3-2.5,1.2l-3.8-0.2c-0.9,0-1.7,0.5-2.2,1.3l-3.5,8
				c-0.3,0.8,0,1.7,0.8,2c0,0,0,0,0,0l3.1,1.3c0.8,0.4,1.2,1.2,1,2.1c-0.3,1.3-0.5,2.5-0.7,3.8c-0.1,1-0.6,1.9-1.3,2.6l-5.2,4.8
				c-0.7,0.7-1,1.6-0.9,2.6l1,5.7c0.1,0.5,0.5,0.9,1.1,0.9c0.2,0,0.3-0.1,0.5-0.2l5.2-3.4c0.7-0.4,1.6-0.2,2.1,0.5c0,0,0,0,0,0
				c0.3,0.4,0.6,0.9,1,1.2c0.6,0.7,0.9,1.6,0.6,2.5l-2.7,7.2c-0.3,0.7,0.1,1.4,0.7,1.7c0.1,0,0.2,0.1,0.2,0.1l3.9,0.9
				c0.9,0.2,1.8-0.3,2.2-1l3.7-7c0.5-0.8,1.3-1.4,2.2-1.7c0.8-0.2,1.6-0.5,2.4-0.8c0.7-0.3,1.5,0,1.8,0.6c0,0.1,0.1,0.1,0.1,0.2
				l1.3,4.4c0.1,0.5,0.6,0.9,1.1,0.8c0.2,0,0.4-0.1,0.5-0.3l5.9-4.6c0.7-0.6,1.2-1.6,1.2-2.5l-0.4-5.6c0-1,0.3-1.9,0.9-2.7
				c1-1.2,1.9-2.4,2.7-3.6c0.6-0.8,1.4-1.2,2.4-1.2l3.8,0.2c0.9,0,1.8-0.5,2.2-1.3l3.5-8c0.3-0.8,0-1.7-0.8-2c0,0,0,0,0,0l-3.1-1.3
				c-0.8-0.4-1.2-1.2-1-2.1c0.3-1.3,0.5-2.5,0.7-3.8c0.1-1,0.6-1.9,1.3-2.6l5.2-4.8C216.8,22.5,217.1,21.5,217,20.6z M191.9,50.8
				c-6.4,5-12.5,3.6-13.7-3s3.1-16.2,9.4-21.2s12.5-3.6,13.7,3S198.3,45.8,191.9,50.8L191.9,50.8z"/>
			<path class="st12" d="M217,20.6l-1-5.7c-0.1-0.5-0.5-0.9-1.1-0.9c-0.2,0-0.3,0.1-0.5,0.2l-5.2,3.4c-0.7,0.4-1.6,0.2-2.1-0.5
				c0,0,0,0,0,0c-0.3-0.4-0.6-0.9-1-1.2c-0.6-0.7-0.9-1.6-0.6-2.5l2.6-7.1c0.3-0.7-0.1-1.4-0.7-1.7c-0.1,0-0.2-0.1-0.2-0.1l-3.9-0.9
				c-0.9-0.2-1.8,0.3-2.2,1l-3.7,7c-0.5,0.8-1.3,1.4-2.2,1.7c-0.8,0.2-1.6,0.4-2.4,0.7c-0.7,0.3-1.5,0-1.8-0.6
				c0-0.1-0.1-0.1-0.1-0.2l-1.3-4.4c-0.1-0.5-0.6-0.9-1.1-0.8c-0.2,0-0.4,0.1-0.5,0.3l-5.9,4.6c-0.7,0.6-1.1,1.5-1.1,2.5l0.4,5.6
				c0,1-0.3,1.9-0.9,2.7c-1,1.2-1.9,2.4-2.7,3.6c-0.6,0.8-1.5,1.3-2.5,1.2l-3.8-0.2c-0.9,0-1.7,0.5-2.2,1.3l-3.5,8
				c-0.3,0.8,0,1.7,0.8,2c0,0,0,0,0,0l3.1,1.3c0.8,0.4,1.2,1.2,1,2.1c-0.3,1.3-0.5,2.5-0.7,3.8c-0.1,1-0.6,1.9-1.3,2.6l-5.2,4.8
				c-0.7,0.7-1,1.6-0.9,2.6l1,5.7c0.1,0.5,0.5,0.9,1.1,0.9c0.2,0,0.3-0.1,0.5-0.2l5.2-3.4c0.7-0.4,1.6-0.2,2.1,0.5c0,0,0,0,0,0
				c0.3,0.4,0.6,0.9,1,1.2c0.6,0.7,0.9,1.6,0.6,2.5l-2.7,7.2c-0.3,0.7,0.1,1.4,0.7,1.7c0.1,0,0.2,0.1,0.2,0.1l3.9,0.9
				c0.9,0.2,1.8-0.3,2.2-1l3.7-7c0.5-0.8,1.3-1.4,2.2-1.7c0.8-0.2,1.6-0.5,2.4-0.8c0.7-0.3,1.5,0,1.8,0.6c0,0.1,0.1,0.1,0.1,0.2
				l1.3,4.4c0.1,0.5,0.6,0.9,1.1,0.8c0.2,0,0.4-0.1,0.5-0.3l5.9-4.6c0.7-0.6,1.2-1.6,1.2-2.5l-0.4-5.6c0-1,0.3-1.9,0.9-2.7
				c1-1.2,1.9-2.4,2.7-3.6c0.6-0.8,1.4-1.2,2.4-1.2l3.8,0.2c0.9,0,1.8-0.5,2.2-1.3l3.5-8c0.3-0.8,0-1.7-0.8-2c0,0,0,0,0,0l-3.1-1.3
				c-0.8-0.4-1.2-1.2-1-2.1c0.3-1.3,0.5-2.5,0.7-3.8c0.1-1,0.6-1.9,1.3-2.6l5.2-4.8C216.8,22.5,217.1,21.5,217,20.6z M191.9,50.8
				c-6.4,5-12.5,3.6-13.7-3s3.1-16.2,9.4-21.2s12.5-3.6,13.7,3S198.3,45.8,191.9,50.8L191.9,50.8z"/>
		</g>
	</g>
	<g id="Coffee">
		<g id="Coffee-2">
			<ellipse id="Shadow-2" class="st4" cx="274" cy="164.2" rx="19.7" ry="11.4"/>
			<g id="Coffee-3">
				<path class="st6" d="M260.6,129.2c7.5-2.9,19.6-3,26.9-0.3s7.4,7.2,0.1,10.1c-7.3,2.9-19.3,3-26.9,0.3
					C253.1,136.6,253,132,260.6,129.2z"/>
				<path class="st13" d="M260.6,129.2c7.5-2.9,19.6-3,26.9-0.3s7.4,7.2,0.1,10.1c-7.3,2.9-19.3,3-26.9,0.3
					C253.1,136.6,253,132,260.6,129.2z"/>
				<g id="Soda">
					<g id="Coffe">
						<path class="st14" d="M274.2,170.7c-3.9,0.1-7.7-0.7-11.2-2.3c-2.7-1.3-4.3-3.1-4.5-5v-0.4l0,0l-4-46.3l39.4,0l-4,46.2
							l-0.1,0.4c-0.2,1.9-1.7,3.6-4.3,5C281.8,170,278,170.8,274.2,170.7z"/>
						<path class="st15" d="M254.8,117.2h38.5l-4,45.4l0,0l-0.1,0.7c-0.2,1.7-1.6,3.4-4.1,4.6c-3.4,1.6-7.1,2.4-10.9,2.3
							c-3.8,0.1-7.6-0.7-11-2.3c-2.6-1.3-4.1-2.9-4.3-4.6l-0.1-0.6L254.8,117.2 M253.9,116.3l4.1,47.1l0,0c0.2,2,1.7,3.8,4.7,5.3
							c3.6,1.6,7.5,2.5,11.4,2.4c3.9,0.1,7.8-0.7,11.3-2.4c2.9-1.5,4.4-3.4,4.6-5.3l0,0l4.1-47L253.9,116.3L253.9,116.3z"/>
						<path class="st6" d="M252.9,120.3l-0.7-8.1h5.1c0.6-0.4,1.3-0.7,2-1.1c8.4-4,21.8-4,29.9,0c0.6,0.3,1.2,0.7,1.8,1.1h5
							l-0.7,8.1l0,0c0,2.6-2,5.2-6.1,7.2c-8.1,4-21.5,4-29.9,0C255,125.6,252.9,123,252.9,120.3z"/>
						<g class="st16">
							<path d="M252.9,120.3l-0.7-8.1h5.1c0.6-0.4,1.3-0.7,2-1.1c8.4-4,21.8-4,29.9,0c0.6,0.3,1.2,0.7,1.8,1.1h5l-0.7,8.1l0,0
								c0,2.6-2,5.2-6.1,7.2c-8.1,4-21.5,4-29.9,0C255,125.6,252.9,123,252.9,120.3z"/>
						</g>
						<path class="st6" d="M258.6,104.8c8.7-4.1,22.6-4.1,31,0c8.4,4.1,8.4,10.9,0,15c-8.4,4.1-22.3,4.1-31,0
							C250,115.7,250,108.9,258.6,104.8z"/>
					</g>
				</g>
				<path class="st6" d="M293,134v0.8v0.6l-1.2,15.7c0,1.1-0.7,2.1-2.1,3.1c-0.1,0.1-0.2,0.2-0.4,0.2c-0.7,0.4-1.5,0.8-2.2,1.1
					c-3.9,1.4-8,2.1-12.1,2.1c-0.6,0-1.2,0-1.9,0c-3.9,0-7.7-0.6-11.4-1.8c-1-0.3-2-0.8-2.9-1.3l-0.4-0.2c-1.4-1-2.1-2-2.1-3.1
					l-1.2-15.7l-0.1-0.7v0.1c0.3,1.7,2.2,3.3,5.7,4.5c4.3,1.4,8.8,2,13.3,2c4.6,0.1,9.3-0.7,13.7-2.2C291.2,137.6,293,135.8,293,134
					z"/>
				<path class="st17" d="M293,134v0.8v0.6l-1.2,15.7c0,1.1-0.7,2.1-2.1,3.1c-0.1,0.1-0.2,0.2-0.4,0.2c-0.7,0.4-1.5,0.8-2.2,1.1
					c-3.9,1.4-8,2.1-12.1,2.1c-0.6,0-1.2,0-1.9,0c-3.9,0-7.7-0.6-11.4-1.8c-1-0.3-2-0.8-2.9-1.3l-0.4-0.2c-1.4-1-2.1-2-2.1-3.1
					l-1.2-15.7l-0.1-0.7v0.1c0.3,1.7,2.2,3.3,5.7,4.5c4.3,1.4,8.8,2,13.3,2c4.6,0.1,9.3-0.7,13.7-2.2C291.2,137.6,293,135.8,293,134
					z"/>
				<path class="st1" d="M280.3,151.8c0.6-0.9,1.1-1.9,1.5-2.9c0.9-1.8,2.5-3.2,4.3-3.9c0.3-0.1,0.6,0,0.7,0.2c1,2,0.4,4.7-1.5,6.7
					s-4.6,2.6-6.6,1.7c-0.1,0-0.1-0.3-0.1-0.3C279.3,152.9,279.9,152.4,280.3,151.8z"/>
				<path class="st1" d="M285.1,144.5c-1,0.4-1.9,1-2.7,1.7c-0.8,0.8-1.5,1.7-2,2.8c-0.5,1.3-1.4,2.5-2.5,3.4
					c-0.2,0.2-0.6,0.1-0.8-0.1c-1.3-2-0.8-4.9,1.3-7.1s4.8-2.7,6.7-1.6c0.3,0.1,0.4,0.5,0.2,0.7
					C285.3,144.3,285.2,144.4,285.1,144.5z"/>
				<path class="st6" d="M256.3,110.7L256.3,110.7l1.3-6.6l11-0.1c3.6-0.6,7.3-0.6,11-0.1l10.7-0.1l1.5,6.5l0,0
					c0.7,2.4-0.9,4.9-4.9,6.8c-6.8,3.2-18.2,3.3-25.4,0.3C257.3,115.5,255.6,113,256.3,110.7z"/>
				<path class="st7" d="M256.3,110.7L256.3,110.7l1.3-6.6l11-0.1c3.6-0.6,7.3-0.6,11-0.1l10.7-0.1l1.5,6.5l0,0
					c0.7,2.4-0.9,4.9-4.9,6.8c-6.8,3.2-18.2,3.3-25.4,0.3C257.3,115.5,255.6,113,256.3,110.7z"/>
				<path class="st6" d="M262.3,99.8c6.5-2.8,16.9-2.9,23.2-0.3c6.3,2.7,6.4,7.1,0.1,9.8s-16.7,2.9-23.2,0.3
					C255.9,107,255.8,102.6,262.3,99.8z"/>
				<path class="st6" d="M259.8,104.8c0.2,0.4,0.4,0.7,0.7,0.9c0.8,0.6,1.7,1.2,2.7,1.5c3.5,1.3,7.2,1.9,11,1.8
					c3.7,0,7.3-0.6,10.7-2c0.9-0.4,1.8-0.9,2.6-1.6c0.5-0.5,0.7-0.9,0.7-1c0-0.1-0.6-1.3-3.3-2.5c-3.4-1.3-7.1-1.9-10.8-1.8
					c-3.7,0-7.4,0.7-10.9,2C260.4,103.4,259.8,104.5,259.8,104.8z"/>
				<g class="st18">
					<path d="M259.8,104.8c0.2,0.4,0.4,0.7,0.7,0.9c0.8,0.6,1.7,1.2,2.7,1.5c3.5,1.3,7.2,1.9,11,1.8c3.7,0,7.3-0.6,10.7-2
						c0.9-0.4,1.8-0.9,2.6-1.6c0.5-0.5,0.7-0.9,0.7-1c0-0.1-0.6-1.3-3.3-2.5c-3.4-1.3-7.1-1.9-10.8-1.8c-3.7,0-7.4,0.7-10.9,2
						C260.4,103.4,259.8,104.5,259.8,104.8z"/>
				</g>
				<path class="st6" d="M260.5,105.7c0.8,0.6,1.7,1.2,2.7,1.5c3.5,1.3,7.2,1.9,11,1.8c3.7,0,7.3-0.6,10.7-2
					c0.9-0.4,1.8-0.9,2.6-1.6c-0.8-0.7-1.7-1.2-2.6-1.5c-3.4-1.3-7.1-1.9-10.8-1.8c-3.7,0-7.4,0.7-10.9,2
					C262.2,104.5,261.3,105,260.5,105.7z"/>
				<g class="st16">
					<path d="M260.5,105.7c0.8,0.6,1.7,1.2,2.7,1.5c3.5,1.3,7.2,1.9,11,1.8c3.7,0,7.3-0.6,10.7-2c0.9-0.4,1.8-0.9,2.6-1.6
						c-0.8-0.7-1.7-1.2-2.6-1.5c-3.4-1.3-7.1-1.9-10.8-1.8c-3.7,0-7.4,0.7-10.9,2C262.2,104.5,261.3,105,260.5,105.7z"/>
				</g>
				<g class="st18">
					<path d="M267,105.8c-1-0.6-2.1-0.8-2.6-0.5c-0.5,0.3-0.1,1.1,0.9,1.7s2.1,0.9,2.6,0.5C268.4,107.1,268,106.4,267,105.8z"/>
				</g>
			</g>
		</g>
	</g>
	<g id="Device">
		<g id="Laptop">
			<path id="Shadow-3" class="st4" d="M101.4,239.4l80,46.2c2.1,1,4.5,1,6.6,0l119.1-68.7c1.8-1,1.8-2.7,0-3.8l-80-46.2
				c-2.1-1-4.5-1-6.6,0l-119.1,68.7C99.6,236.6,99.6,238.3,101.4,239.4z"/>
			<path class="st6" d="M107.8,236.2c0,1.9,1.4,3.1,3.1,4l70.3,40.6c2,1,4.3,1,6.2,0l113.4-65.5c1.7-1,3.1-2.3,3.1-4.1s-1.4-3-3.1-4
				l-70.3-40.6c-2-1-4.3-1-6.2,0l-113.4,65.5C109.2,233.1,107.8,234.3,107.8,236.2z"/>
			<path class="st8" d="M107.8,236.2c0,1.9,1.4,3.1,3.1,4l70.3,40.6c2,1,4.3,1,6.2,0l113.4-65.5c1.7-1,3.1-2.3,3.1-4.1s-1.4-3-3.1-4
				l-70.3-40.6c-2-1-4.3-1-6.2,0l-113.4,65.5C109.2,233.1,107.8,234.3,107.8,236.2z"/>
			<path class="st6" d="M110.9,235.7l70.3,40.6c2,1,4.3,1,6.2,0l113.4-65.5c1.7-1,1.7-2.6,0-3.6l-70.3-40.6c-2-1-4.3-1-6.2,0
				l-113.4,65.5C109.2,233.1,109.2,234.7,110.9,235.7z"/>
			<path class="st19" d="M110.9,235.7l70.3,40.6c2,1,4.3,1,6.2,0l113.4-65.5c1.7-1,1.7-2.6,0-3.6l-70.3-40.6c-2-1-4.3-1-6.2,0
				l-113.4,65.5C109.2,233.1,109.2,234.7,110.9,235.7z"/>
			<path class="st6" d="M184.3,277v4.5c-1.1,0-2.1-0.2-3.1-0.7l-70.3-40.6c-1.7-1-3.1-2.2-3.1-4s1.2-2.9,2.9-3.9
				c-1.3,1-1.4,2.5,0.2,3.5l70.3,40.6C182.1,276.8,183.2,277,184.3,277z"/>
			<path class="st6" d="M120.5,232.6l104.2-60.1c0.9-0.5,2-0.5,2.9,0l3.8,2.1c0.5,0.2,0.7,0.7,0.6,1.1c-0.1,0.3-0.3,0.5-0.6,0.6
				l-104.2,60.2c-0.9,0.5-2,0.5-2.9,0l-3.8-2.1c-0.5-0.1-0.8-0.6-0.7-1.1C119.9,232.9,120.2,232.6,120.5,232.6z"/>
			<path class="st20" d="M120.5,232.6l104.2-60.1c0.9-0.5,2-0.5,2.9,0l3.8,2.1c0.5,0.2,0.7,0.7,0.6,1.1c-0.1,0.3-0.3,0.5-0.6,0.6
				l-104.2,60.2c-0.9,0.5-2,0.5-2.9,0l-3.8-2.1c-0.5-0.1-0.8-0.6-0.7-1.1C119.9,232.9,120.2,232.6,120.5,232.6z"/>
			<path class="st6" d="M130.7,238.6l104.2-60.1c0.8-0.5,1.8-0.5,2.7-0.1l27.1,15.7c0.7,0.4,0.6,1.1-0.3,1.5l-104.1,60.1
				c-0.8,0.5-1.8,0.5-2.7,0.1l-27.2-15.6C129.8,239.8,129.9,239.1,130.7,238.6z"/>
			<path class="st8" d="M130.7,238.6l104.2-60.1c0.8-0.5,1.8-0.5,2.7-0.1l27.1,15.7c0.7,0.4,0.6,1.1-0.3,1.5l-104.1,60.1
				c-0.8,0.5-1.8,0.5-2.7,0.1l-27.2-15.6C129.8,239.8,129.9,239.1,130.7,238.6z"/>
			<path class="st14" d="M221,203.8l3.3-1.9c0.1-0.1,0.1-0.2,0-0.3l-3.1-1.8c-0.1-0.1-0.3-0.1-0.5,0l-3.3,1.9
				c-0.1,0.1-0.1,0.2,0,0.3l3.1,1.8C220.7,203.8,220.8,203.8,221,203.8z M216.2,197.2l-3.3,1.9c-0.1,0.1-0.1,0.2,0,0.3l3.1,1.8
				c0.1,0.1,0.3,0.1,0.5,0l3.3-1.9c0.1-0.1,0.2-0.2,0-0.3l-3.1-1.8C216.5,197.2,216.4,197.2,216.2,197.2z M205.7,203.3l-5.5,3.2
				c-0.1,0.1-0.1,0.2,0,0.3l3.1,1.8c0.1,0.1,0.3,0.1,0.5,0l5.5-3.2c0.1-0.1,0.1-0.2,0-0.3l-3.1-1.8
				C206,203.2,205.8,203.2,205.7,203.3z M211.5,200l-3.3,1.9c-0.1,0.1-0.1,0.2,0,0.3l3.1,1.8c0.1,0.1,0.3,0.1,0.5,0l3.3-1.9
				c0.1-0.1,0.2-0.2,0-0.3l-3.1-1.8C211.8,199.9,211.6,199.9,211.5,200L211.5,200z M198.7,207.4l-3.3,1.9c-0.1,0.1-0.1,0.2,0,0.3
				l3.1,1.8c0.1,0.1,0.3,0.1,0.5,0l3.3-1.9c0.1-0.1,0.1-0.2,0-0.3l-3.1-1.8C199,207.3,198.8,207.3,198.7,207.4z M193.9,210.1
				l-3.3,1.9c-0.1,0.1-0.1,0.2,0,0.3l3.1,1.8c0.1,0.1,0.3,0.1,0.5,0l3.3-1.9c0.1-0.1,0.1-0.2,0-0.3l-3.1-1.8
				C194.2,210.1,194.1,210.1,193.9,210.1z M206.1,217.5l3.3-1.9c0.1-0.1,0.1-0.2,0-0.3l-3.1-1.8c-0.1-0.1-0.3-0.1-0.5,0l-3.2,1.9
				c-0.1,0.1-0.2,0.2,0,0.3l3.1,1.8C205.8,217.6,206,217.6,206.1,217.5L206.1,217.5z M201.4,220.2l3.3-1.9c0.1-0.1,0.1-0.2,0-0.3
				l-3-1.8c-0.1-0.1-0.3-0.1-0.5,0l-3.3,1.9c-0.1,0.1-0.1,0.2,0,0.3l3.1,1.8C201.1,220.3,201.2,220.3,201.4,220.2L201.4,220.2z
				 M196.6,223l3.3-1.9c0.1-0.1,0.2-0.2,0-0.3l-3.1-1.8c-0.1-0.1-0.3-0.1-0.5,0l-3.3,1.9c-0.1,0.1-0.1,0.2,0,0.3l3.1,1.8
				C196.3,223.1,196.4,223.1,196.6,223L196.6,223z M191.8,225.7l3.3-1.9c0.1-0.1,0.1-0.2,0-0.3l-3.1-1.8c-0.1-0.1-0.3-0.1-0.5,0
				l-3.3,1.9c-0.1,0.1-0.2,0.2,0,0.3l3.1,1.8C191.5,225.8,191.7,225.8,191.8,225.7z M216.2,206.5l3.3-1.9c0.1-0.1,0.1-0.2,0-0.3
				l-3.1-1.8c-0.1-0.1-0.3-0.1-0.5,0l-3.3,1.9c-0.1,0.1-0.2,0.2,0,0.3l3.1,1.8C215.9,206.6,216.1,206.6,216.2,206.5z M210.9,214.7
				l7.3-4.2c0.1-0.1,0.1-0.2,0-0.3l-7.6-4.4c-0.1-0.1-0.3-0.1-0.5,0l-3.8,2.2c-0.1,0.1-0.2,0.2,0,0.3l4,2.3c0.1,0.1,0.1,0.2,0,0.3
				l-3,1.7c-0.1,0.1-0.2,0.2,0,0.3l3.1,1.8C210.6,214.8,210.8,214.8,210.9,214.7L210.9,214.7z M189.1,212.9l-3.3,1.9
				c-0.1,0.1-0.1,0.2,0,0.3l3.1,1.8c0.1,0.1,0.3,0.1,0.5,0l3.3-1.9c0.1-0.1,0.1-0.2,0-0.3l-3.1-1.8
				C189.5,212.8,189.3,212.8,189.1,212.9L189.1,212.9z M184.4,215.6l-3.2,1.9c-0.1,0.1-0.1,0.2,0,0.3l3.1,1.8c0.1,0.1,0.3,0.1,0.5,0
				l3.3-1.9c0.1-0.1,0.1-0.2,0-0.3l-3.1-1.8C184.7,215.6,184.5,215.6,184.4,215.6L184.4,215.6z M158,245c0.1,0.1,0.3,0.1,0.5,0
				l3.3-1.9c0.1-0.1,0.1-0.2,0-0.3l-3-1.8c-0.1-0.1-0.3-0.1-0.5,0l-3.3,1.9c-0.1,0.1-0.1,0.2,0,0.3L158,245z M146.2,237.7l-3.3,1.9
				c-0.1,0.1-0.2,0.2,0,0.3l3.1,1.8c0.1,0.1,0.3,0.1,0.5,0l3.3-1.9c0.1-0.1,0.2-0.2,0-0.3l-3.1-1.8
				C146.6,237.6,146.4,237.6,146.2,237.7L146.2,237.7z M152.3,243.2c0.1,0.1,0.3,0.1,0.5,0l3.3-1.9c0.1-0.1,0.1-0.2,0-0.3l-3.1-1.8
				c-0.1-0.1-0.3-0.1-0.5,0l-3.3,1.9c-0.1,0.1-0.2,0.2,0,0.3L152.3,243.2z M165.4,246.1l3.3-1.9c0.1-0.1,0.2-0.2,0-0.3l-3.1-1.8
				c-0.1-0.1-0.3-0.1-0.5,0l-3.3,1.9c-0.1,0.1-0.1,0.2,0,0.3l3.1,1.8C165.1,246.2,165.3,246.2,165.4,246.1L165.4,246.1z
				 M160.2,248.9c0.1,0.1,0.3,0.1,0.5,0l3.3-1.9c0.1-0.1,0.1-0.2,0-0.3l-3.1-1.8c-0.1-0.1-0.3-0.1-0.5,0l-3.3,1.9
				c-0.1,0.1-0.1,0.2,0,0.3L160.2,248.9z M151,234.9l-3.3,1.9c-0.1,0.1-0.1,0.2,0,0.3l3.1,1.8c0.1,0.1,0.3,0.1,0.5,0l3.3-1.9
				c0.1-0.1,0.1-0.2,0-0.3l-3.1-1.8C151.3,234.8,151.1,234.8,151,234.9L151,234.9z M174.8,221.1l-3.3,1.9c-0.1,0.1-0.1,0.2,0,0.3
				l3.1,1.8c0.1,0.1,0.3,0.1,0.5,0l3.3-1.9c0.1-0.1,0.1-0.2,0-0.3l-3.1-1.8C175.1,221,175,221.1,174.8,221.1L174.8,221.1z
				 M155.8,232.2l-3.3,1.9c-0.1,0.1-0.1,0.2,0,0.3l3.1,1.8c0.1,0.1,0.3,0.1,0.5,0l3.3-1.9c0.1-0.1,0.1-0.2,0-0.3l-3.1-1.8
				C156.1,232.1,155.9,232.1,155.8,232.2z M179.6,218.4l-3.3,1.9c-0.1,0.1-0.1,0.2,0,0.3l3.1,1.8c0.1,0.1,0.3,0.1,0.5,0l3.3-1.9
				c0.1-0.1,0.1-0.2,0-0.3l-3.1-1.8C179.9,218.3,179.7,218.3,179.6,218.4L179.6,218.4z M170.1,223.9l-3.2,1.8
				c-0.1,0.1-0.2,0.2,0,0.3l3.1,1.8c0.1,0.1,0.3,0.1,0.5,0l3.3-1.9c0.1-0.1,0.2-0.2,0-0.3l-3.1-1.8
				C170.4,223.8,170.2,223.8,170.1,223.9L170.1,223.9z M165.3,226.6l-3.3,1.9c-0.1,0.1-0.2,0.2,0,0.3l3.1,1.8c0.1,0.1,0.3,0.1,0.5,0
				l3.3-1.9c0.1-0.1,0.1-0.2,0-0.3l-3.1-1.8C165.6,226.6,165.4,226.6,165.3,226.6L165.3,226.6z M160.5,229.4l-3.3,1.9
				c-0.1,0.1-0.1,0.2,0,0.3l3.1,1.8c0.1,0.1,0.3,0.1,0.5,0l3.3-1.9c0.1-0.1,0.1-0.2,0-0.3l-3.1-1.8
				C160.8,229.3,160.7,229.3,160.5,229.4L160.5,229.4z M182.3,231.2l3.3-1.9c0.1-0.1,0.1-0.2,0-0.3l-3.1-1.8c-0.1-0.1-0.3-0.1-0.5,0
				l-3.3,1.9c-0.1,0.1-0.1,0.2,0,0.3l3.1,1.8C182,231.3,182.1,231.3,182.3,231.2L182.3,231.2z M226.8,191.1l-3.3,1.9
				c-0.1,0.1-0.1,0.2,0,0.3l3.1,1.8c0.1,0.1,0.3,0.1,0.5,0l3.3-1.9c0.1-0.1,0.1-0.2,0-0.3l-3.1-1.8
				C227.1,191.1,226.9,191.1,226.8,191.1L226.8,191.1z M221,194.5l-3.3,1.9c-0.1,0.1-0.1,0.2,0,0.3l3.1,1.8c0.1,0.1,0.3,0.1,0.5,0
				l3.3-1.9c0.1-0.1,0.1-0.2,0-0.3l-3.1-1.8C221.3,194.5,221.2,194.5,221,194.5z M231.5,188.4l-3.3,1.9c-0.1,0.1-0.1,0.2,0,0.3
				l3.1,1.8c0.1,0.1,0.3,0.1,0.5,0l3.3-1.9c0.1-0.1,0.2-0.2,0-0.3l-3.1-1.8C231.9,188.4,231.7,188.3,231.5,188.4L231.5,188.4z
				 M205.2,212.9l3.3-1.9c0.1-0.1,0.1-0.2,0-0.3l-3.1-1.8c-0.1-0.1-0.3-0.1-0.5,0l-3.3,1.9c-0.1,0.1-0.1,0.2,0,0.3l3.1,1.8
				C204.9,213,205,213,205.2,212.9L205.2,212.9z M236.8,185.7c-0.1-0.1-0.3-0.1-0.5,0l-3.3,1.9c-0.1,0.1-0.2,0.2,0,0.3l3.1,1.8
				c0.1,0.1,0.3,0.1,0.5,0l3.3-1.9c0.1-0.1,0.2-0.2,0-0.3L236.8,185.7z M187.1,228.5l3.3-1.9c0.1-0.1,0.1-0.2,0-0.3l-3.1-1.8
				c-0.1-0.1-0.3-0.1-0.5,0l-3.3,1.9c-0.1,0.1-0.1,0.2,0,0.3l3.1,1.8C186.7,228.6,186.9,228.6,187.1,228.5L187.1,228.5z
				 M245.6,194.8l3.3-1.9c0.1-0.1,0.1-0.2,0-0.3l-3.1-1.8c-0.1-0.1-0.3-0.1-0.5,0l-3.3,1.9c-0.1,0.1-0.1,0.2,0,0.3l3.1,1.8
				C245.3,194.8,245.4,194.8,245.6,194.8L245.6,194.8z M236.4,195l3.3-1.9c0.1-0.1,0.1-0.2,0-0.3l-3.1-1.8c-0.1-0.1-0.3-0.1-0.5,0
				l-3.3,1.9c-0.1,0.1-0.2,0.2,0,0.3l3.1,1.8C236,195,236.2,195,236.4,195L236.4,195z M241.3,188.2c-0.1-0.1-0.3-0.1-0.5,0l-3.3,1.9
				c-0.1,0.1-0.1,0.2,0,0.3l3.1,1.8c0.1,0.1,0.3,0.1,0.5,0l3.3-1.9c0.1-0.1,0.2-0.2,0-0.3L241.3,188.2z M242.3,187.7l7.6,4.4
				c0.1,0.1,0.3,0.1,0.5,0l3.3-1.9c0.1-0.1,0.1-0.2,0-0.3l-7.6-4.4c-0.1-0.1-0.3-0.1-0.5,0l-3.3,1.9
				C242.1,187.4,242.1,187.6,242.3,187.7L242.3,187.7z M231.2,193.8l-3.3,1.9c-0.1,0.1-0.2,0.2,0,0.3l3.1,1.8c0.1,0.1,0.3,0.1,0.5,0
				l3.3-1.9c0.1-0.1,0.2-0.2,0-0.3l-3.1-1.8C231.6,193.7,231.4,193.7,231.2,193.8L231.2,193.8z M195.3,214.4l-3.3,1.9
				c-0.1,0.1-0.2,0.2,0,0.3l3.1,1.8c0.1,0.1,0.3,0.1,0.5,0l3.3-1.9c0.1-0.1,0.1-0.2,0-0.3l-3.1-1.8
				C195.7,214.4,195.5,214.4,195.3,214.4z M240.3,197.5c0.1,0.1,0.3,0.1,0.5,0l3.3-1.9c0.1-0.1,0.1-0.2,0-0.3l-3.1-1.8
				c-0.1-0.1-0.3-0.1-0.5,0l-3.3,1.9c-0.1,0.1-0.2,0.2,0,0.3L240.3,197.5z M200.1,211.7l-3.3,1.9c-0.1,0.1-0.1,0.2,0,0.3l3.1,1.8
				c0.1,0.1,0.3,0.1,0.5,0l3.3-1.9c0.1-0.1,0.1-0.2,0-0.3l-3.1-1.8C200.4,211.6,200.3,211.6,200.1,211.7z M162.7,242.3
				c0.1,0.1,0.3,0.1,0.5,0l3.3-2c0.1-0.1,0.1-0.2,0-0.3l-3.1-1.8c-0.1-0.1-0.3-0.1-0.5,0l-3.2,1.9c-0.1,0.1-0.1,0.2,0,0.3
				L162.7,242.3z M157.2,236.5l-3.3,1.9c-0.1,0.1-0.1,0.2,0,0.3l3.1,1.8c0.1,0.1,0.3,0.1,0.5,0l3.3-1.9c0.1-0.1,0.1-0.2,0-0.3
				l-3.1-1.8C157.6,236.4,157.4,236.4,157.2,236.5z M168,239.5l3.3-1.9c0.1-0.1,0.2-0.2,0-0.3l-3.1-1.8c-0.1-0.1-0.3-0.1-0.5,0
				l-3.2,1.9c-0.1,0.1-0.1,0.2,0,0.3l3.1,1.8C167.7,239.6,167.9,239.6,168,239.5z M172.8,236.7l3.3-1.9c0.1-0.1,0.2-0.2,0-0.3
				l-3.1-1.8c-0.1-0.1-0.3-0.1-0.5,0l-3.3,1.9c-0.1,0.1-0.2,0.2,0,0.3l3.1,1.8C172.4,236.8,172.6,236.8,172.8,236.7L172.8,236.7z
				 M177.5,234l3.3-1.9c0.1-0.1,0.1-0.2,0-0.3l-3.1-1.8c-0.1-0.1-0.3-0.1-0.5,0l-3.3,1.9c-0.1,0.1-0.2,0.2,0,0.3l3.1,1.8
				C177.2,234.1,177.4,234.1,177.5,234L177.5,234z M161.9,233.7l-3.2,1.9c-0.1,0.1-0.1,0.2,0,0.3l3.1,1.8c0.1,0.1,0.3,0.1,0.5,0
				l3.3-1.9c0.1-0.1,0.1-0.2,0-0.3l-3.1-1.8C162.3,233.6,162.1,233.6,161.9,233.7L161.9,233.7z M166.7,231l-3.3,1.9
				c-0.1,0.1-0.2,0.2,0,0.3l3.1,1.8c0.1,0.1,0.3,0.1,0.5,0l3.3-1.9c0.1-0.1,0.1-0.2,0-0.3l-3.1-1.8C167,230.9,166.9,230.9,166.7,231
				L166.7,231z M185.8,219.9l-3.2,1.9c-0.1,0.1-0.1,0.2,0,0.3l3.1,1.8c0.1,0.1,0.3,0.1,0.5,0l3.3-1.9c0.1-0.1,0.1-0.2,0-0.3
				l-3.1-1.8C186.1,219.9,186,219.9,185.8,219.9L185.8,219.9z M181,222.7l-3.3,1.9c-0.1,0.1-0.1,0.2,0,0.3l3.1,1.8
				c0.1,0.1,0.3,0.1,0.5,0l3.3-1.9c0.1-0.1,0.2-0.2,0-0.3l-3.1-1.8C181.3,222.6,181.2,222.6,181,222.7L181,222.7z M190.5,217.2
				l-3.3,1.9c-0.1,0.1-0.2,0.2,0,0.3l3.1,1.8c0.1,0.1,0.3,0.1,0.5,0l3.3-1.9c0.1-0.1,0.1-0.2,0-0.3l-3.1-1.8
				C190.9,217.1,190.7,217.1,190.5,217.2L190.5,217.2z M171.5,228.2l-3.3,1.9c-0.1,0.1-0.2,0.2,0,0.3l3.1,1.8c0.1,0.1,0.3,0.1,0.5,0
				l3.3-1.9c0.1-0.1,0.1-0.2,0-0.3l-3.1-1.8C171.8,228.1,171.7,228.1,171.5,228.2L171.5,228.2z M176.2,225.5l-3.3,1.9
				c-0.1,0.1-0.2,0.2,0,0.3l3.1,1.8c0.1,0.1,0.3,0.1,0.5,0l3.3-1.9c0.1-0.1,0.2-0.2,0-0.3l-3.1-1.8
				C176.6,225.4,176.4,225.4,176.2,225.5L176.2,225.5z M170.1,243.4l3.3-1.9c0.1-0.1,0.1-0.2,0-0.3l-3-1.8c-0.1-0.1-0.3-0.1-0.5,0
				l-3.3,2c-0.1,0.1-0.1,0.2,0,0.3l3.1,1.8C169.9,243.5,170.1,243.5,170.1,243.4L170.1,243.4z M145,242.2l-3.1-1.8
				c-0.1-0.1-0.3-0.1-0.5,0l-3.2,1.9c-0.1,0.1-0.1,0.2,0,0.3l3.1,1.8c0.1,0.1,0.3,0.1,0.5,0l3.3-1.9
				C145.2,242.4,145.2,242.3,145,242.2z M151.2,243.7l-3.1-1.8c-0.1-0.1-0.3-0.1-0.5,0l-5,2.9c-0.1,0.1-0.1,0.2,0,0.3l3.1,1.8
				c0.1,0.1,0.3,0.1,0.5,0l5-2.9C151.4,243.9,151.4,243.8,151.2,243.7L151.2,243.7z M140.4,238.6l-3.1-1.8c-0.1-0.1-0.3-0.1-0.5,0
				l-4,2.3c-0.1,0.1-0.2,0.2,0,0.3l3.1,1.8c0.1,0.1,0.3,0.1,0.5,0l4-2.3C140.5,238.8,140.5,238.7,140.4,238.6L140.4,238.6z
				 M143.4,236.9c0.1,0.1,0.3,0.1,0.5,0l3.3-1.9c0.1-0.1,0.2-0.2,0-0.3l-3.1-1.8c-0.1-0.1-0.3-0.1-0.5,0l-3.3,1.9
				c-0.1,0.1-0.2,0.2,0,0.3L143.4,236.9z M157,245.6l-3.1-1.8c-0.1-0.1-0.3-0.1-0.5,0l-6.3,3.6c-0.1,0.1-0.2,0.2,0,0.3l3.1,1.8
				c0.1,0.1,0.3,0.1,0.5,0l6.3-3.6C157.1,245.8,157.1,245.7,157,245.6L157,245.6z M159.2,249.5l-3.1-1.8c-0.1-0.1-0.3-0.1-0.5,0
				l-4,2.3c-0.1,0.1-0.2,0.2,0,0.3l3.1,1.8c0.1,0.1,0.3,0.1,0.5,0l4-2.3C159.3,249.7,159.3,249.5,159.2,249.5L159.2,249.5z
				 M178.9,216.4c0.1,0.1,0.3,0.1,0.5,0l3.3-1.9c0.1-0.1,0.2-0.2,0-0.3l-3.1-1.8c-0.1-0.1-0.3-0.1-0.5,0l-3.3,1.9
				c-0.1,0.1-0.2,0.2,0,0.3L178.9,216.4z M169.4,221.9c0.1,0.1,0.3,0.1,0.5,0l3.3-1.9c0.1-0.1,0.1-0.2,0-0.3l-3.1-1.8
				c-0.1-0.1-0.3-0.1-0.5,0l-3.3,1.9c-0.1,0.1-0.1,0.2,0,0.3L169.4,221.9z M148.3,234.1c0.1,0.1,0.3,0.1,0.5,0l3.3-1.9
				c0.1-0.1,0.2-0.2,0-0.3l-3.1-1.8c-0.1-0.1-0.3-0.1-0.5,0l-3.3,1.9c-0.1,0.1-0.1,0.2,0,0.3L148.3,234.1z M174.2,219.1
				c0.1,0.1,0.3,0.1,0.5,0l3.3-1.9c0.1-0.1,0.1-0.2,0-0.3l-3.1-1.8c-0.1-0.1-0.3-0.1-0.5,0l-3.3,1.9c-0.1,0.1-0.1,0.2,0,0.3
				L174.2,219.1z M164.6,224.7c0.1,0.1,0.3,0.1,0.5,0l3.3-1.9c0.1-0.1,0.2-0.2,0-0.3l-3.1-1.8c-0.1-0.1-0.3-0.1-0.5,0l-3.3,1.9
				c-0.1,0.1-0.1,0.2,0,0.3L164.6,224.7z M161.5,249.7c-0.1-0.1-0.3-0.1-0.5,0l-5,2.9c-0.1,0.1-0.1,0.2,0,0.3l3.1,1.8
				c0.1,0.1,0.3,0.1,0.5,0l5-2.9c0.1-0.1,0.1-0.2,0-0.3L161.5,249.7z M157.8,228.6c0.1,0.1,0.3,0.1,0.5,0l3.2-1.9
				c0.1-0.1,0.1-0.2,0-0.3l-3.1-1.8c-0.1-0.1-0.3-0.1-0.5,0l-3.3,1.9c-0.1,0.1-0.1,0.2,0,0.3L157.8,228.6z M153,231.4
				c0.1,0.1,0.3,0.1,0.5,0l3.3-1.9c0.1-0.1,0.2-0.2,0-0.3l-3.1-1.8c-0.1-0.1-0.3-0.1-0.5,0l-3.3,1.9c-0.1,0.1-0.1,0.2,0,0.3
				L153,231.4z M249.9,198.7c-0.1-0.1-0.3-0.1-0.5,0l-8,4.6c-0.1,0.1-0.2,0.2,0,0.3l3.1,1.8c0.1,0.1,0.3,0.1,0.5,0l8-4.6
				c0.1-0.1,0.1-0.2,0-0.3L249.9,198.7z M239.3,204.8c-0.1-0.1-0.3-0.1-0.5,0l-3.3,1.9c-0.1,0.1-0.1,0.2,0,0.3l3.1,1.8
				c0.1,0.1,0.3,0.1,0.5,0l3.3-1.9c0.1-0.1,0.1-0.2,0-0.3L239.3,204.8z M175,240.6l3.3-1.9c0.1-0.1,0.1-0.2,0-0.3l-3.1-1.8
				c-0.1-0.1-0.3-0.1-0.5,0l-3.3,1.9c-0.1,0.1-0.1,0.2,0,0.3l3.1,1.8C174.6,240.7,174.8,240.7,175,240.6L175,240.6z M229.8,210.3
				c-0.1-0.1-0.3-0.1-0.5,0l-3.3,1.9c-0.1,0.1-0.1,0.2,0,0.3l3.1,1.8c0.1,0.1,0.3,0.1,0.5,0l3.3-1.9c0.1-0.1,0.1-0.2,0-0.3
				L229.8,210.3z M254.6,195.9c-0.1-0.1-0.3-0.1-0.5,0l-3.3,1.9c-0.1,0.1-0.1,0.2,0,0.3l3.1,1.8c0.1,0.1,0.3,0.1,0.5,0l3.3-1.9
				c0.1-0.1,0.1-0.2,0-0.3L254.6,195.9z M262.5,194.9l-7.6-4.3c-0.1-0.1-0.3-0.1-0.5,0l-3.3,1.9c-0.1,0.1-0.2,0.2,0,0.3l7.6,4.4
				c0.1,0.1,0.3,0.1,0.5,0l3.3-1.9C262.6,195.2,262.6,195,262.5,194.9L262.5,194.9z M212,220.5c-0.1-0.1-0.3-0.1-0.5,0l-4,2.4
				c-0.1,0.1-0.1,0.2,0,0.3l3.1,1.8c0.1,0.1,0.3,0.1,0.5,0l4-2.3c0.1-0.1,0.2-0.2,0-0.3L212,220.5z M224,213.6
				c-0.1-0.1-0.3-0.1-0.5,0l-5,2.9c-0.1,0.1-0.1,0.2,0,0.3l3.1,1.8c0.1,0.1,0.3,0.1,0.5,0l5-2.9c0.1-0.1,0.1-0.2,0-0.3L224,213.6z
				 M200.9,226.9c-0.1-0.1-0.3-0.1-0.5,0l-26.8,15.5c-0.1,0.1-0.2,0.2,0,0.3l3.1,1.8c0.1,0.1,0.3,0.1,0.5,0l26.8-15.5
				c0.1-0.1,0.2-0.2,0-0.3L200.9,226.9z M172.6,243.3c-0.1-0.1-0.3-0.1-0.5,0l-4,2.3c-0.1,0.1-0.1,0.2,0,0.3l3.1,1.8
				c0.1,0.1,0.3,0.1,0.5,0l4-2.3c0.1-0.1,0.1-0.2,0-0.3L172.6,243.3z M206.5,223.8c-0.1-0.1-0.3-0.1-0.5,0l-4,2.3
				c-0.1,0.1-0.2,0.2,0,0.3l3.1,1.8c0.1,0.1,0.3,0.1,0.5,0l4-2.3c0.1-0.1,0.1-0.2,0-0.3L206.5,223.8z M167.1,246.5
				c-0.1-0.1-0.3-0.1-0.5,0l-4,2.3c-0.1,0.1-0.1,0.2,0,0.3l3.1,1.8c0.1,0.1,0.3,0.1,0.5,0l4-2.3c0.1-0.1,0.2-0.2,0-0.3L167.1,246.5z
				 M217.5,217.4c-0.1-0.1-0.3-0.1-0.5,0l-4,2.3c-0.1,0.1-0.1,0.2,0,0.3l3.1,1.8c0.1,0.1,0.3,0.1,0.5,0l4-2.3c0.1-0.1,0.1-0.2,0-0.3
				L217.5,217.4z M234.6,207.6c-0.1-0.1-0.3-0.1-0.5,0l-3.2,1.9c-0.1,0.1-0.1,0.2,0,0.3l3.1,1.8c0.1,0.1,0.3,0.1,0.5,0l3.3-1.9
				c0.1-0.1,0.1-0.2,0-0.3L234.6,207.6z M245.3,200.1l3.3-1.9c0.1-0.1,0.2-0.2,0-0.3l-3.1-1.8c-0.1-0.1-0.3-0.1-0.5,0l-3.3,1.9
				c-0.1,0.1-0.1,0.2,0,0.3l3.1,1.8C245,200.1,245.1,200.1,245.3,200.1L245.3,200.1z M225.8,201.1l3.3-1.9c0.1-0.1,0.1-0.2,0-0.3
				l-3.1-1.8c-0.1-0.1-0.3-0.1-0.5,0l-3.3,1.9c-0.1,0.1-0.1,0.2,0,0.3l3.1,1.8C225.5,201.1,225.6,201.1,225.8,201.1L225.8,201.1z
				 M213.1,218.7l9.5-5.5c0.1-0.1,0.1-0.2,0-0.3l-3.1-1.8c-0.1-0.1-0.3-0.1-0.5,0l-9.5,5.5c-0.1,0.1-0.2,0.2,0,0.3l3.1,1.8
				C212.8,218.7,213,218.7,213.1,218.7L213.1,218.7z M240,202.9c0.1,0.1,0.3,0.1,0.5,0l3.3-1.9c0.1-0.1,0.2-0.2,0-0.3l-3.1-1.8
				c-0.1-0.1-0.3-0.1-0.5,0l-3.3,1.9c-0.1,0.1-0.1,0.2,0,0.3L240,202.9z M236,200.3l3.3-1.9c0.1-0.1,0.1-0.2,0-0.3l-3.1-1.8
				c-0.1-0.1-0.3-0.1-0.5,0l-3.3,1.9c-0.1,0.1-0.2,0.2,0,0.3l3.1,1.8C235.7,200.4,235.9,200.3,236,200.3L236,200.3z M208.3,221.4
				l3.3-1.9c0.1-0.1,0.1-0.2,0-0.3l-3.1-1.8c-0.1-0.1-0.3-0.1-0.5,0l-3.3,1.9c-0.1,0.1-0.1,0.2,0,0.3l3.1,1.8
				C208,221.5,208.2,221.5,208.3,221.4L208.3,221.4z M229.5,209c0.1,0.1,0.3,0.1,0.5,0l3.3-1.9c0.1-0.1,0.1-0.2,0-0.3l-3.1-1.8
				c-0.1-0.1-0.3-0.1-0.5,0l-3.3,1.9c-0.1,0.1-0.1,0.2,0,0.3L229.5,209z M184.5,235.2l3.3-1.9c0.1-0.1,0.1-0.2,0-0.3l-3.1-1.8
				c-0.1-0.1-0.3-0.1-0.5,0l-3.3,1.9c-0.1,0.1-0.1,0.2,0,0.3l3.1,1.8C184.2,235.2,184.4,235.2,184.5,235.2L184.5,235.2z
				 M189.3,232.5l3.3-1.9c0.1-0.1,0.1-0.2,0-0.3l-3.1-1.8c-0.1-0.1-0.3-0.1-0.5,0l-3.3,1.9c-0.1,0.1-0.2,0.2,0,0.3l3.1,1.8
				C189,232.5,189.1,232.5,189.3,232.5L189.3,232.5z M179.7,238l3.3-1.9c0.1-0.1,0.2-0.2,0-0.3l-3.1-1.8c-0.1-0.1-0.3-0.1-0.5,0
				l-3.3,1.9c-0.1,0.1-0.1,0.2,0,0.3l3.1,1.8C179.4,238,179.6,238,179.7,238L179.7,238z M198.8,227l3.3-1.9c0.1-0.1,0.2-0.2,0-0.3
				L199,223c-0.1-0.1-0.3-0.1-0.5,0l-3.3,1.9c-0.1,0.1-0.1,0.2,0,0.3l3.1,1.8C198.5,227,198.7,227,198.8,227L198.8,227z M194,229.6
				l3.3-1.9c0.1-0.1,0.2-0.2,0-0.3l-3.1-1.8c-0.1-0.1-0.3-0.1-0.5,0l-3.3,1.9c-0.1,0.1-0.1,0.2,0,0.3l3.1,1.8
				C193.7,229.7,193.9,229.7,194,229.6z M203.6,224.1l3.3-1.9c0.1-0.1,0.1-0.2,0-0.3l-3.1-1.8c-0.1-0.1-0.3-0.1-0.5,0L200,222
				c-0.1,0.1-0.1,0.2,0,0.3l3.1,1.8C203.2,224.2,203.4,224.2,203.6,224.1L203.6,224.1z M229.6,185.8c0.1,0.1,0.3,0.1,0.5,0l3.3-1.9
				c0.1-0.1,0.1-0.2,0-0.3l-0.8-0.5c-0.1-0.1-0.3-0.1-0.5,0l-3.3,1.9c-0.1,0.1-0.1,0.2,0,0.3L229.6,185.8z M205.9,200.8
				c0.1,0.1,0.3,0.1,0.5,0l3.3-1.9c0.1-0.1,0.2-0.2,0-0.3l-3.1-1.8c-0.1-0.1-0.3-0.1-0.5,0l-3.3,1.9c-0.1,0.1-0.2,0.2,0,0.3
				L205.9,200.8z M215.4,195.3c0.1,0.1,0.3,0.1,0.5,0l3.3-1.9c0.1-0.1,0.1-0.2,0-0.3l-3.1-1.8c-0.1-0.1-0.3-0.1-0.5,0l-3.2,1.9
				c-0.1,0.1-0.1,0.2,0,0.3L215.4,195.3z M200.1,204.2c0.1,0.1,0.3,0.1,0.5,0l3.3-1.9c0.1-0.1,0.1-0.2,0-0.3l-3.1-1.8
				c-0.1-0.1-0.3-0.1-0.5,0l-3.3,1.9c-0.1,0.1-0.1,0.2,0,0.3L200.1,204.2z M210.6,198.1c0.1,0.1,0.3,0.1,0.5,0l3.3-1.9
				c0.1-0.1,0.1-0.2,0-0.3l-3.1-1.8c-0.1-0.1-0.3-0.1-0.5,0l-3.3,1.9c-0.1,0.1-0.2,0.2,0,0.3L210.6,198.1z M190.5,209.7
				c0.1,0.1,0.3,0.1,0.5,0l3.3-1.9c0.1-0.1,0.1-0.2,0-0.3l-3.1-1.8c-0.1-0.1-0.3-0.1-0.5,0l-3.3,1.9c-0.1,0.1-0.1,0.2,0,0.3
				L190.5,209.7z M195.3,207c0.1,0.1,0.3,0.1,0.5,0l3.3-1.9c0.1-0.1,0.1-0.2,0-0.3l-3.1-1.8c-0.1-0.1-0.3-0.1-0.5,0l-3.3,1.9
				c-0.1,0.1-0.1,0.2,0,0.3L195.3,207z M220,191.4c0.1,0.1,0.3,0.1,0.5,0l3.3-1.9c0.1-0.1,0.1-0.2,0-0.3l-0.8-0.5
				c-0.1-0.1-0.3-0.1-0.5,0l-3.3,1.9c-0.1,0.1-0.2,0.2,0,0.3L220,191.4z M234.3,183.1c0.1,0.1,0.3,0.1,0.5,0l3.3-1.9
				c0.1-0.1,0.1-0.2,0-0.3l-0.8-0.5c-0.1-0.1-0.3-0.1-0.5,0l-3.3,1.9c-0.1,0.1-0.1,0.2,0,0.3L234.3,183.1z M240.9,186.9
				c0.1,0.1,0.3,0.1,0.5,0l3.3-1.9c0.1-0.1,0.1-0.2,0-0.3l-3.1-1.8c-0.1-0.1-0.3-0.1-0.5,0l-3.2,1.9c-0.1,0.1-0.1,0.2,0,0.3
				L240.9,186.9z M250,197.3l3.3-1.9c0.1-0.1,0.2-0.2,0-0.3l-3.1-1.8c-0.1-0.1-0.3-0.1-0.5,0l-3.2,1.9c-0.1,0.1-0.1,0.2,0,0.3
				l3.1,1.8C249.7,197.4,249.9,197.4,250,197.3L250,197.3z M224.8,188.6c0.1,0.1,0.3,0.1,0.5,0l3.3-1.9c0.1-0.1,0.2-0.2,0-0.3
				l-0.8-0.5c-0.1-0.1-0.3-0.1-0.5,0l-3.2,1.9c-0.1,0.1-0.1,0.2,0,0.3L224.8,188.6z M185.8,212.4c0.1,0.1,0.3,0.1,0.5,0l3.3-1.9
				c0.1-0.1,0.2-0.2,0-0.3l-3.1-1.8c-0.1-0.1-0.3-0.1-0.5,0l-3.3,1.9c-0.1,0.1-0.1,0.2,0,0.3L185.8,212.4z"/>
			<g id="Tuch_Pad">
				<polygon class="st6" points="199.4,239.6 200.1,240 219,250.9 252.5,231.5 253.2,231.1 233.6,219.8 				"/>
				<polygon class="st6" points="252,231.8 233.6,221.1 200.6,240.2 219,250.9 				"/>
				<polygon class="st8" points="252,231.8 233.6,221.1 200.6,240.2 219,250.9 				"/>
			</g>
			<path class="st6" d="M106.5,232.6c-1.4-0.6-1.7-1.7-1.9-3.6l-6.1-89.1c0-2.1,1.1-4.1,2.9-5.2l113.4-65.5c1.7-1,3-1.5,4.6-0.4
				s1.6,1.7,1.7,3.6l6.1,89.1c0,2.1-1.1,4.1-2.9,5.2l-113.4,65.4C109.2,233.1,108.2,233.4,106.5,232.6z"/>
			<path class="st20" d="M106.5,232.6c-1.4-0.6-1.7-1.7-1.9-3.6l-6.1-89.1c0-2.1,1.1-4.1,2.9-5.2l113.4-65.5c1.7-1,3-1.5,4.6-0.4
				s1.6,1.7,1.7,3.6l6.1,89.1c0,2.1-1.1,4.1-2.9,5.2l-113.4,65.4C109.2,233.1,108.2,233.4,106.5,232.6z"/>
			<path class="st6" d="M221,72.3c-0.1-2-1.6-2.6-3.3-1.7L104.3,136c-0.9,0.6-1.6,1.3-2.1,2.3l-2.9-1.5l0,0c0.5-0.9,1.2-1.7,2.1-2.3
				l113.4-65.5c1.7-1,2.9-1.5,4.6-0.4C220.9,69.7,220.9,70.4,221,72.3z"/>
			<path class="st8" d="M221,72.3c-0.1-2-1.6-2.6-3.3-1.7L104.3,136c-0.9,0.6-1.6,1.3-2.1,2.3l-2.9-1.5l0,0c0.5-0.9,1.2-1.7,2.1-2.3
				l113.4-65.5c1.7-1,2.9-1.5,4.6-0.4C220.9,69.7,220.9,70.4,221,72.3z"/>
			<path class="st6" d="M110.7,232.2c-1.2,0.9-2.9,1-4.2,0.3c-1.3-0.5-1.7-1.7-1.9-3.6l-6.1-89.1c0-1,0.2-2,0.7-2.9l2.9,1.5l0,0
				c-0.5,0.9-0.8,1.9-0.7,2.9l6.1,89.1c-0.1,1.1,0.8,2.1,1.9,2.1C109.8,232.6,110.3,232.5,110.7,232.2z"/>
			<path class="st6" d="M106.3,139.5l109.1-62.9c1-0.6,2-0.1,2,1l5.7,83.1c0,1.3-0.6,2.5-1.7,3.1l-109.1,62.9c-1,0.6-2,0.1-2-1
				l-5.7-83.1C104.6,141.3,105.2,140.1,106.3,139.5z"/>
			<path class="st9" d="M106.3,139.5c-1.1,0.7-1.7,1.9-1.7,3.1l5.6,81.8L218,162.1c1.1-0.7,1.7-1.9,1.7-3.1l-5.6-81.8L106.3,139.5z"
				/>
		</g>
	</g>
	<g id="Window">
		<g id="Window-2">
			<g id="Window-3">
				<path class="st2" d="M227.2,84.8c0-0.1,0-0.1,0-0.2l0,0c0-0.1,0-0.1-0.1-0.2c0-0.1-0.1-0.2-0.1-0.3c0,0,0-0.1-0.1-0.1l-0.1-0.1
					l-0.2-0.1l0,0l-0.2-0.1c-0.5-0.2-1-0.1-1.5,0.2l-107.4,61.7c-1.2,0.7-2.1,2.3-2,4.6l5.3,77.3l-0.1-1v0.4c0,0.5,0.4,1,0.9,1.2
					l0.1,0.1l0.1,0.1c0.1,0,0.1,0,0.2,0.1h0.3c0.3,0,0.5-0.1,0.7-0.2h0.1l0,0l2-1.2l105.2-60.6c1.2-0.8,2-2.1,2-3.6l-5.3-77.7
					C227.2,85,227.2,84.9,227.2,84.8z"/>
				<path class="st6" d="M226.4,83.7c-0.5-0.2-1-0.1-1.5,0.2l-107.3,61.8c-1.2,0.8-2,2.1-2,3.6l0.3,4l-2.9-1.5l-0.3-3.9
					c0-1.5,0.7-2.8,2-3.6l107.4-61.8c0.5-0.3,1.1-0.4,1.6-0.2C224,82.6,226,83.5,226.4,83.7z"/>
				<path class="st6" d="M227.2,85.1c-0.1-1.3-1.1-1.8-2.3-1.1l-107.3,61.8c-1.2,0.8-2,2.1-2,3.6l0.3,4l111.6-64.2L227.2,85.1z"/>
				<g class="st16">
					<path class="st9" d="M224.9,83.9l-107.3,61.8c-0.6,0.4-1.1,0.9-1.5,1.6l-2.9-1.5c0.3-0.6,0.8-1.2,1.4-1.5L222,82.5
						c0.5-0.3,1.1-0.4,1.6-0.2c0.4,0.2,2.3,1.2,2.8,1.4C225.9,83.6,225.4,83.7,224.9,83.9z"/>
				</g>
				<path class="st21" d="M112.9,151.8l-0.3-3.9c0-0.7,0.2-1.4,0.5-2.1l2.9,1.4c-0.4,0.6-0.5,1.3-0.5,2.1l0.3,4L112.9,151.8z"/>
				<path class="st9" d="M218.8,89.5c-0.5,0.4-0.8,1-0.7,1.7c0,0.7,0.4,1,0.9,0.7c0.5-0.4,0.8-1,0.7-1.7
					C219.6,89.5,219.2,89.2,218.8,89.5z"/>
				<path class="st9" d="M221.7,87.8c-0.5,0.4-0.8,1-0.7,1.7c0,0.7,0.4,1,0.9,0.7c0.5-0.4,0.8-1,0.7-1.7
					C222.6,87.8,222.2,87.5,221.7,87.8z"/>
				<path class="st9" d="M224.6,86.1c-0.5,0.4-0.8,1-0.7,1.7c0,0.7,0.4,1,0.9,0.7c0.5-0.4,0.8-1,0.7-1.7
					C225.5,86.2,225.1,85.8,224.6,86.1z"/>
				<path class="st22" d="M121.8,228.3l-0.1-0.1l-2.4-1.2c-0.6-0.3-1.1-0.9-1.3-1.6c0-0.1,0-0.2,0-0.3l-5-73.3l2.9,1.5l5,73.7
					c0,0.5,0.3,0.9,0.8,1.2L121.8,228.3L121.8,228.3L121.8,228.3z"/>
			</g>
			<g id="Code" class="st18">
				<g class="st23">
					<path class="st9" d="M125,195.4l2.9-1.7c0.3-0.2,0.5,0,0.6,0.3l0.1,1c0,0.4-0.2,0.7-0.5,0.9l-2.9,1.7c-0.3,0.2-0.5,0-0.6-0.3
						l-0.1-1C124.6,195.9,124.7,195.6,125,195.4z"/>
					<path class="st9" d="M125.3,199.5l2.9-1.7c0.3-0.2,0.5,0,0.6,0.3l0.1,1c0,0.4-0.2,0.7-0.5,0.9l-2.9,1.7c-0.3,0.2-0.5,0-0.6-0.3
						l-0.1-1C124.8,200,125,199.7,125.3,199.5z"/>
					<path class="st9" d="M125.6,203.6l2.9-1.7c0.3-0.2,0.5,0,0.6,0.3l0.1,1c0,0.4-0.2,0.7-0.5,0.9l-2.9,1.7c-0.3,0.2-0.5,0-0.6-0.3
						l-0.1-1C125.1,204.1,125.3,203.8,125.6,203.6z"/>
					<path class="st9" d="M125.9,207.7l2.9-1.7c0.3-0.2,0.5,0,0.6,0.3l0.1,1c0,0.4-0.2,0.7-0.5,0.9l-2.9,1.7c-0.3,0.2-0.5,0-0.6-0.3
						l-0.1-1C125.4,208.2,125.6,207.9,125.9,207.7z"/>
				</g>
				<g class="st23">
					<path class="st9" d="M123.7,175.1l2.9-1.7c0.3-0.2,0.5,0,0.6,0.3l0.1,1c0,0.4-0.2,0.7-0.5,0.9l-2.9,1.7c-0.3,0.2-0.5,0-0.6-0.3
						l-0.1-1C123.2,175.7,123.4,175.3,123.7,175.1z"/>
					<path class="st9" d="M123.9,179.2l2.9-1.7c0.3-0.2,0.5,0,0.6,0.3l0.1,1c0,0.4-0.2,0.7-0.5,0.9l-2.9,1.7c-0.3,0.2-0.5,0-0.6-0.3
						l-0.1-1C123.4,179.7,123.6,179.4,123.9,179.2z"/>
					<path class="st9" d="M124.2,183.3l2.9-1.7c0.3-0.2,0.5,0,0.6,0.3l0.1,1c0,0.4-0.2,0.7-0.5,0.9l-2.9,1.7c-0.3,0.2-0.5,0-0.6-0.3
						l-0.1-1C123.7,183.8,123.9,183.5,124.2,183.3z"/>
					<path class="st9" d="M124.6,187.4l2.9-1.7c0.3-0.2,0.5,0,0.6,0.3l0.1,1c0,0.4-0.2,0.7-0.5,0.9l-2.9,1.7c-0.3,0.2-0.5,0-0.6-0.3
						l-0.1-1C124,187.9,124.2,187.6,124.6,187.4z"/>
					<path class="st9" d="M126.4,215.7l2.9-1.7c0.3-0.2,0.5,0,0.6,0.3l0.1,1c0,0.4-0.2,0.7-0.5,0.9l-2.9,1.7c-0.3,0.2-0.5,0-0.6-0.3
						l-0.1-1C125.9,216.2,126.1,215.9,126.4,215.7z"/>
					<path class="st9" d="M126.7,219.8l2.9-1.7c0.3-0.2,0.5,0,0.6,0.3l0.1,1c0,0.4-0.2,0.7-0.5,0.9l-2.9,1.7c-0.3,0.2-0.5,0-0.6-0.3
						l-0.1-1C126.2,220.3,126.4,220,126.7,219.8z"/>
				</g>
				<g class="st23">
					<path class="st9" d="M122.3,154.8l2.9-1.7c0.3-0.2,0.5,0,0.6,0.3l0.1,1c0,0.4-0.2,0.7-0.5,0.9l-2.9,1.7c-0.3,0.2-0.5,0-0.6-0.3
						l-0.1-1C121.8,155.4,122,155,122.3,154.8z"/>
					<path class="st9" d="M122.6,158.9l2.9-1.7c0.3-0.2,0.5,0,0.6,0.3l0.1,1c0,0.4-0.2,0.7-0.5,0.9l-2.9,1.7c-0.3,0.2-0.5,0-0.6-0.3
						l-0.1-1C122.1,159.5,122.3,159.1,122.6,158.9z"/>
					<path class="st9" d="M122.8,163l2.9-1.7c0.3-0.2,0.5,0,0.6,0.3l0.1,1c0,0.4-0.2,0.7-0.5,0.9l-2.9,1.7c-0.3,0.2-0.5,0-0.6-0.3
						l-0.1-1C122.3,163.5,122.5,163.2,122.8,163z"/>
					<path class="st9" d="M123.1,167.1l2.9-1.7c0.3-0.2,0.5,0,0.6,0.3l0.1,1c0,0.4-0.2,0.7-0.5,0.9l-2.9,1.7c-0.3,0.2-0.5,0-0.6-0.3
						l-0.1-1C122.6,167.6,122.8,167.3,123.1,167.1z"/>
				</g>
				<path class="st1" d="M223.4,131.5l-21.1,12.2c-0.8,0.5-1.3,1.4-1.3,2.4l2.1,30.5c0.1,0.9,0.7,1.2,1.5,0.8l21.1-12.2
					c0.8-0.5,1.3-1.4,1.3-2.4l-2.1-30.5C224.9,131.4,224.2,131,223.4,131.5z"/>
				<path class="st6" d="M223,154.7l-2,1.1c-0.4,0.2-0.7,0.7-0.7,1.2c0,0.4,0.4,0.6,0.8,0.3l2-1.1c0.4-0.2,0.7-0.7,0.7-1.2
					C223.7,154.6,223.4,154.5,223,154.7z"/>
				<path class="st24" d="M223,154.7l-2,1.1c-0.4,0.2-0.7,0.7-0.7,1.2c0,0.4,0.4,0.6,0.8,0.3l2-1.1c0.4-0.2,0.7-0.7,0.7-1.2
					C223.7,154.6,223.4,154.5,223,154.7z"/>
				<path class="st6" d="M221.7,135.6l-2,1.1c-0.4,0.2-0.7,0.7-0.7,1.2c0,0.4,0.4,0.6,0.8,0.3l2-1.1c0.4-0.2,0.7-0.7,0.7-1.2
					C222.4,135.5,222.1,135.3,221.7,135.6z"/>
				<path class="st24" d="M221.7,135.6l-2,1.1c-0.4,0.2-0.7,0.7-0.7,1.2c0,0.4,0.4,0.6,0.8,0.3l2-1.1c0.4-0.2,0.7-0.7,0.7-1.2
					C222.4,135.5,222.1,135.3,221.7,135.6z"/>
				<path class="st6" d="M219.2,141l-2,1.1c-0.4,0.2-0.7,0.7-0.7,1.2c0,0.4,0.4,0.6,0.8,0.3l2-1.1c0.4-0.2,0.7-0.7,0.7-1.2
					C219.9,140.9,219.6,140.7,219.2,141z"/>
				<path class="st24" d="M219.2,141l-2,1.1c-0.4,0.2-0.7,0.7-0.7,1.2c0,0.4,0.4,0.6,0.8,0.3l2-1.1c0.4-0.2,0.7-0.7,0.7-1.2
					C219.9,140.9,219.6,140.7,219.2,141z"/>
				<path class="st6" d="M219.5,144.8l-2,1.1c-0.4,0.2-0.7,0.7-0.7,1.2c0,0.4,0.4,0.6,0.8,0.3l2-1.1c0.4-0.2,0.7-0.7,0.7-1.2
					C220.2,144.7,219.9,144.6,219.5,144.8z"/>
				<path class="st24" d="M219.5,144.8l-2,1.1c-0.4,0.2-0.7,0.7-0.7,1.2c0,0.4,0.4,0.6,0.8,0.3l2-1.1c0.4-0.2,0.7-0.7,0.7-1.2
					C220.2,144.7,219.9,144.6,219.5,144.8z"/>
				<path class="st6" d="M222.4,147.1l-2,1.1c-0.4,0.2-0.7,0.7-0.7,1.2c0,0.4,0.4,0.6,0.8,0.3l2-1.1c0.4-0.2,0.7-0.7,0.7-1.2
					C223.2,147,222.8,146.8,222.4,147.1z"/>
				<path class="st24" d="M222.4,147.1l-2,1.1c-0.4,0.2-0.7,0.7-0.7,1.2c0,0.4,0.4,0.6,0.8,0.3l2-1.1c0.4-0.2,0.7-0.7,0.7-1.2
					C223.2,147,222.8,146.8,222.4,147.1z"/>
				<path class="st6" d="M220,152.5l-2,1.1c-0.4,0.2-0.7,0.7-0.7,1.2c0,0.4,0.4,0.6,0.8,0.3l2-1.1c0.4-0.2,0.7-0.7,0.7-1.2
					C220.7,152.4,220.4,152.2,220,152.5z"/>
				<path class="st24" d="M220,152.5l-2,1.1c-0.4,0.2-0.7,0.7-0.7,1.2c0,0.4,0.4,0.6,0.8,0.3l2-1.1c0.4-0.2,0.7-0.7,0.7-1.2
					C220.7,152.4,220.4,152.2,220,152.5z"/>
				<path class="st6" d="M216.4,138.6l-11.8,6.8c-0.4,0.2-0.7,0.7-0.7,1.2c0,0.4,0.4,0.6,0.8,0.3l11.8-6.8c0.4-0.2,0.7-0.7,0.7-1.2
					C217.1,138.5,216.7,138.4,216.4,138.6z"/>
				<path class="st11" d="M216.4,138.6l-11.8,6.8c-0.4,0.2-0.7,0.7-0.7,1.2c0,0.4,0.4,0.6,0.8,0.3l11.8-6.8c0.4-0.2,0.7-0.7,0.7-1.2
					C217.1,138.5,216.7,138.4,216.4,138.6z"/>
				<path class="st6" d="M217.7,157.8l-11.8,6.8c-0.4,0.2-0.7,0.7-0.7,1.2c0,0.4,0.4,0.6,0.8,0.3l11.8-6.8c0.4-0.2,0.7-0.7,0.7-1.2
					C218.4,157.7,218.1,157.6,217.7,157.8z"/>
				<path class="st11" d="M217.7,157.8l-11.8,6.8c-0.4,0.2-0.7,0.7-0.7,1.2c0,0.4,0.4,0.6,0.8,0.3l11.8-6.8c0.4-0.2,0.7-0.7,0.7-1.2
					C218.4,157.7,218.1,157.6,217.7,157.8z"/>
				<path class="st6" d="M213.9,144l-9.1,5.3c-0.4,0.2-0.7,0.7-0.7,1.2c0,0.4,0.4,0.6,0.8,0.3l9.1-5.3c0.4-0.2,0.7-0.7,0.7-1.2
					C214.6,143.9,214.3,143.8,213.9,144z"/>
				<path class="st11" d="M213.9,144l-9.1,5.3c-0.4,0.2-0.7,0.7-0.7,1.2c0,0.4,0.4,0.6,0.8,0.3l9.1-5.3c0.4-0.2,0.7-0.7,0.7-1.2
					C214.6,143.9,214.3,143.8,213.9,144z"/>
				<path class="st6" d="M214.2,147.9l-9.1,5.3c-0.4,0.2-0.7,0.7-0.7,1.2c0,0.4,0.4,0.6,0.8,0.3l9.1-5.3c0.4-0.2,0.7-0.7,0.7-1.2
					C214.9,147.8,214.5,147.6,214.2,147.9z"/>
				<path class="st11" d="M214.2,147.9l-9.1,5.3c-0.4,0.2-0.7,0.7-0.7,1.2c0,0.4,0.4,0.6,0.8,0.3l9.1-5.3c0.4-0.2,0.7-0.7,0.7-1.2
					C214.9,147.8,214.5,147.6,214.2,147.9z"/>
				<path class="st6" d="M217.1,150.1l-11.8,6.8c-0.4,0.2-0.7,0.7-0.7,1.2c0,0.4,0.4,0.6,0.8,0.3l11.8-6.8c0.4-0.2,0.7-0.7,0.7-1.2
					C217.9,150,217.5,149.9,217.1,150.1z"/>
				<path class="st11" d="M217.1,150.1l-11.8,6.8c-0.4,0.2-0.7,0.7-0.7,1.2c0,0.4,0.4,0.6,0.8,0.3l11.8-6.8c0.4-0.2,0.7-0.7,0.7-1.2
					C217.9,150,217.5,149.9,217.1,150.1z"/>
				<path class="st6" d="M214.7,155.5l-9.1,5.3c-0.4,0.2-0.7,0.7-0.7,1.2c0,0.4,0.4,0.6,0.8,0.3l9.1-5.3c0.4-0.2,0.7-0.7,0.7-1.2
					C215.4,155.4,215.1,155.3,214.7,155.5z"/>
				<path class="st11" d="M214.7,155.5l-9.1,5.3c-0.4,0.2-0.7,0.7-0.7,1.2c0,0.4,0.4,0.6,0.8,0.3l9.1-5.3c0.4-0.2,0.7-0.7,0.7-1.2
					C215.4,155.4,215.1,155.3,214.7,155.5z"/>
				<path class="st6" d="M223.5,162.4l-2,1.1c-0.4,0.2-0.7,0.7-0.7,1.2c0,0.4,0.4,0.6,0.8,0.3l2-1.1c0.4-0.2,0.7-0.7,0.7-1.2
					C224.2,162.3,223.9,162.2,223.5,162.4z"/>
				<path class="st24" d="M223.5,162.4l-2,1.1c-0.4,0.2-0.7,0.7-0.7,1.2c0,0.4,0.4,0.6,0.8,0.3l2-1.1c0.4-0.2,0.7-0.7,0.7-1.2
					C224.2,162.3,223.9,162.2,223.5,162.4z"/>
				<path class="st6" d="M220.5,160.2l-2,1.1c-0.4,0.2-0.7,0.7-0.7,1.2c0,0.4,0.4,0.6,0.8,0.3l2-1.1c0.4-0.2,0.7-0.7,0.7-1.2
					C221.2,160.1,220.9,159.9,220.5,160.2z"/>
				<path class="st24" d="M220.5,160.2l-2,1.1c-0.4,0.2-0.7,0.7-0.7,1.2c0,0.4,0.4,0.6,0.8,0.3l2-1.1c0.4-0.2,0.7-0.7,0.7-1.2
					C221.2,160.1,220.9,159.9,220.5,160.2z"/>
				<path class="st6" d="M218.2,165.5l-11.8,6.8c-0.4,0.2-0.7,0.7-0.7,1.2c0,0.4,0.4,0.6,0.8,0.3l11.8-6.8c0.4-0.2,0.7-0.7,0.7-1.2
					C218.9,165.4,218.6,165.3,218.2,165.5z"/>
				<path class="st11" d="M218.2,165.5l-11.8,6.8c-0.4,0.2-0.7,0.7-0.7,1.2c0,0.4,0.4,0.6,0.8,0.3l11.8-6.8c0.4-0.2,0.7-0.7,0.7-1.2
					C218.9,165.4,218.6,165.3,218.2,165.5z"/>
				<path class="st6" d="M215.2,163.2l-9.1,5.3c-0.4,0.2-0.7,0.7-0.7,1.2c0,0.4,0.4,0.6,0.8,0.3l9.1-5.3c0.4-0.2,0.7-0.7,0.7-1.2
					C215.9,163.1,215.6,163,215.2,163.2z"/>
				<path class="st11" d="M215.2,163.2l-9.1,5.3c-0.4,0.2-0.7,0.7-0.7,1.2c0,0.4,0.4,0.6,0.8,0.3l9.1-5.3c0.4-0.2,0.7-0.7,0.7-1.2
					C215.9,163.1,215.6,163,215.2,163.2z"/>
				<path class="st1" d="M221.3,100.1l-21.1,12.2c-0.8,0.5-1.3,1.4-1.3,2.4l1.6,23.4c0.1,0.9,0.7,1.2,1.5,0.8l21-12.2
					c0.8-0.5,1.3-1.4,1.3-2.4l-1.6-23.4C222.7,99.9,222.1,99.6,221.3,100.1z"/>
				<path class="st6" d="M220.8,123.3l-2,1.1c-0.4,0.2-0.7,0.7-0.7,1.2c0,0.4,0.4,0.6,0.8,0.3l2-1.1c0.4-0.2,0.7-0.7,0.7-1.2
					C221.6,123.2,221.2,123.1,220.8,123.3z"/>
				<path class="st24" d="M220.8,123.3l-2,1.1c-0.4,0.2-0.7,0.7-0.7,1.2c0,0.4,0.4,0.6,0.8,0.3l2-1.1c0.4-0.2,0.7-0.7,0.7-1.2
					C221.6,123.2,221.2,123.1,220.8,123.3z"/>
				<path class="st6" d="M219.5,104.2l-2,1.1c-0.4,0.2-0.7,0.7-0.7,1.2c0,0.4,0.4,0.6,0.8,0.3l2-1.1c0.4-0.2,0.7-0.7,0.7-1.2
					C220.3,104.1,219.9,103.9,219.5,104.2z"/>
				<path class="st24" d="M219.5,104.2l-2,1.1c-0.4,0.2-0.7,0.7-0.7,1.2c0,0.4,0.4,0.6,0.8,0.3l2-1.1c0.4-0.2,0.7-0.7,0.7-1.2
					C220.3,104.1,219.9,103.9,219.5,104.2z"/>
				<path class="st6" d="M217.1,109.6l-2,1.1c-0.4,0.2-0.7,0.7-0.7,1.2c0,0.4,0.4,0.6,0.8,0.3l2-1.1c0.4-0.2,0.7-0.7,0.7-1.2
					C217.8,109.5,217.4,109.3,217.1,109.6z"/>
				<path class="st24" d="M217.1,109.6l-2,1.1c-0.4,0.2-0.7,0.7-0.7,1.2c0,0.4,0.4,0.6,0.8,0.3l2-1.1c0.4-0.2,0.7-0.7,0.7-1.2
					C217.8,109.5,217.4,109.3,217.1,109.6z"/>
				<path class="st6" d="M217.3,113.4l-2,1.1c-0.4,0.2-0.7,0.7-0.7,1.2c0,0.4,0.4,0.6,0.8,0.3l2-1.1c0.4-0.2,0.7-0.7,0.7-1.2
					C218.1,113.3,217.7,113.2,217.3,113.4z"/>
				<path class="st24" d="M217.3,113.4l-2,1.1c-0.4,0.2-0.7,0.7-0.7,1.2c0,0.4,0.4,0.6,0.8,0.3l2-1.1c0.4-0.2,0.7-0.7,0.7-1.2
					C218.1,113.3,217.7,113.2,217.3,113.4z"/>
				<path class="st6" d="M220.3,115.7l-2,1.1c-0.4,0.2-0.7,0.7-0.7,1.2c0,0.4,0.4,0.6,0.8,0.3l2-1.1c0.4-0.2,0.7-0.7,0.7-1.2
					C221.1,115.5,220.7,115.4,220.3,115.7z"/>
				<path class="st24" d="M220.3,115.7l-2,1.1c-0.4,0.2-0.7,0.7-0.7,1.2c0,0.4,0.4,0.6,0.8,0.3l2-1.1c0.4-0.2,0.7-0.7,0.7-1.2
					C221.1,115.5,220.7,115.4,220.3,115.7z"/>
				<path class="st6" d="M217.8,121.1l-2,1.1c-0.4,0.2-0.6,0.7-0.6,1.2c0,0.4,0.4,0.6,0.8,0.3l2-1.1c0.4-0.2,0.7-0.7,0.7-1.2
					C218.6,121,218.2,120.8,217.8,121.1z"/>
				<path class="st24" d="M217.8,121.1l-2,1.1c-0.4,0.2-0.6,0.7-0.6,1.2c0,0.4,0.4,0.6,0.8,0.3l2-1.1c0.4-0.2,0.7-0.7,0.7-1.2
					C218.6,121,218.2,120.8,217.8,121.1z"/>
				<path class="st6" d="M214.2,107.2l-11.8,6.8c-0.4,0.2-0.7,0.7-0.7,1.2c0,0.4,0.4,0.6,0.8,0.3l11.8-6.8c0.4-0.2,0.7-0.7,0.7-1.2
					C214.9,107.2,214.6,107,214.2,107.2z"/>
				<path class="st11" d="M214.2,107.2l-11.8,6.8c-0.4,0.2-0.7,0.7-0.7,1.2c0,0.4,0.4,0.6,0.8,0.3l11.8-6.8c0.4-0.2,0.7-0.7,0.7-1.2
					C214.9,107.2,214.6,107,214.2,107.2z"/>
				<path class="st6" d="M215.5,126.4l-11.8,6.8c-0.4,0.2-0.7,0.7-0.7,1.2c0,0.4,0.4,0.6,0.8,0.3l11.8-6.8c0.4-0.2,0.7-0.7,0.7-1.2
					C216.2,126.3,215.9,126.2,215.5,126.4z"/>
				<path class="st11" d="M215.5,126.4l-11.8,6.8c-0.4,0.2-0.7,0.7-0.7,1.2c0,0.4,0.4,0.6,0.8,0.3l11.8-6.8c0.4-0.2,0.7-0.7,0.7-1.2
					C216.2,126.3,215.9,126.2,215.5,126.4z"/>
				<path class="st6" d="M211.7,112.6l-9.1,5.3c-0.4,0.2-0.7,0.7-0.7,1.2c0,0.4,0.4,0.6,0.8,0.3l9.1-5.3c0.4-0.2,0.7-0.7,0.7-1.2
					C212.5,112.5,212.1,112.4,211.7,112.6z"/>
				<path class="st11" d="M211.7,112.6l-9.1,5.3c-0.4,0.2-0.7,0.7-0.7,1.2c0,0.4,0.4,0.6,0.8,0.3l9.1-5.3c0.4-0.2,0.7-0.7,0.7-1.2
					C212.5,112.5,212.1,112.4,211.7,112.6z"/>
				<path class="st6" d="M212,116.5l-9.1,5.3c-0.4,0.2-0.7,0.7-0.7,1.2c0,0.4,0.4,0.6,0.8,0.3l9.1-5.3c0.4-0.2,0.7-0.7,0.7-1.2
					C212.7,116.4,212.4,116.2,212,116.5z"/>
				<path class="st11" d="M212,116.5l-9.1,5.3c-0.4,0.2-0.7,0.7-0.7,1.2c0,0.4,0.4,0.6,0.8,0.3l9.1-5.3c0.4-0.2,0.7-0.7,0.7-1.2
					C212.7,116.4,212.4,116.2,212,116.5z"/>
				<path class="st6" d="M215,118.7l-11.8,6.8c-0.4,0.2-0.7,0.7-0.7,1.2c0,0.4,0.4,0.6,0.8,0.3l11.8-6.8c0.4-0.2,0.7-0.7,0.7-1.2
					C215.7,118.7,215.4,118.5,215,118.7z"/>
				<path class="st11" d="M215,118.7l-11.8,6.8c-0.4,0.2-0.7,0.7-0.7,1.2c0,0.4,0.4,0.6,0.8,0.3l11.8-6.8c0.4-0.2,0.7-0.7,0.7-1.2
					C215.7,118.7,215.4,118.5,215,118.7z"/>
				<path class="st6" d="M212.5,124.1l-9.1,5.3c-0.4,0.2-0.7,0.7-0.7,1.2c0,0.4,0.4,0.6,0.8,0.3l9.1-5.3c0.4-0.2,0.7-0.7,0.7-1.2
					C213.3,124,212.9,123.9,212.5,124.1z"/>
				<path class="st11" d="M212.5,124.1l-9.1,5.3c-0.4,0.2-0.7,0.7-0.7,1.2c0,0.4,0.4,0.6,0.8,0.3l9.1-5.3c0.4-0.2,0.7-0.7,0.7-1.2
					C213.3,124,212.9,123.9,212.5,124.1z"/>
			</g>
			<path class="st6" d="M130.1,151l21.1-12.2c0.3-0.2,0.6-0.1,0.6,0.2c0,0.4-0.2,0.7-0.5,0.9l-21.1,12.2c-0.3,0.2-0.6,0.1-0.6-0.2
				C129.6,151.5,129.8,151.1,130.1,151z"/>
			<path class="st6" d="M131,164.4l62.1-35.8c0.3-0.2,0.6-0.1,0.6,0.2c0,0.4-0.2,0.7-0.5,0.9L131,165.5c-0.3,0.2-0.6,0.1-0.6-0.2
				C130.5,164.9,130.6,164.6,131,164.4z"/>
			<path class="st6" d="M153.2,137.6l39.2-22.6c0.3-0.2,0.6-0.1,0.6,0.2c0,0.4-0.2,0.7-0.5,0.9l-39.2,22.6c-0.3,0.2-0.6,0.1-0.6-0.2
				C152.7,138.1,152.9,137.8,153.2,137.6z"/>
			<path class="st6" d="M130.3,154.2L141,148c0.3-0.2,0.6-0.1,0.6,0.2c0,0.4-0.2,0.7-0.5,0.9l-10.7,6.2c-0.3,0.2-0.6,0.1-0.6-0.2
				C129.7,154.7,130,154.3,130.3,154.2z"/>
			<path class="st24" d="M130.3,154.2L141,148c0.3-0.2,0.6-0.1,0.6,0.2c0,0.4-0.2,0.7-0.5,0.9l-10.7,6.2c-0.3,0.2-0.6,0.1-0.6-0.2
				C129.7,154.7,130,154.3,130.3,154.2z"/>
			<path class="st6" d="M130.5,157.3l6.4-3.7c0.3-0.2,0.6-0.1,0.6,0.2c0,0.4-0.2,0.7-0.5,0.9l-6.4,3.7c-0.3,0.2-0.6,0.1-0.6-0.2
				C130,157.8,130.2,157.5,130.5,157.3z"/>
			<path class="st24" d="M130.5,157.3l6.4-3.7c0.3-0.2,0.6-0.1,0.6,0.2c0,0.4-0.2,0.7-0.5,0.9l-6.4,3.7c-0.3,0.2-0.6,0.1-0.6-0.2
				C130,157.8,130.2,157.5,130.5,157.3z"/>
			<path class="st6" d="M143.1,146.7l37.2-21.4c0.3-0.2,0.6-0.1,0.6,0.2c0,0.4-0.2,0.7-0.5,0.9l-37.2,21.5c-0.3,0.2-0.6,0.1-0.6-0.2
				C142.6,147.3,142.8,146.9,143.1,146.7z"/>
			<path class="st24" d="M143.1,146.7l37.2-21.4c0.3-0.2,0.6-0.1,0.6,0.2c0,0.4-0.2,0.7-0.5,0.9l-37.2,21.5
				c-0.3,0.2-0.6,0.1-0.6-0.2C142.6,147.3,142.8,146.9,143.1,146.7z"/>
			<path class="st25" d="M137.1,171.7l56.8-32.8c0.3-0.2,0.6-0.1,0.6,0.2c0,0.4-0.2,0.7-0.5,0.9l-56.8,32.8
				c-0.3,0.2-0.6,0.1-0.6-0.2C136.6,172.2,136.8,171.9,137.1,171.7z"/>
			<path class="st25" d="M136.9,168.5l56.8-32.8c0.3-0.2,0.6-0.1,0.6,0.2c0,0.4-0.2,0.7-0.5,0.9L137,169.6c-0.3,0.2-0.6,0.1-0.6-0.2
				C136.4,169,136.6,168.7,136.9,168.5z"/>
			<path class="st6" d="M138.6,152.7l10.6-6.1c0.3-0.2,0.6-0.1,0.6,0.2c0,0.4-0.2,0.7-0.5,0.9l-10.6,6.1c-0.3,0.2-0.6,0.1-0.6-0.2
				C138.1,153.2,138.3,152.8,138.6,152.7z"/>
			<path class="st24" d="M138.6,152.7l10.6-6.1c0.3-0.2,0.6-0.1,0.6,0.2c0,0.4-0.2,0.7-0.5,0.9l-10.6,6.1c-0.3,0.2-0.6,0.1-0.6-0.2
				C138.1,153.2,138.3,152.8,138.6,152.7z"/>
			<path class="st6" d="M151.3,145.3l41.3-23.7c0.3-0.2,0.6-0.1,0.6,0.2c0,0.4-0.2,0.7-0.5,0.9l-41.3,23.7c-0.3,0.2-0.6,0.1-0.6-0.2
				C150.8,145.9,151,145.5,151.3,145.3z"/>
			<path class="st24" d="M151.3,145.3l41.3-23.7c0.3-0.2,0.6-0.1,0.6,0.2c0,0.4-0.2,0.7-0.5,0.9l-41.3,23.7
				c-0.3,0.2-0.6,0.1-0.6-0.2C150.8,145.9,151,145.5,151.3,145.3z"/>
			<path class="st6" d="M130.7,160.7l18.7-10.7c0.3-0.2,0.6-0.1,0.6,0.2c0,0.4-0.2,0.7-0.5,0.9l-18.7,10.7c-0.3,0.2-0.6,0.1-0.6-0.2
				C130.2,161.2,130.4,160.9,130.7,160.7z"/>
			<path class="st24" d="M130.7,160.7l18.7-10.7c0.3-0.2,0.6-0.1,0.6,0.2c0,0.4-0.2,0.7-0.5,0.9l-18.7,10.7
				c-0.3,0.2-0.6,0.1-0.6-0.2C130.2,161.2,130.4,160.9,130.7,160.7z"/>
			<path class="st6" d="M151.5,148.8l41.3-23.7c0.3-0.2,0.6-0.1,0.6,0.2c0,0.4-0.2,0.7-0.5,0.9l-41.3,23.7c-0.3,0.2-0.6,0.1-0.6-0.2
				C151,149.3,151.2,148.9,151.5,148.8z"/>
			<path class="st24" d="M151.5,148.8l41.3-23.7c0.3-0.2,0.6-0.1,0.6,0.2c0,0.4-0.2,0.7-0.5,0.9l-41.3,23.7
				c-0.3,0.2-0.6,0.1-0.6-0.2C151,149.3,151.2,148.9,151.5,148.8z"/>
			<path class="st26" d="M137.3,174.9l56.8-32.8c0.3-0.2,0.6-0.1,0.6,0.2c0,0.4-0.2,0.7-0.5,0.9L137.4,176c-0.3,0.2-0.6,0.1-0.6-0.2
				C136.8,175.4,137,175.1,137.3,174.9z"/>
			<path class="st26" d="M137.5,178.1l56.8-32.8c0.3-0.2,0.6-0.1,0.6,0.2c0,0.4-0.2,0.7-0.5,0.9l-56.8,32.8
				c-0.3,0.2-0.6,0.1-0.6-0.2C137,178.6,137.2,178.3,137.5,178.1z"/>
			<path class="st26" d="M137.8,181.3l56.8-32.8c0.3-0.2,0.6-0.1,0.6,0.2c0,0.4-0.2,0.7-0.5,0.9l-56.8,32.8
				c-0.3,0.2-0.6,0.1-0.6-0.2C137.3,181.8,137.5,181.5,137.8,181.3z"/>
			<path class="st6" d="M138,185.5l56.8-32.7c0.3-0.2,0.6-0.1,0.6,0.2c0,0.4-0.2,0.7-0.5,0.9l-56.8,32.7c-0.3,0.2-0.6,0.1-0.6-0.2
				C137.6,186,137.7,185.7,138,185.5z"/>
			<path class="st6" d="M132.6,188.7l2.5-1.4c0.3-0.2,0.6-0.1,0.6,0.2c0,0.4-0.2,0.7-0.5,0.9l-2.5,1.4c-0.3,0.2-0.6,0.1-0.6-0.2
				C132.1,189.2,132.3,188.9,132.6,188.7z"/>
			<path class="st24" d="M132.6,188.7l2.5-1.4c0.3-0.2,0.6-0.1,0.6,0.2c0,0.4-0.2,0.7-0.5,0.9l-2.5,1.4c-0.3,0.2-0.6,0.1-0.6-0.2
				C132.1,189.2,132.3,188.9,132.6,188.7z"/>
			<path class="st6" d="M131.4,171.2l2.5-1.4c0.3-0.2,0.6-0.1,0.6,0.2c0,0.4-0.2,0.7-0.5,0.9l-2.5,1.4c-0.3,0.2-0.6,0.1-0.6-0.2
				C130.9,171.7,131.1,171.4,131.4,171.2z"/>
			<path class="st24" d="M131.4,171.2l2.5-1.4c0.3-0.2,0.6-0.1,0.6,0.2c0,0.4-0.2,0.7-0.5,0.9l-2.5,1.4c-0.3,0.2-0.6,0.1-0.6-0.2
				C130.9,171.7,131.1,171.4,131.4,171.2z"/>
			<path class="st6" d="M131.9,178.1l2.5-1.4c0.3-0.2,0.6-0.1,0.6,0.2c0,0.4-0.2,0.7-0.5,0.9l-2.5,1.4c-0.3,0.2-0.6,0.1-0.6-0.2
				C131.4,178.6,131.6,178.3,131.9,178.1z"/>
			<path class="st24" d="M131.9,178.1l2.5-1.4c0.3-0.2,0.6-0.1,0.6,0.2c0,0.4-0.2,0.7-0.5,0.9l-2.5,1.4c-0.3,0.2-0.6,0.1-0.6-0.2
				C131.4,178.6,131.6,178.3,131.9,178.1z"/>
			<path class="st6" d="M132.1,181.3l2.5-1.4c0.3-0.2,0.6-0.1,0.6,0.2c0,0.4-0.2,0.7-0.5,0.9l-2.5,1.4c-0.3,0.2-0.6,0.1-0.6-0.2
				C131.6,181.8,131.8,181.5,132.1,181.3z"/>
			<path class="st24" d="M132.1,181.3l2.5-1.4c0.3-0.2,0.6-0.1,0.6,0.2c0,0.4-0.2,0.7-0.5,0.9l-2.5,1.4c-0.3,0.2-0.6,0.1-0.6-0.2
				C131.6,181.8,131.8,181.5,132.1,181.3z"/>
			<path class="st6" d="M132.4,184.4l2.5-1.4c0.3-0.2,0.6-0.1,0.6,0.2c0,0.4-0.2,0.7-0.5,0.9l-2.6,1.4c-0.3,0.2-0.6,0.1-0.6-0.2
				C131.8,184.9,132,184.6,132.4,184.4z"/>
			<path class="st24" d="M132.4,184.4l2.5-1.4c0.3-0.2,0.6-0.1,0.6,0.2c0,0.4-0.2,0.7-0.5,0.9l-2.6,1.4c-0.3,0.2-0.6,0.1-0.6-0.2
				C131.8,184.9,132,184.6,132.4,184.4z"/>
			<path class="st6" d="M132.8,191.5l2.5-1.4c0.3-0.2,0.6-0.1,0.6,0.2c0,0.4-0.2,0.7-0.5,0.9l-2.5,1.4c-0.3,0.2-0.6,0.1-0.6-0.2
				C132.3,192,132.5,191.7,132.8,191.5z"/>
			<path class="st24" d="M132.8,191.5l2.5-1.4c0.3-0.2,0.6-0.1,0.6,0.2c0,0.4-0.2,0.7-0.5,0.9l-2.5,1.4c-0.3,0.2-0.6,0.1-0.6-0.2
				C132.3,192,132.5,191.7,132.8,191.5z"/>
			<path class="st25" d="M138.2,188.4l56.8-32.8c0.3-0.2,0.6-0.1,0.6,0.2c0,0.4-0.2,0.7-0.5,0.9l-56.8,32.8
				c-0.3,0.2-0.6,0.1-0.6-0.2C137.7,188.9,137.9,188.6,138.2,188.4z"/>
			<path class="st6" d="M139.9,209.2l15.3-8.8c0.3-0.2,0.6-0.1,0.6,0.2c0,0.4-0.2,0.7-0.5,0.9l-15.3,8.8c-0.3,0.2-0.6,0.1-0.6-0.2
				C139.4,209.7,139.6,209.3,139.9,209.2z"/>
			<path class="st6" d="M134.2,212.4l2.5-1.4c0.3-0.2,0.6-0.1,0.6,0.2c0,0.4-0.2,0.7-0.5,0.9l-2.5,1.4c-0.3,0.2-0.6,0.1-0.6-0.2
				C133.7,212.9,133.9,212.6,134.2,212.4z"/>
			<path class="st24" d="M134.2,212.4l2.5-1.4c0.3-0.2,0.6-0.1,0.6,0.2c0,0.4-0.2,0.7-0.5,0.9l-2.5,1.4c-0.3,0.2-0.6,0.1-0.6-0.2
				C133.7,212.9,133.9,212.6,134.2,212.4z"/>
			<path class="st6" d="M134.4,215.3l2.5-1.4c0.3-0.2,0.6-0.1,0.6,0.2c0,0.4-0.2,0.7-0.5,0.9l-2.5,1.4c-0.3,0.2-0.6,0.1-0.6-0.2
				C133.9,215.8,134.1,215.4,134.4,215.3z"/>
			<path class="st24" d="M134.4,215.3l2.5-1.4c0.3-0.2,0.6-0.1,0.6,0.2c0,0.4-0.2,0.7-0.5,0.9l-2.5,1.4c-0.3,0.2-0.6,0.1-0.6-0.2
				C133.9,215.8,134.1,215.4,134.4,215.3z"/>
			<path class="st25" d="M140.2,211.9l56.3-32.5c0.3-0.2,0.6-0.1,0.6,0.2c0,0.4-0.2,0.7-0.5,0.9L140.2,213c-0.3,0.2-0.6,0.1-0.6-0.2
				C139.6,212.4,139.8,212,140.2,211.9z"/>
			<path class="st6" d="M138.8,195.2l56.7-32.7c0.3-0.2,0.6-0.1,0.6,0.2c0,0.4-0.2,0.7-0.5,0.9l-56.7,32.7c-0.3,0.2-0.6,0.1-0.6-0.2
				C138.3,195.7,138.5,195.4,138.8,195.2z"/>
			<path class="st6" d="M133.3,198.4l2.5-1.4c0.3-0.2,0.6-0.1,0.6,0.2c0,0.4-0.2,0.7-0.5,0.9l-2.5,1.4c-0.3,0.2-0.6,0.1-0.6-0.2
				C132.8,198.9,133,198.6,133.3,198.4z"/>
			<path class="st24" d="M133.3,198.4l2.5-1.4c0.3-0.2,0.6-0.1,0.6,0.2c0,0.4-0.2,0.7-0.5,0.9l-2.5,1.4c-0.3,0.2-0.6,0.1-0.6-0.2
				C132.8,198.9,133,198.6,133.3,198.4z"/>
			<path class="st6" d="M139,198.4l56.7-32.7c0.3-0.2,0.6-0.1,0.6,0.2c0,0.4-0.2,0.7-0.5,0.9l-56.7,32.7c-0.3,0.2-0.6,0.1-0.6-0.2
				C138.5,198.9,138.7,198.5,139,198.4z"/>
			<path class="st6" d="M133.5,201.6l2.5-1.4c0.3-0.2,0.6-0.1,0.6,0.2c0,0.4-0.2,0.7-0.5,0.9l-2.5,1.4c-0.3,0.2-0.6,0.1-0.6-0.2
				C133,202.1,133.2,201.7,133.5,201.6z"/>
			<path class="st24" d="M133.5,201.6l2.5-1.4c0.3-0.2,0.6-0.1,0.6,0.2c0,0.4-0.2,0.7-0.5,0.9l-2.5,1.4c-0.3,0.2-0.6,0.1-0.6-0.2
				C133,202.1,133.2,201.7,133.5,201.6z"/>
			<path class="st26" d="M139.2,201.6l56.7-32.7c0.3-0.2,0.6-0.1,0.6,0.2c0,0.4-0.2,0.7-0.5,0.9l-56.7,32.7
				c-0.3,0.2-0.6,0.1-0.6-0.2C138.7,202.1,138.9,201.7,139.2,201.6z"/>
			<path class="st6" d="M133.7,204.7l2.5-1.4c0.3-0.2,0.6-0.1,0.6,0.2c0,0.4-0.2,0.7-0.5,0.9l-2.5,1.4c-0.3,0.2-0.6,0.1-0.6-0.2
				C133.2,205.3,133.4,204.9,133.7,204.7z"/>
			<path class="st24" d="M133.7,204.7l2.5-1.4c0.3-0.2,0.6-0.1,0.6,0.2c0,0.4-0.2,0.7-0.5,0.9l-2.5,1.4c-0.3,0.2-0.6,0.1-0.6-0.2
				C133.2,205.3,133.4,204.9,133.7,204.7z"/>
		</g>
	</g>
	<g id="Text_Box">
		<g id="Text_Box-2">
			<path id="Shadow-4" class="st4" d="M71.3,128.4l-33.6,19.4c-0.5,0.3-0.8,0.9-0.8,1.4V168c0,0.5,0.4,0.8,0.8,0.5l33.6-19.4
				c0.5-0.3,0.8-0.9,0.8-1.4v-18.8C72.2,128.4,71.8,128.2,71.3,128.4z"/>
			<g id="Box-2">
				<g id="Speech_Bubble">
					<g id="Speach_Bubble">
						<path class="st6" d="M75.2,130.4l-33.6,19.4c-0.5,0.3-0.8,0.9-0.8,1.4V170c0,0.6,0.3,1.1,0.8,1.4l3.3,1.9
							c0.5,0.3,1.1,0.3,1.7,0l33.6-19.4c0.5-0.3,0.8-0.9,0.8-1.4v-18.8c0-0.6-0.3-1.1-0.8-1.4l-3.3-1.9
							C76.4,130.1,75.8,130.1,75.2,130.4z"/>
						<path class="st27" d="M75.2,130.4l-33.6,19.4c-0.5,0.3-0.8,0.9-0.8,1.4V170c0,0.6,0.3,1.1,0.8,1.4l3.3,1.9
							c0.5,0.3,1.1,0.3,1.7,0l33.6-19.4c0.5-0.3,0.8-0.9,0.8-1.4v-18.8c0-0.6-0.3-1.1-0.8-1.4l-3.3-1.9
							C76.4,130.1,75.8,130.1,75.2,130.4z"/>
						<path class="st6" d="M81.1,133.6c-0.1-0.4-0.4-0.6-0.8-0.3l-33.6,19.3c-0.2,0.2-0.4,0.4-0.6,0.6l-5-2.9
							c0.1-0.2,0.3-0.5,0.6-0.6l33.6-19.4c0.5-0.3,1.1-0.3,1.7,0l3.3,1.9C80.7,132.6,81,133.1,81.1,133.6z"/>
						<path class="st6" d="M80.2,133.3l-33.6,19.3c-0.5,0.3-0.8,0.9-0.8,1.4v18.8c0,0.5,0.4,0.8,0.8,0.5l33.6-19.4
							c0.5-0.3,0.8-0.9,0.8-1.4v-18.8C81.1,133.2,80.7,133,80.2,133.3z"/>
						<g class="st16">
							<path d="M80.2,133.3l-33.6,19.3c-0.5,0.3-0.8,0.9-0.8,1.4v18.8c0,0.5,0.4,0.8,0.8,0.5l33.6-19.4c0.5-0.3,0.8-0.9,0.8-1.4
								v-18.8C81.1,133.2,80.7,133,80.2,133.3z"/>
						</g>
						<polygon class="st9" points="56,152.9 56,156.6 53.1,158.3 53.1,154.6 51.7,155.4 51.8,164.8 53.2,164 53.2,159.8 56.1,158.2 
							56.1,162.3 57.5,161.5 57.4,152.1 						"/>
						<polygon class="st9" points="63.3,148.7 57.7,152 57.7,153.5 59.8,152.3 59.9,160.1 61.3,159.3 61.2,151.5 63.4,150.2 						
							"/>
						<path class="st9" d="M69,145.4l-1.2,5.1c-0.2,1-0.4,1.7-0.5,2.4c-0.1-0.5-0.3-1-0.5-1.6l-1.3-3.9l-1.5,0.9l-0.4,9.7l1.4-0.8
							l0.1-4c0-0.8,0-1.6,0.1-2.3c0.1,0.4,0.3,0.8,0.4,1.3l1.3,3.8l1-0.6l1.2-5.1c0.2-0.7,0.3-1.4,0.4-2c0,0.6,0.1,1.2,0.1,1.7h0.2
							h-0.2l0.3,4.2l1.4-0.8l-0.6-9.1L69,145.4z"/>
						<polygon class="st9" points="76.5,149.1 73.5,150.8 73.4,143 72,143.8 72.1,153.1 76.5,150.6 						"/>
					</g>
				</g>
			</g>
		</g>
		<g id="Text_Box-3">
			<path id="Shadow-5" class="st4" d="M71.3,167.4l-33.6,19.4c-0.5,0.3-0.8,0.9-0.8,1.4V207c0,0.5,0.4,0.8,0.8,0.5l33.6-19.4
				c0.5-0.3,0.8-0.9,0.8-1.4v-18.8C72.2,167.4,71.8,167.2,71.3,167.4z"/>
			<g id="Box-3">
				<g id="Speech_Bubble-2">
					<g id="Speach_Bubble-2">
						<path class="st6" d="M75.2,169.4l-33.6,19.4c-0.5,0.3-0.8,0.9-0.8,1.4V209c0,0.6,0.3,1.1,0.8,1.4l3.3,1.9
							c0.5,0.3,1.1,0.3,1.7,0l33.6-19.4c0.5-0.3,0.8-0.9,0.8-1.4v-18.8c0-0.6-0.3-1.1-0.8-1.4l-3.3-1.9
							C76.4,169.1,75.8,169.1,75.2,169.4z"/>
						<path class="st27" d="M75.2,169.4l-33.6,19.4c-0.5,0.3-0.8,0.9-0.8,1.4V209c0,0.6,0.3,1.1,0.8,1.4l3.3,1.9
							c0.5,0.3,1.1,0.3,1.7,0l33.6-19.4c0.5-0.3,0.8-0.9,0.8-1.4v-18.8c0-0.6-0.3-1.1-0.8-1.4l-3.3-1.9
							C76.4,169.1,75.8,169.1,75.2,169.4z"/>
						<path class="st6" d="M81.1,172.6c-0.1-0.4-0.4-0.6-0.8-0.3l-33.6,19.4c-0.2,0.2-0.4,0.4-0.6,0.6l-5-2.9
							c0.1-0.2,0.3-0.5,0.6-0.6l33.6-19.4c0.5-0.3,1.1-0.3,1.7,0l3.3,1.9C80.7,171.6,81,172,81.1,172.6z"/>
						<path class="st6" d="M80.2,172.2l-33.6,19.4c-0.5,0.3-0.8,0.9-0.8,1.4v18.8c0,0.5,0.4,0.8,0.8,0.5l33.6-19.4
							c0.5-0.3,0.8-0.9,0.8-1.4v-18.8C81.1,172.2,80.7,172,80.2,172.2z"/>
						<g class="st16">
							<path d="M80.2,172.2l-33.6,19.4c-0.5,0.3-0.8,0.9-0.8,1.4v18.8c0,0.5,0.4,0.8,0.8,0.5l33.6-19.4c0.5-0.3,0.8-0.9,0.8-1.4
								v-18.8C81.1,172.2,80.7,172,80.2,172.2z"/>
						</g>
					</g>
				</g>
				<g class="st28">
					<path class="st9" d="M60.5,195.4l1.4-0.2c-0.2,1.2-0.5,2.1-1,2.9c-0.5,0.8-1.1,1.4-1.9,1.8c-1,0.5-1.8,0.5-2.4,0
						c-0.6-0.5-1-1.6-1.1-3.1c-0.1-1.6,0.2-3,0.8-4.2c0.6-1.2,1.4-2.1,2.4-2.6c0.9-0.5,1.6-0.5,2.2-0.1c0.3,0.2,0.6,0.7,0.8,1.4
						l-1.4,1.2c-0.1-0.4-0.3-0.7-0.6-0.9c-0.3-0.1-0.6-0.1-1,0.1c-0.5,0.3-1,0.8-1.3,1.5c-0.3,0.7-0.4,1.6-0.4,2.7
						c0,1.2,0.2,2,0.6,2.3c0.3,0.3,0.8,0.4,1.3,0.1c0.4-0.2,0.7-0.5,1-1C60.3,196.8,60.5,196.2,60.5,195.4z"/>
					<path class="st9" d="M62.8,194.6l1.4-0.9c0.1,0.6,0.3,1,0.6,1.1c0.3,0.2,0.6,0.1,1.1-0.1c0.5-0.2,0.8-0.6,1-1
						c0.2-0.4,0.3-0.8,0.3-1.1c0-0.2-0.1-0.4-0.2-0.5c-0.1-0.1-0.3-0.1-0.5-0.1c-0.2,0-0.6,0.1-1.2,0.2c-0.8,0.2-1.3,0.1-1.7-0.1
						c-0.5-0.3-0.7-0.8-0.7-1.6c0-0.5,0.1-1,0.3-1.5c0.2-0.5,0.5-1,0.9-1.4c0.4-0.4,0.8-0.8,1.4-1.1c0.9-0.5,1.6-0.6,2.1-0.3
						c0.5,0.3,0.7,0.9,0.8,1.7l-1.4,0.9c-0.1-0.5-0.2-0.7-0.4-0.8s-0.5-0.1-0.9,0.2c-0.4,0.2-0.7,0.5-1,0.9
						c-0.1,0.2-0.2,0.5-0.2,0.7c0,0.2,0.1,0.4,0.2,0.5c0.2,0.1,0.6,0.1,1.4-0.1c0.7-0.2,1.2-0.2,1.6-0.1c0.3,0.1,0.6,0.2,0.8,0.5
						c0.2,0.3,0.3,0.8,0.3,1.4c0,0.5-0.1,1.1-0.3,1.7c-0.2,0.6-0.5,1.1-0.9,1.6c-0.4,0.5-0.9,0.8-1.5,1.2c-0.9,0.5-1.6,0.6-2.1,0.3
						C63.3,196.3,63,195.6,62.8,194.6z"/>
					<path class="st9" d="M69.5,191.1l1.4-0.9c0.1,0.6,0.3,1,0.6,1.1c0.3,0.2,0.6,0.1,1.1-0.1c0.5-0.2,0.8-0.6,1-1
						c0.2-0.4,0.3-0.8,0.3-1.1c0-0.2-0.1-0.4-0.2-0.5c-0.1-0.1-0.3-0.1-0.5-0.1c-0.2,0-0.6,0.1-1.2,0.2c-0.8,0.2-1.3,0.1-1.7-0.1
						c-0.5-0.3-0.7-0.8-0.7-1.6c0-0.5,0.1-1,0.3-1.5c0.2-0.5,0.5-1,0.9-1.4c0.4-0.4,0.8-0.8,1.4-1.1c0.9-0.5,1.6-0.6,2.1-0.3
						c0.5,0.3,0.7,0.9,0.8,1.7l-1.4,0.9c-0.1-0.5-0.2-0.7-0.4-0.8s-0.5-0.1-0.9,0.2c-0.4,0.2-0.7,0.5-1,0.9
						c-0.1,0.2-0.2,0.5-0.2,0.7c0,0.2,0.1,0.4,0.2,0.5c0.2,0.1,0.6,0.1,1.4-0.1c0.7-0.2,1.2-0.2,1.6-0.1c0.3,0.1,0.6,0.2,0.8,0.5
						c0.2,0.3,0.3,0.8,0.3,1.4c0,0.5-0.1,1.1-0.3,1.7c-0.2,0.6-0.5,1.1-0.9,1.6c-0.4,0.5-0.9,0.8-1.5,1.2c-0.9,0.5-1.6,0.6-2.1,0.3
						C70,192.7,69.6,192.1,69.5,191.1z"/>
				</g>
			</g>
		</g>
		<g id="Text_Box-4">
			<path id="Shadow-6" class="st4" d="M71.3,206.4l-33.6,19.3c-0.5,0.3-0.8,0.9-0.8,1.4v18.8c0,0.5,0.4,0.8,0.8,0.5l33.6-19.3
				c0.5-0.3,0.8-0.9,0.8-1.4v-18.8C72.2,206.4,71.8,206.1,71.3,206.4z"/>
			<g id="Box-4">
				<g id="Speech_Bubble-3">
					<g id="Speach_Bubble-3">
						<path class="st6" d="M75.2,208.4l-33.6,19.4c-0.5,0.3-0.8,0.9-0.8,1.4V248c0,0.6,0.3,1.1,0.8,1.4l3.3,1.9
							c0.5,0.3,1.1,0.3,1.7,0l33.6-19.4c0.5-0.3,0.8-0.9,0.8-1.4v-18.8c0-0.6-0.3-1.1-0.8-1.4l-3.3-1.9
							C76.4,208.1,75.8,208.1,75.2,208.4z"/>
						<path class="st27" d="M75.2,208.4l-33.6,19.4c-0.5,0.3-0.8,0.9-0.8,1.4V248c0,0.6,0.3,1.1,0.8,1.4l3.3,1.9
							c0.5,0.3,1.1,0.3,1.7,0l33.6-19.4c0.5-0.3,0.8-0.9,0.8-1.4v-18.8c0-0.6-0.3-1.1-0.8-1.4l-3.3-1.9
							C76.4,208.1,75.8,208.1,75.2,208.4z"/>
						<path class="st6" d="M81.1,211.6c-0.1-0.4-0.4-0.6-0.8-0.3l-33.6,19.4c-0.2,0.2-0.4,0.4-0.6,0.6l-5-2.9
							c0.1-0.2,0.3-0.5,0.6-0.6l33.6-19.4c0.5-0.3,1.1-0.3,1.7,0l3.3,1.9C80.7,210.6,81,211,81.1,211.6z"/>
						<path class="st6" d="M80.2,211.2l-33.6,19.4c-0.5,0.3-0.8,0.9-0.8,1.4v18.8c0,0.5,0.4,0.8,0.8,0.5l33.6-19.4
							c0.5-0.3,0.8-0.9,0.8-1.4v-18.8C81.1,211.2,80.7,211,80.2,211.2z"/>
						<g class="st16">
							<path d="M80.2,211.2l-33.6,19.4c-0.5,0.3-0.8,0.9-0.8,1.4v18.8c0,0.5,0.4,0.8,0.8,0.5l33.6-19.4c0.5-0.3,0.8-0.9,0.8-1.4
								v-18.8C81.1,211.2,80.7,211,80.2,211.2z"/>
						</g>
					</g>
				</g>
			</g>
			<g class="st28">
				<path class="st9" d="M63,226.7l1.4-0.8l0.2,6c0,0.8,0,1.4-0.1,1.9c-0.1,0.6-0.4,1.2-0.7,1.7c-0.4,0.5-0.8,1-1.4,1.3
					c-0.7,0.4-1.3,0.4-1.7,0.1c-0.4-0.3-0.6-1-0.7-2l1.4-0.9c0,0.5,0.1,0.9,0.2,1.1c0.2,0.3,0.4,0.3,0.7,0.1
					c0.3-0.2,0.5-0.4,0.7-0.7c0.1-0.3,0.2-0.9,0.1-1.6L63,226.7z"/>
				<path class="st9" d="M65.9,231.8l1.4-0.9c0.1,0.6,0.3,1,0.6,1.1c0.3,0.2,0.6,0.1,1.1-0.1c0.5-0.2,0.8-0.6,1-1s0.3-0.8,0.3-1.1
					c0-0.2-0.1-0.4-0.2-0.5c-0.1-0.1-0.3-0.1-0.5-0.1c-0.2,0-0.6,0.1-1.2,0.2c-0.8,0.2-1.3,0.1-1.7-0.1c-0.5-0.3-0.7-0.8-0.7-1.6
					c0-0.5,0.1-1,0.3-1.5c0.2-0.5,0.5-1,0.9-1.4c0.4-0.4,0.8-0.8,1.4-1.1c0.9-0.5,1.6-0.6,2.1-0.3c0.5,0.3,0.7,0.9,0.8,1.7l-1.4,0.9
					c-0.1-0.5-0.2-0.7-0.4-0.8c-0.2-0.1-0.5-0.1-0.9,0.2c-0.4,0.2-0.7,0.5-1,0.9c-0.1,0.2-0.2,0.5-0.2,0.7c0,0.2,0.1,0.4,0.2,0.5
					c0.2,0.1,0.6,0.1,1.4-0.1c0.7-0.2,1.2-0.2,1.6-0.1c0.3,0.1,0.6,0.2,0.8,0.5c0.2,0.3,0.3,0.8,0.3,1.4c0,0.5-0.1,1.1-0.3,1.7
					c-0.2,0.6-0.5,1.1-0.9,1.6c-0.4,0.5-0.9,0.8-1.5,1.2c-0.9,0.5-1.6,0.6-2.1,0.3C66.4,233.4,66,232.8,65.9,231.8z"/>
			</g>
		</g>
		<g id="Text_Box-5">
			<path id="Shadow-7" class="st4" d="M272.9,11.9l-33.6,19.4c-0.5,0.3-0.8,0.9-0.8,1.4v18.8c0,0.5,0.4,0.8,0.8,0.5l33.6-19.4
				c0.5-0.3,0.8-0.9,0.8-1.4V12.4C273.7,11.8,273.3,11.6,272.9,11.9z"/>
			<g id="Box-5">
				<g id="Speech_Bubble-4">
					<g id="Speach_Bubble-4">
						<path class="st6" d="M276.8,13.9l-33.6,19.4c-0.5,0.3-0.8,0.9-0.8,1.4v18.8c0,0.6,0.3,1.1,0.8,1.4l3.3,1.9
							c0.5,0.3,1.1,0.3,1.7,0l33.6-19.4c0.5-0.3,0.8-0.9,0.8-1.4V17.2c0-0.6-0.3-1.1-0.8-1.4l-3.3-1.9
							C277.9,13.6,277.3,13.6,276.8,13.9z"/>
						<path class="st27" d="M276.8,13.9l-33.6,19.4c-0.5,0.3-0.8,0.9-0.8,1.4v18.8c0,0.6,0.3,1.1,0.8,1.4l3.3,1.9
							c0.5,0.3,1.1,0.3,1.7,0l33.6-19.4c0.5-0.3,0.8-0.9,0.8-1.4V17.2c0-0.6-0.3-1.1-0.8-1.4l-3.3-1.9
							C277.9,13.6,277.3,13.6,276.8,13.9z"/>
						<path class="st6" d="M282.6,17.1c-0.1-0.4-0.4-0.6-0.8-0.3l-33.6,19.4c-0.2,0.2-0.4,0.4-0.6,0.6l-5-2.9
							c0.1-0.2,0.3-0.5,0.6-0.6l33.6-19.4c0.5-0.3,1.1-0.3,1.7,0l3.3,1.9C282.2,16.1,282.5,16.5,282.6,17.1z"/>
						<path class="st6" d="M281.8,16.7l-33.6,19.4c-0.5,0.3-0.8,0.9-0.8,1.4v18.8c0,0.5,0.4,0.8,0.8,0.5l33.6-19.4
							c0.5-0.3,0.8-0.9,0.8-1.4V17.2C282.6,16.7,282.2,16.5,281.8,16.7z"/>
						<g class="st16">
							<path d="M281.8,16.7l-33.6,19.4c-0.5,0.3-0.8,0.9-0.8,1.4v18.8c0,0.5,0.4,0.8,0.8,0.5l33.6-19.4c0.5-0.3,0.8-0.9,0.8-1.4
								V17.2C282.6,16.7,282.2,16.5,281.8,16.7z"/>
						</g>
					</g>
				</g>
			</g>
			<path class="st9" d="M253.2,38.5c0.6-0.5,1.3-1,2-1.4c1-0.6,1.7-0.8,2.2-0.5s0.6,0.7,0.6,1.6c-0.1,1.1-0.5,2.2-1.2,3l0,0
				c0.5,0,0.7,0.5,0.9,1.2c0.1,0.8,0.3,1.6,0.5,2.3l-1.6,0.9c-0.2-0.6-0.3-1.3-0.4-2c-0.1-1.1-0.4-1.2-1-0.9l-0.5,0.3l-0.1,3.7
				l-1.5,0.9L253.2,38.5z M254.6,41.7l0.6-0.3c0.7-0.4,1.2-1.2,1.2-2.1c0-0.9-0.4-1.1-1.1-0.7c-0.2,0.1-0.5,0.3-0.7,0.5L254.6,41.7z
				"/>
			<path class="st9" d="M260,40.9c0,0.8,0.6,0.9,1.3,0.5c0.5-0.3,1-0.6,1.4-1.1l0.2,1.3c-0.5,0.6-1.1,1.1-1.8,1.4
				c-1.7,1-2.6,0.2-2.5-2c0-1.7,0.9-4.1,2.6-5.1c1.7-1,2.1,0.4,2.1,2.1c0,0.3,0,0.6-0.1,0.9L260,40.9z M261.9,38.4
				c0-0.5-0.1-1.3-0.8-0.9c-0.6,0.5-1,1.2-1,2L261.9,38.4z"/>
			<path class="st9" d="M266.8,39.7l-0.1-0.6l0,0c-0.3,0.7-0.8,1.3-1.4,1.6c-1,0.6-1.6-0.1-1.5-1.2c0.2-1.8,1.3-3.5,2.9-4.3v-0.1
				c0-0.4-0.1-0.8-0.9-0.4c-0.5,0.3-1,0.8-1.4,1.3l-0.2-1.2c0.5-0.7,1.2-1.3,2-1.7c1.6-1,2.1,0.1,2.1,1.7l-0.1,2.4
				c0,0.5,0,1.1,0,1.6L266.8,39.7z M266.8,36.5c-0.8,0.3-1.3,1.1-1.5,2c0,0.5,0.2,0.7,0.6,0.5c0.4-0.3,0.7-0.7,0.8-1.2
				c0-0.1,0-0.3,0-0.4L266.8,36.5z"/>
			<path class="st9" d="M273,35.9c-0.4,0.4-0.9,0.8-1.4,1.1c-1.6,1-2.5,0.2-2.5-2c0-2.1,1.1-4.1,2.9-5.3c0.4-0.2,0.7-0.4,1.2-0.4
				l-0.3,1.7c-0.3,0-0.6,0.1-0.8,0.3c-0.9,0.6-1.4,1.6-1.4,2.7c0,1.3,0.5,1.6,1.3,1.1c0.3-0.2,0.6-0.4,0.9-0.7L273,35.9z"/>
			<path class="st9" d="M275.9,25.7l0,2l1.1-0.6l0,1.6l-1.1,0.6l-0.1,2.4c0,0.8,0.1,1.1,0.6,0.9c0.2-0.1,0.3-0.2,0.4-0.3v1.6
				c-0.3,0.3-0.6,0.5-1,0.8c-0.5,0.3-0.9,0.3-1.1,0.1c-0.2-0.2-0.4-0.8-0.4-1.8l0.1-2.8l-0.7,0.4l0-1.6l0.6-0.4V27L275.9,25.7z"/>
		</g>
		<g id="Text_Box-6">
			<path id="Shadow-8" class="st4" d="M272.9,50.9l-33.6,19.4c-0.5,0.3-0.8,0.9-0.8,1.4v18.8c0,0.5,0.4,0.8,0.8,0.5l33.6-19.4
				c0.5-0.3,0.8-0.9,0.8-1.4V51.4C273.7,50.8,273.3,50.6,272.9,50.9z"/>
			<g id="Box-6">
				<g id="Speech_Bubble-5">
					<g id="Speach_Bubble-5">
						<path class="st6" d="M276.8,52.8l-33.6,19.4c-0.5,0.3-0.8,0.9-0.8,1.4v18.8c0,0.6,0.3,1.1,0.8,1.4l3.3,1.9
							c0.5,0.3,1.1,0.3,1.7,0l33.6-19.4c0.5-0.3,0.8-0.9,0.8-1.4V56.2c0-0.6-0.3-1.1-0.8-1.4l-3.3-1.9
							C277.9,52.6,277.3,52.6,276.8,52.8z"/>
						<path class="st27" d="M276.8,52.8l-33.6,19.4c-0.5,0.3-0.8,0.9-0.8,1.4v18.8c0,0.6,0.3,1.1,0.8,1.4l3.3,1.9
							c0.5,0.3,1.1,0.3,1.7,0l33.6-19.4c0.5-0.3,0.8-0.9,0.8-1.4V56.2c0-0.6-0.3-1.1-0.8-1.4l-3.3-1.9
							C277.9,52.6,277.3,52.6,276.8,52.8z"/>
						<path class="st6" d="M282.5,56.1c-0.1-0.4-0.4-0.6-0.8-0.3l-33.6,19.4c-0.2,0.2-0.4,0.4-0.6,0.6l-5-2.9
							c0.1-0.2,0.3-0.5,0.6-0.6l33.6-19.4c0.5-0.3,1.1-0.3,1.7,0l3.3,1.9C282.2,55,282.5,55.5,282.5,56.1z"/>
						<path class="st6" d="M281.7,55.7L248.1,75c-0.5,0.3-0.8,0.9-0.8,1.4v18.8c0,0.5,0.4,0.8,0.8,0.5l33.6-19.4
							c0.5-0.3,0.8-0.9,0.8-1.4V56.2C282.6,55.6,282.2,55.4,281.7,55.7z"/>
						<g class="st16">
							<path d="M281.7,55.7L248.1,75c-0.5,0.3-0.8,0.9-0.8,1.4v18.8c0,0.5,0.4,0.8,0.8,0.5l33.6-19.4c0.5-0.3,0.8-0.9,0.8-1.4V56.2
								C282.6,55.6,282.2,55.4,281.7,55.7z"/>
						</g>
					</g>
				</g>
			</g>
			<path class="st9" d="M252,85.8l-0.2-7.9l1.6-0.9l1.3,2.2c0.4,0.7,0.8,1.4,1.1,2.1l0,0c-0.1-1-0.2-2-0.2-3.2l-0.1-2.3l1.2-0.7
				l0.2,7.9l-1.4,0.8l-1.4-2.3c-0.4-0.7-0.8-1.4-1.1-2.2l0,0c0.1,1,0.1,2.1,0.1,3.4l0.1,2.4L252,85.8z"/>
			<path class="st9" d="M259,79.5c0.1,0.7,0.6,0.7,1.3,0.4c0.4-0.2,0.8-0.6,1.2-0.9l0.2,1.1c-0.5,0.5-1,0.9-1.6,1.2
				c-1.5,0.8-2.4,0.2-2.4-1.6c-0.1-1.7,0.7-3.3,2.1-4.3c1.4-0.8,2,0.3,2,1.7c0,0.2,0,0.5,0,0.7L259,79.5z M260.6,77.3
				c0-0.4-0.2-1.1-0.8-0.7c-0.5,0.4-0.8,1-0.8,1.6L260.6,77.3z"/>
			<path class="st9" d="M263.5,73.5l0.4,0.7c0.1,0.2,0.3,0.4,0.4,0.7l0,0c0.1-0.4,0.2-0.7,0.3-1.1l0.3-1.1l1.5-0.8l-1.3,3.5l1.5,2.2
				l-1.5,0.9l-0.5-0.8c-0.1-0.2-0.2-0.4-0.4-0.7l0,0c-0.1,0.4-0.2,0.7-0.3,1.1l-0.4,1.3l-1.5,0.9l1.4-3.8l-1.5-2L263.5,73.5z"/>
			<path class="st9" d="M268.6,68.8l0,1.6l1-0.6v1.3l-1,0.5v2.1c0,0.7,0.2,1,0.6,0.7c0.1-0.1,0.3-0.2,0.4-0.3v1.3
				c-0.3,0.3-0.5,0.5-0.9,0.7c-0.4,0.3-0.8,0.3-1,0.1c-0.2-0.2-0.4-0.7-0.4-1.5l-0.1-2.3l-0.6,0.3v-1.3l0.6-0.3V70L268.6,68.8z"/>
			<path class="st9" d="M270.4,74.3c0-0.6,0.3-1.2,0.8-1.5c0.5-0.3,0.8,0,0.8,0.6c0,0.6-0.3,1.2-0.8,1.5
				C270.8,75.2,270.4,75,270.4,74.3z"/>
			<path class="st9" d="M272,75.5c0.3-0.2,0.6-0.5,0.8-0.8c0.2-0.6,0.3-1.3,0.2-2l-0.1-4.5l1.4-0.8l0.1,5c0.1,1-0.1,2-0.5,2.9
				c-0.4,0.7-1,1.3-1.7,1.7L272,75.5z M274.2,65.7c0,0.5-0.2,1-0.7,1.3c-0.4,0.2-0.7,0-0.7-0.5c0-0.5,0.2-1,0.7-1.3
				C273.9,65,274.2,65.2,274.2,65.7L274.2,65.7z"/>
			<path class="st9" d="M275.4,70.9c0.4,0.1,0.8,0,1.2-0.2c0.3-0.1,0.6-0.5,0.6-0.8c0-0.3-0.1-0.4-0.7-0.3c-0.9,0.1-1.3-0.3-1.3-1
				c0-1.2,0.7-2.3,1.7-2.9c0.4-0.2,0.8-0.4,1.2-0.4l-0.2,1.4c-0.3,0-0.7,0-1,0.2c-0.3,0.1-0.5,0.4-0.5,0.8c0,0.3,0.2,0.3,0.7,0.3
				c0.8-0.1,1.2,0.2,1.2,1.1c0,1.2-0.7,2.4-1.8,2.9c-0.4,0.3-0.9,0.4-1.4,0.4L275.4,70.9z"/>
		</g>
	</g>
	<g id="Character">
		<g id="Character-2">
			<path class="st29" d="M310.3,243.8c0,0-13.1-7.9-20.2-11.9c-5.6-3.2-10.6-7.1-16.1-7.1c-6,0-10.1-1.8-14.2-4.1
				c-3.4-2-5.6-3.1-8.6-4.9c-2.9-1.5-5.6-3.3-8.2-5.3c-1.6-1.3-6.1-4.6-6.8-6.6c-0.7-2,2.1-3.7,5.5-2.9c3.3,0.8,7.8,4.1,11.6,4.8
				c3.8,0.7,5.1,0.8,5.3-1.7c0.3-2.5-2.3-6.8-4-8.5c-2.5-2.1-5.3-3.9-8.3-5.1c-2.9-1.2-7.7-3.6-7.7-3.6c-2.1-0.5-4.3-1.2-6.3-2
				c-2.2-0.9-4-2.6-3.9-5.1c-2.3-2.3-1-4.5,0.5-4.4s7.7,1.2,12.1,2.1c4.4,0.9,10.5,2.5,12.6,3.2c2.1,0.6,8.9,4.2,12.8,6.1
				c3.9,1.9,4.3,2.6,5.5,3.8c1,1,4.8,5.3,9,9.4c4.5,4.5,6.7,6,10.2,7.1c5.3,1.7,25.8,9.3,31.6,10.2
				C326.4,223.4,318.9,239.4,310.3,243.8z"/>
			<path class="st30" d="M239,187.1c-1.6,0.8-3.2,1.8-4.6,2.9c-1.7,1.4,0.9,4.5,6.4,3.6c2.8-0.4,5.5-1,8.2-1.9L239,187.1z"/>
			<path class="st30" d="M228.3,179.8c0.1-1.4,1.5-2,3.8-1.5c2.3,0.5,11,2.6,14.1,3.3c3.2,0.7,6.2,2,9,3.7
				c3.8,2.2,10.8,7.3,10.8,7.3c-2.2-2.2-4.6-4.2-7.2-6c-4.7-3.3-6.5-4.5-11.3-5.7s-14-3.4-15.9-3.7
				C229.6,177,227.9,177.7,228.3,179.8z"/>
			<g id="Top">
				<g id="Character-3">
					<path class="st1" d="M394.2,194.9c16.3-2.4,31.4,2,35.6,19.6c3.1,12.9-15.3,52.5-24.8,76c0,0-36.9-1.5-40.1-28.8L394.2,194.9z"
						/>
					<path class="st30" d="M325.9,135.7c0,0-12.4,14.9-11.5,16.3c0.9,1.3,7.8,4.5,7.8,4.5L325.9,135.7z"/>
					<path class="st29" d="M333.8,109c-6.6,2.2-8.8,7.8-10,18.5c-0.5,4.5,1.5,11.5-0.1,16.2c-4.3,13.1-1.5,35.4,2,39.6
						c2.4,2.8,17.7,7.5,25.3,6.2c9.5-1.5,30.4-8.3,41.5-21.6c13.1-15.6,18.2-38,6.8-48.5C383.2,104.7,340.8,106.6,333.8,109z"/>
					<path class="st29" d="M387.1,189.9l-0.7-12.1l-37.5,6.6l0.8,8.4c0.5,4.7,0.8,9.6-2.3,11.4c-5.6,3.3-14.8,8.3-21,12.1
						c0,0,27.1,3.3,47.6-0.1c20.4-3.4,17.6-21,17.6-21C390.4,195.3,387.3,195.7,387.1,189.9z"/>
					<path class="st30" d="M326.4,183.9c3.1,2.2,12,6,23,6l-0.5-5.5c-4.3,0.9-8.8,1.3-13.2,1.2C332.5,185.6,329.4,185,326.4,183.9z"
						/>
					<path class="st22" d="M321.3,111.4c-1.1,1.4-1.7,3.1-1.9,4.9c-0.2,3,1.2,6,3.8,7.6c2.6,1.6,6,1.3,8.3-0.7
						c-0.8,3,0.1,6.2,2.2,8.5c2.2,2.1,5.9,2.7,8.3,0.8c-0.7,1.6-1.4,3.7,0,4.8c0.4,0.3,0.8,0.4,1.2,0.5c1.2,0.3,2.5,0.2,3.7-0.2
						c-1.3,1.4-1.9,3.3-1.6,5.2c0.2,0.6,3.1,4.4,3.3,3.9c0,0,3.8-10.5,12.8-8.3s9.1,14,2.7,20.6c-6.5,6.5-11.5,3.3-11.6,3.3
						c0,1.9-0.2,12.1,8.2,17.9c5.1,3.6,18.6,4.4,25.8,0.1c2.6-4.7,7-10.7,10.4-16c11.4-17.6,15.1-28.5,13.2-38.5
						c-1.3-6.8-4.4-10.6-9.5-11.9c-0.3-6.4-1.2-11.4-8.1-17.3c-10.9-9.3-23.4-10.2-33.2-9.8c-3.4,0.2-6.7,0.7-10.1,0.3
						c-2.9-0.4-5.6-1.6-8.4-2.1s-6.1-0.2-8.1,2c-2,2.1-2.1,5.7-1.3,8.7c-2.4,0.1-4.7,0.8-6.7,2c-2.1,1.2-3.5,3.3-3.8,5.6
						c-0.3,2.4,1,4.7,3.2,5.7C323,109.6,322,110.4,321.3,111.4z"/>
					<path class="st31" d="M309.2,384.7c0-8.8,0.1-15.5,0.1-21.3c0.1-19.2,0.2-27.1-0.8-56.6c-1.6-52.2,4.4-82.7,18.3-93.3l6.9-3.1
						c4.4-2.1,9-4,13.7-5.6c1.7,0.8,7.2,2.9,16.8,2.9c2,0,3.9-0.1,5.9-0.3c14.5-1.2,21.2-8.8,21.8-11.7l2.3-0.2
						c3.8,1.1,7.5,2.6,10.9,4.5l0.8,0.4c3.9,2,11.9,6.2,15.2,22c6.2,30.3-0.2,58.1-4.9,78.5c-1,4.5-2,8.7-2.7,12.5l-0.8,4.2
						c-3.7,19-6.2,31.5-5.4,51.4l-62.4,36.9L309.2,384.7z"/>
					<path class="st4" d="M394.2,196c3.7,1.1,7.3,2.6,10.7,4.5l0.8,0.4c4.1,2.1,11.7,6.1,14.9,21.6c6.2,30.2-0.2,58-4.9,78.2
						c-1,4.5-2,8.7-2.7,12.5c-0.3,1.4-0.6,2.8-0.8,4.2c-3.7,18.9-6.2,31.5-5.4,51.2l-61.9,36.6l-35.1-20.8c0-8.6,0.1-15.2,0.1-21.1
						c0.1-19.2,0.2-27.1-0.8-56.6c-1.6-51.9,4.3-82.3,18.1-92.8l6.8-3.1c4.4-2.1,8.9-3.9,13.4-5.6c2,0.9,7.5,2.9,16.8,2.9
						c2,0,3.9-0.1,6-0.3c8.4-0.7,13.8-3.5,16.9-5.7c3.1-2.2,4.7-4.4,5.2-6C392.8,196.1,393.5,196.1,394.2,196 M394.3,195l-2.8,0.3
						c0.1,2-6.2,10.4-21.4,11.7c-2.1,0.2-4.1,0.3-5.9,0.3c-8.8,0-14.4-1.8-16.8-2.9c-6.5,2.2-8.2,3.2-20.8,8.8
						c-13.1,9.9-20.3,37.3-18.6,93.8c1.2,38.6,0.7,40.6,0.7,78.2l36.2,21.4l62.8-37.3c-0.9-21.4,2-34.2,6.2-55.7
						c4.3-21.7,15.2-54.2,7.6-91.1c-3.5-17.1-12.5-20.7-16.1-22.7C401,197.2,396.6,195.4,394.3,195L394.3,195z"/>
				</g>
				<g id="Hand">
					<path class="st29" d="M249.1,272.5c-14.3-9.2-24.7-17.6-26.7-21c-2.3-3.9-5-12.3-6.3-18.6c-0.6-3.4-1.8-6.7-3.6-9.7
						c-1.4-2.3-3-4.5-4.9-6.5c-0.7-0.7-3.3,1-3.1,3.8s1.9,5.2,2.2,7.1c0.3,1.9-1.1,7.1-1.1,7.1s-4-4-7.8-7.4c-2.8-2.7-6.1-5-9.7-6.6
						c-3.9-1.9-6.6-3-7.5-3.3c-0.9-0.3-6.1-2-8.6-2.4c-2.5-0.4-2.5,2-1.2,3.7c1.3,1.8,8.9,5.4,8.9,5.4s-4.1-1-5.9-1.6
						c-1.6-0.6-3.2-0.8-4.9-0.7c-2.4,0-5.2-0.1-7,0.1c-2.8,0.2-2.3,3.8,0.7,5.2c3,1.4,7.7,2,9.4,2.6c2.6,1,5.2,2.3,7.6,3.7
						c1,0.8,5.8,4.9,6,5.4c0.2,0.5-2.3-0.9-6.2-2.7c-3.9-1.8-9.5-4.6-11.1-5.1c-3.4-1-6.8-1.9-10.2-2.6c-2.1-0.3-2.4,2.6-0.8,5.1
						c1.6,2.5,7.5,4.1,9.5,5.1c2,1.1,7.5,4.3,10.5,6.2s5,3.3,4.7,4.4c-0.3,1.1-2.7,0.7-6.2,0.1c-3.5-0.6-7.8-1.7-10.6-2.4
						c-2.8-0.7-6.6-2-7.7-0.6c-1.1,1.3-0.5,3.8,2,4.8c2.4,1.1,7,2.4,10.1,3.4c3.1,1,8.5,2.3,10.5,2.9c2.7,1.1,5.1,2.7,7,4.8
						c2,2.2,6,8.1,11.1,11s9.2,4.1,12.9,8.1c3.6,3.9,15.2,17.6,15.2,17.6c5.3-2.1,10.2-5.1,14.4-9
						C245.3,285.5,248.4,279.2,249.1,272.5z"/>
					<path class="st30" d="M208.1,234.3c-0.7-1.7-1.2-3.5-1.5-5.4l0,0c-0.2,2-0.6,3.9-1.1,5.9c1.9,2.1,3.6,4.4,5,6.8
						C210.4,239.1,209.1,236.6,208.1,234.3z"/>
					<path class="st30" d="M179.6,224.3c2,0.8,3.8,1.8,5.5,3.1c1.8,1.3,8.2,6.3,8.2,6.3c-1.2-1.4-2.5-2.7-3.9-3.9
						c-1.7-1.6-3.6-2.9-5.6-4C182.5,225.2,181,224.7,179.6,224.3z"/>
				</g>
				<path class="st29" d="M263,282.3c0,0,14-19.6,26.5-37.8c9.2-13.2,21.9-23.5,36.6-29.9c19.5,17.1-0.3,63.5-0.3,63.5
					c-12.6,14.3-32.2,37.7-38.2,44.4c-11.2,12.5-19.1,17.7-33.2,5.7c-8-6.7-15.5-14.1-22.3-22c-9.3-10.6-19-22.2-19-22.2l19.9-22.4
					L263,282.3z"/>
				<path class="st30" d="M263,282.3c-5,5.9-7.7,12.3-6.1,22.9c-4.2-6.6-4.5-17.1,2.7-25.2L263,282.3z"/>
				<path class="st1" d="M326.6,213.1c-14.1,6.2-23.1,8.7-38,30.9c-10.4,15.5-23.7,34.4-23.7,34.4s-0.1,8.4,12.4,20.1
					s22.2,12.2,22.2,12.2l26.9-31.8C326.4,278.9,350.4,233.1,326.6,213.1z"/>
			</g>
			<path class="st6" d="M446.4,204.9c-1-0.6-4.9-3.3-5.9-4c-3.5-2.3-8.4-2.1-14.1,1.2l-50.9,29.3c-11.4,6.6-21.4,23-22.2,36.7
				l-8.7,138l6,3.5l92.3-54l8.6-136.7C451.9,212.1,449.9,207.2,446.4,204.9z"/>
			<path class="st7" d="M446.4,204.9c-1-0.6-4.9-3.3-5.9-4c-3.5-2.3-8.4-2.1-14.1,1.2l-50.9,29.3c-11.4,6.6-21.4,23-22.2,36.7
				l-8.7,138l6,3.5l92.3-54l8.6-136.7C451.9,212.1,449.9,207.2,446.4,204.9z"/>
			<path class="st6" d="M446,305.2l5.5-86.3c0.4-6.9-1.5-11.8-5-14.1c-1-0.6-4.9-3.3-5.9-4c-3.5-2.3-8.4-2.1-14.1,1.2l-50.9,29.3
				c-5.9,3.4-11.3,9.3-15.3,16.1L446,305.2z"/>
			<path class="st32" d="M446,305.2l5.5-86.3c0.4-6.9-1.5-11.8-5-14.1c-1-0.6-4.9-3.3-5.9-4c-3.5-2.3-8.4-2.1-14.1,1.2l-50.9,29.3
				c-5.9,3.4-11.3,9.3-15.3,16.1L446,305.2z"/>
			<path class="st2" d="M446.4,204.9c-3.5-2.3-8.4-2.1-14.1,1.2l-50.9,29.3c-11.4,6.6-21.4,23-22.2,36.7l-8.7,137.5l8.2,4.7
				l92.3-53.3l8.6-136.7c0.4-6.7-1.4-11.6-4.8-13.9C453.4,209.5,447.8,205.8,446.4,204.9z"/>
			<path class="st33" d="M366.1,251.5c-3.9,6.5-6.5,13.9-6.9,20.6l-8.7,137.5l8.2,4.7l92.3-53.3l3.2-50.4L366.1,251.5z"/>
			<path class="st22" d="M358.7,414.4l8.7-136.8c0.9-13.7,10.8-30.1,22.2-36.7l50.9-29.3c11.4-6.6,20-0.8,19.1,12.9L451,361.1
				L358.7,414.4z"/>
			<path class="st6" d="M287.2,347.5l73,42.2l-27.9,16.1l-83.6-48.3l17.3-10C272.6,343.7,280.7,343.7,287.2,347.5z"/>
			<path class="st32" d="M287.2,347.5l73,42.2l-27.9,16.1l-83.6-48.3l17.3-10C272.6,343.7,280.7,343.7,287.2,347.5z"/>
			<polygon class="st6" points="248.7,365 248.7,357.5 332.4,405.7 332.4,413.2 			"/>
			<polygon class="st13" points="248.7,365 248.7,357.5 332.4,405.7 332.4,413.2 			"/>
			<polygon class="st6" points="360.2,389.7 359.7,397.4 332.4,413.2 332.4,405.7 			"/>
			<polygon class="st21" points="360.2,389.7 359.7,397.4 332.4,413.2 332.4,405.7 			"/>
		</g>
	</g>
</g>
</svg>
